<svg width="44" height="27" viewBox="0 0 44 27" fill="none" xmlns="http://www.w3.org/2000/svg">
<path d="M3.52 26.5499L17.6 12.1499L24.86 19.5749C25.74 20.4749 26.84 20.4749 27.72 19.7999L27.94 19.5749L37.4 9.8999L40.26 12.8249C41.58 14.1749 43.78 13.2749 44 11.4749V11.2499V2.0249V1.7999V1.5749V1.3499V1.1249L43.78 0.899902L43.56 0.674902L43.34 0.449902L43.12 0.224902L42.9 -9.77069e-05L42.68 -0.225098H42.46H42.24H42.02L41.8 -9.77069e-05H33C31.02 -9.77069e-05 30.14 2.2499 31.24 3.5999L31.46 3.8249L34.32 6.7499L26.4 14.8499L19.14 7.4249C18.26 6.5249 17.16 6.5249 16.28 7.1999L16.06 7.4249L0.66 23.1749C-0.22 24.0749 -0.22 25.4249 0.66 26.3249C1.54 27.2249 2.64 27.2249 3.52 26.5499Z" fill="#FFCF55"/>
</svg>
