<svg width="40" height="39" viewBox="0 0 40 39" fill="none" xmlns="http://www.w3.org/2000/svg">
<g clip-path="url(#clip0)">
<path d="M11.5248 16.6594H37.2657C38.0207 16.6594 38.7017 16.9595 39.1964 17.4415V17.4461C39.6907 17.9284 39.9989 18.5923 39.9989 19.3239V36.3349C39.9989 37.0661 39.6907 37.7346 39.1964 38.2166C38.7017 38.6993 38.0207 38.9991 37.2657 38.9991H11.5248C10.7745 38.9991 10.0889 38.6993 9.59449 38.2166C9.0998 37.7346 8.79199 37.0704 8.79199 36.3349V19.3239C8.79199 18.5923 9.0998 17.9238 9.59449 17.4415C10.0892 16.9595 10.7745 16.6594 11.5248 16.6594ZM37.2657 17.8775H11.5248C11.117 17.8775 10.7482 18.0424 10.4795 18.3044C10.2104 18.5667 10.0414 18.9263 10.0414 19.3239V36.3349C10.0414 36.7325 10.2104 37.096 10.4795 37.3583C10.7479 37.6201 11.117 37.7809 11.5248 37.7809H37.2657C37.6736 37.7809 38.0464 37.6204 38.3154 37.3583C38.5842 37.096 38.7495 36.7322 38.7495 36.3349V19.3239C38.7495 18.9263 38.5845 18.5628 38.3154 18.3004V18.3047C38.0464 18.0427 37.6736 17.8775 37.2657 17.8775Z" fill="#FFBA4F"/>
<path d="M19.1779 11.58H29.6191C30.2135 11.58 30.7597 11.8167 31.1503 12.2015C31.5407 12.5863 31.7882 13.1153 31.7882 13.6945V17.2682V17.8772H31.1632H28.526H27.9016V17.2682V15.2892H20.8957V17.2685V17.8775H20.2707H17.6335H17.0088V17.2685V13.6945C17.0088 13.1153 17.2516 12.5821 17.6419 12.2015C18.0366 11.8167 18.5794 11.58 19.1779 11.58ZM29.6188 12.7981H19.1779C18.926 12.7981 18.6963 12.8993 18.5269 13.0644C18.3622 13.2253 18.2585 13.4492 18.2585 13.6945V16.6591H19.6463V14.6798V14.0711H20.271H28.526H29.151V14.6798V16.6594H30.5388V13.6948C30.5388 13.4492 30.4347 13.2253 30.27 13.0647H30.2653C30.1003 12.8996 29.8707 12.7981 29.6188 12.7981Z" fill="#FFBA4F"/>
<path d="M6.90125 33.0571C7.24406 33.0571 7.52594 33.3273 7.52594 33.6658C7.52594 33.9998 7.24406 34.2746 6.90125 34.2746H1.87406C1.36219 34.2746 0.89375 34.0674 0.550938 33.7377V33.7335C0.2125 33.4035 0 32.9471 0 32.4434V1.82691C0 1.32783 0.2125 0.871102 0.550938 0.537164C0.889063 0.207188 1.3575 0 1.87406 0H19.4463C19.7153 0 19.9669 0.0508828 20.2016 0.152344C20.4316 0.253805 20.6397 0.401578 20.8262 0.592008V0.596273V0.592008L25.5416 5.51088C25.5544 5.52368 25.5631 5.53617 25.5763 5.54897C25.7275 5.71381 25.8363 5.89601 25.9144 6.08613C25.9925 6.29363 26.0359 6.51331 26.0359 6.74609V9.73202C26.0359 10.0702 25.7541 10.3411 25.4113 10.3411C25.0644 10.3411 24.7822 10.0702 24.7822 9.73202V6.74609C24.7822 6.66138 24.7738 6.58552 24.7475 6.51757C24.7216 6.46273 24.6912 6.41184 24.6522 6.36096C24.6434 6.35274 24.6344 6.34847 24.6259 6.33994L19.915 1.42106C19.8497 1.35342 19.7763 1.30254 19.6981 1.26445C19.6247 1.2349 19.5422 1.21814 19.4466 1.21814H1.87406C1.705 1.21814 1.54875 1.28578 1.43594 1.40004L1.43156 1.39577C1.31875 1.50546 1.24937 1.66207 1.24937 1.82691V32.4434C1.24937 32.6125 1.31875 32.7649 1.43156 32.8749L1.43594 32.8791C1.54875 32.9852 1.70469 33.0571 1.87406 33.0571H6.90125Z" fill="#FFBA4F"/>
<path d="M22.1311 27.7619L11.4123 25.7778C10.6879 25.6467 10.0195 25.3381 9.53855 24.8686C9.07824 24.4204 8.79199 23.8326 8.79199 23.1261H10.0414C10.0414 23.4856 10.1892 23.7818 10.4232 24.0103C10.7226 24.2976 11.1607 24.4966 11.6423 24.5852L22.3611 26.5687L22.1311 27.7619ZM39.9986 23.1261C39.9986 23.8323 39.7123 24.4161 39.2523 24.8643V24.8686C38.7707 25.3381 38.1029 25.6471 37.3829 25.7778L26.6639 27.7783L26.4298 26.5858L37.1486 24.5852C37.6345 24.4923 38.0726 24.2979 38.3717 24.0103C38.6061 23.7818 38.7492 23.4853 38.7492 23.1261H39.9986Z" fill="#FFBA4F"/>
<path d="M15.92 5.44293C16.2668 5.44293 16.5446 5.7138 16.5446 6.052C16.5446 6.38624 16.2668 6.66107 15.92 6.66107H7.20121C6.85402 6.66107 6.57621 6.38624 6.57621 6.052C6.57621 5.7138 6.85402 5.44293 7.20121 5.44293H15.92ZM4.22496 5.44293C4.57215 5.44293 4.85434 5.7138 4.85434 6.052C4.85434 6.38624 4.57246 6.66107 4.22496 6.66107H3.75684C3.41371 6.66107 3.13184 6.38624 3.13184 6.052C3.13184 5.7138 3.41371 5.44293 3.75684 5.44293H4.22496Z" fill="#FFBA4F"/>
<path d="M11.8118 10.9709C12.1546 10.9709 12.4365 11.2454 12.4365 11.58C12.4365 11.9182 12.1546 12.1887 11.8118 12.1887H7.2009C6.85402 12.1887 6.57621 11.9182 6.57621 11.58C6.57621 11.2457 6.85402 10.9709 7.2009 10.9709H11.8118ZM4.22527 10.9709C4.57215 10.9709 4.85434 11.2454 4.85434 11.58C4.85434 11.9182 4.57246 12.1887 4.22527 12.1887H3.75684C3.41402 12.1887 3.13184 11.9182 3.13184 11.58C3.13184 11.2457 3.41371 10.9709 3.75684 10.9709H4.22527Z" fill="#FFBA4F"/>
<path d="M15.92 8.20889C16.2668 8.20889 16.5446 8.47976 16.5446 8.81796C16.5446 9.1519 16.2668 9.42703 15.92 9.42703H7.20121C6.85402 9.42703 6.57621 9.15221 6.57621 8.81796C6.57621 8.47976 6.85402 8.20889 7.20121 8.20889H15.92ZM4.22496 8.20889C4.57215 8.20889 4.85434 8.47976 4.85434 8.81796C4.85434 9.1519 4.57246 9.42703 4.22496 9.42703H3.75684C3.41371 9.42703 3.13184 9.15221 3.13184 8.81796C3.13184 8.47976 3.41371 8.20889 3.75684 8.20889H4.22496Z" fill="#FFBA4F"/>
<path d="M20.0882 0.223945L25.7747 6.24244C26.0047 6.48771 25.9919 6.87253 25.7357 7.10074C25.6185 7.20647 25.4672 7.26162 25.315 7.26162H21.3982C20.7304 7.26162 20.1272 6.99502 19.6891 6.56815C19.6763 6.55535 19.6629 6.54286 19.65 6.53006C19.2335 6.10685 18.9775 5.53191 18.9775 4.90151V0.60907C18.9775 0.274828 19.2554 0 19.6025 0C19.7972 0 19.971 0.0886641 20.0882 0.223945ZM23.8925 6.04378L20.2269 2.16937V4.90181C20.2269 5.2062 20.3485 5.48102 20.5438 5.68395C20.5522 5.69248 20.5613 5.70101 20.57 5.70954C20.7825 5.91673 21.0772 6.04348 21.3982 6.04348L23.8925 6.04378Z" fill="#FFBA4F"/>
<path d="M28.404 3.28176C28.3346 3.61143 28.0053 3.82288 27.6668 3.75128C27.3284 3.68334 27.1115 3.36219 27.1809 3.03618L27.4196 1.92803L27.7318 0.485945C27.7925 0.198625 28.0528 -0.000640869 28.3434 -0.000640869H29.4365H30.5296C30.8462 -0.000640869 31.1068 0.227875 31.1499 0.527992L31.6096 2.65959C31.9306 2.74855 32.2431 2.85428 32.5465 2.97676C32.8546 3.09955 33.1537 3.24337 33.4399 3.39998L35.3531 2.18184C35.6003 2.02523 35.9256 2.06331 36.1293 2.26227H36.134L36.9062 3.01516C36.9146 3.02795 36.9278 3.03648 36.9368 3.04898L37.6784 3.7723C37.8949 3.97949 37.9171 4.30947 37.7481 4.54621L36.5115 6.39414C36.6762 6.67354 36.8196 6.96512 36.9496 7.26555C37.0712 7.5614 37.1796 7.86608 37.2706 8.179L39.5003 8.63999C39.8084 8.6991 40.0165 8.96997 39.9993 9.26582V10.2984V11.3642C39.9993 11.6728 39.7653 11.9309 39.4571 11.969L37.2709 12.4172C37.1799 12.7344 37.0712 13.0391 36.9499 13.3307C36.7678 13.7578 36.5509 14.1637 36.3037 14.5406C36.1218 14.8279 35.7356 14.9126 35.4406 14.7307C35.1499 14.5488 35.0634 14.1725 35.2496 13.8888C35.4624 13.5634 35.6446 13.2207 35.7965 12.8657C35.944 12.5187 36.0609 12.1634 36.1478 11.7999C36.1868 11.5589 36.3774 11.3599 36.6337 11.3051L38.7499 10.8737V10.2984H38.7543V9.72742L36.6331 9.29172C36.4034 9.2454 36.2081 9.07173 36.1515 8.83072C36.069 8.45444 35.9478 8.09064 35.7959 7.73141C35.644 7.37615 35.4618 7.03337 35.249 6.70797C35.1234 6.51327 35.119 6.25947 35.2534 6.05228L36.4381 4.28448L36.0559 3.90819C36.0431 3.89997 36.0346 3.89113 36.0212 3.87833L35.6049 3.47249L33.8306 4.60166C33.6268 4.7537 33.3446 4.77076 33.1196 4.63122C32.7856 4.42403 32.4343 4.2464 32.0699 4.09832C31.714 3.95451 31.3456 3.84025 30.9724 3.75585C30.7296 3.71776 30.5212 3.53587 30.4693 3.28206L30.0218 1.2178H29.4365H28.8462L28.6425 2.17361L28.404 3.28176ZM29.4365 6.52576C29.0893 6.52576 28.8115 6.2549 28.8115 5.91669C28.8115 5.57849 29.0893 5.30762 29.4365 5.30762C30.8503 5.30762 32.1299 5.86612 33.0584 6.77104C33.9824 7.672 34.5549 8.91969 34.5549 10.2984C34.5549 10.6622 34.5159 11.0217 34.4378 11.3642C34.3596 11.7149 34.2424 12.0537 34.0912 12.3791C33.9478 12.6838 33.579 12.8191 33.2624 12.6795C32.9503 12.5397 32.8156 12.1802 32.959 11.8758C33.0715 11.639 33.1584 11.381 33.219 11.1101C33.2756 10.8481 33.3059 10.5772 33.3059 10.2981C33.3059 9.25759 32.8721 8.31428 32.1737 7.62934C31.4709 6.94898 30.5034 6.52576 29.4365 6.52576Z" fill="#FFBA4F"/>
<path d="M22.3355 23.1435H26.4605C26.7862 23.1435 27.0809 23.2745 27.2937 23.4814L27.298 23.4856C27.5109 23.6934 27.6449 23.985 27.6449 24.3022V28.7601C27.6449 29.6312 27.2809 30.4221 26.6905 30.9971C26.1052 31.5726 25.2896 31.9279 24.3959 31.9279C23.5021 31.9279 22.6909 31.5726 22.1012 30.9971C21.5152 30.4221 21.1465 29.6315 21.1465 28.7601V24.3022C21.1465 23.985 21.2812 23.6928 21.498 23.4856V23.4814C21.7149 23.2745 22.0102 23.1435 22.3355 23.1435ZM26.3959 24.3616H22.4005V28.7601C22.4005 29.2927 22.6218 29.7835 22.9862 30.1348C23.3505 30.4901 23.8496 30.7098 24.3959 30.7098C24.9471 30.7098 25.4455 30.4901 25.8099 30.1348C26.1699 29.7838 26.3959 29.2927 26.3959 28.7601V24.3616Z" fill="#FFBA4F"/>
<path d="M24.3952 29.2884C24.7402 29.2884 25.0199 29.0157 25.0199 28.6793C25.0199 28.3429 24.7402 28.0703 24.3952 28.0703C24.0502 28.0703 23.7705 28.3429 23.7705 28.6793C23.7705 29.0157 24.0502 29.2884 24.3952 29.2884Z" fill="#FFBA4F"/>
</g>
<defs>
<clipPath id="clip0">
<rect width="40" height="39" fill="white"/>
</clipPath>
</defs>
</svg>
