<svg width="110" height="104" viewBox="0 0 110 104" fill="none" xmlns="http://www.w3.org/2000/svg">
<g clip-path="url(#clip0)">
<path d="M68.1769 59.8002C67.6887 59.8002 67.207 59.5836 66.883 59.1701C66.3247 58.4568 66.4494 57.4241 67.1654 56.8662C67.2486 56.8006 69.2607 55.2384 72.3807 53.6653C75.5006 52.09 77.9528 51.4008 78.0557 51.3724C78.9293 51.1295 79.8357 51.6415 80.0788 52.5145C80.3218 53.3874 79.8117 54.291 78.9381 54.5339C78.9074 54.5426 76.6698 55.1771 73.8629 56.5949C71.0276 58.0258 69.2082 59.437 69.1906 59.4523C68.8885 59.6864 68.5316 59.8002 68.1769 59.8002Z" fill="#FFCF55"/>
<path d="M63.6124 87.6498C63.3409 87.6498 63.065 87.582 62.8111 87.4398C61.1208 86.4946 59.9079 84.5255 59.9254 82.7599C59.9363 81.6046 59.8028 80.3357 59.6188 78.5766C59.5138 77.5723 59.3955 76.4368 59.2729 75.054C59.1941 74.1504 59.8619 73.354 60.7639 73.2753C61.666 73.1921 62.4651 73.8638 62.544 74.7652C62.6622 76.1195 62.7804 77.2419 62.8855 78.2331C63.0804 80.0994 63.2227 81.4493 63.2095 82.7905C63.2052 83.2412 63.6737 84.1579 64.4159 84.5736C65.2063 85.0156 65.4888 86.0155 65.0465 86.8075C64.7443 87.3479 64.186 87.6498 63.6124 87.6498Z" fill="#FFCF55"/>
<path d="M77.8236 91.5992C76.4333 91.5992 74.9707 91.5051 73.4622 91.2798C72.5645 91.1463 71.9471 90.3105 72.0807 89.4135C72.2142 88.5164 73.0506 87.9016 73.9483 88.0329C82.001 89.2363 88.7796 86.1688 88.8474 86.1382C88.889 86.1185 94.9669 83.1298 98.7613 76.0651C99.1904 75.2665 100.187 74.9667 100.986 75.3956C101.785 75.8244 102.085 76.8199 101.656 77.6185C97.3294 85.67 90.5311 88.9737 90.2443 89.1094C89.9728 89.2363 84.7904 91.5992 77.8236 91.5992Z" fill="#FFCF55"/>
<path d="M103.522 68.3657C103.471 68.3657 103.421 68.3635 103.371 68.3592C102.468 68.276 101.803 67.4774 101.886 66.576C101.934 66.0487 101.963 65.5105 101.974 64.9766C101.982 64.41 101.737 63.9155 101.282 63.5873C99.5193 62.314 96.8131 60.2617 93.9208 57.7062C93.2421 57.1067 93.1764 56.0697 93.7785 55.3892C94.3784 54.7088 95.4162 54.6453 96.0972 55.247C99.0376 57.8419 101.814 59.9204 103.208 60.9268C104.54 61.8895 105.288 63.386 105.26 65.0313C105.249 65.6461 105.216 66.2653 105.159 66.8736C105.076 67.7268 104.36 68.3657 103.522 68.3657Z" fill="#FFCF55"/>
<path d="M94.6733 59.8832C94.5835 59.8832 94.4938 59.8767 94.404 59.8613C93.5107 59.7148 92.9064 58.8724 93.0509 57.9797C93.0662 57.8857 94.104 50.8297 89.1406 44.2922C86.9862 45.5568 82.2723 48.7533 79.9843 53.6499C79.6012 54.4703 78.6225 54.8248 77.8014 54.4419C76.9804 54.059 76.6257 53.081 77.0088 52.2605C80.5251 44.7363 88.5122 40.8769 88.8494 40.7171C89.515 40.3999 90.3119 40.5662 90.7958 41.1241C97.7473 49.1362 96.357 58.1307 96.2935 58.5114C96.1577 59.3122 95.4615 59.8832 94.6733 59.8832Z" fill="#FFCF55"/>
<path d="M81.3554 56.0281C81.2284 56.0281 81.1014 56.0128 80.9722 55.9822C80.0899 55.7721 79.5469 54.886 79.7571 54.0043C82.1108 44.1609 88.5499 40.8637 88.8214 40.7281C89.6337 40.3255 90.619 40.6559 91.0218 41.4676C91.4247 42.2771 91.0963 43.2573 90.2906 43.6643C90.0563 43.7846 84.9242 46.5129 82.9493 54.7701C82.7698 55.5205 82.0976 56.0281 81.3554 56.0281Z" fill="#FFCF55"/>
<path d="M62.5303 76.402C62.2829 76.402 62.0311 76.3451 61.7947 76.2269C61.4509 76.0541 53.3566 71.8796 50.9701 61.5483C50.8037 60.8306 51.1386 60.0889 51.7867 59.7367C52.1151 59.5573 59.9402 55.3805 68.0959 56.9712C68.987 57.144 69.5672 58.006 69.3943 58.8965C69.2213 59.787 68.3587 60.3668 67.4675 60.1939C62.1362 59.1547 56.7918 61.08 54.506 62.0777C56.875 69.9498 63.2069 73.2667 63.2748 73.2995C64.0805 73.7108 64.4045 74.6976 63.9951 75.5049C63.7061 76.0716 63.1303 76.402 62.5303 76.402Z" fill="#FFCF55"/>
<path d="M67.2573 63.3751C67.0471 63.3751 66.8325 63.3335 66.6267 63.2482C58.771 59.975 53.5404 62.5283 53.3215 62.6377C52.5157 63.0447 51.5283 62.7253 51.1167 61.9223C50.7051 61.1193 51.0138 60.137 51.8151 59.7213C52.0844 59.5812 58.5433 56.3234 67.8922 60.2179C68.7286 60.5658 69.1249 61.5285 68.7768 62.3643C68.5118 62.9966 67.901 63.3751 67.2573 63.3751Z" fill="#FFCF55"/>
<path d="M83.7158 77.9246L80.9462 77.0145C79.6851 76.6009 79.5559 74.8703 80.7404 74.273L84.4187 72.4177C85.6031 71.8204 86.919 72.9515 86.503 74.2117L85.5922 76.9773C85.3382 77.7562 84.4953 78.1806 83.7158 77.9246Z" fill="#FFCF55"/>
<path d="M81.684 84.7902C79.8843 84.7902 78.148 83.8012 77.2832 82.0903C76.8738 81.2808 77.2 80.294 78.0101 79.8849C78.8202 79.4757 79.8076 79.8017 80.2171 80.6113C80.6243 81.4164 81.6096 81.7402 82.4153 81.3333L82.77 81.1539C83.5757 80.7469 83.8997 79.7624 83.4925 78.9572L82.9999 77.9814C82.5904 77.1719 82.9167 76.1851 83.7268 75.7782C84.5369 75.3691 85.5243 75.6951 85.9315 76.5046L86.4242 77.4804C87.6459 79.9002 86.6716 82.8626 84.25 84.0835L83.8953 84.2629C83.1838 84.6217 82.4284 84.7902 81.684 84.7902Z" fill="#FFCF55"/>
<path d="M87.9762 81.6178C87.4595 81.6178 86.9384 81.5347 86.4326 81.3684C85.1846 80.9571 84.1709 80.0863 83.5776 78.9136L83.085 77.9378C82.6755 77.1282 83.0018 76.1415 83.8118 75.7324C84.6219 75.3254 85.6094 75.6492 86.0188 76.4587L86.5114 77.4324C86.7085 77.8218 87.0457 78.1128 87.4595 78.2485C87.8755 78.3841 88.3177 78.3513 88.7075 78.1544L89.0621 77.975C89.8679 77.568 90.1919 76.5835 89.7847 75.7783C89.3752 74.9688 89.7015 73.982 90.5116 73.5729C91.3217 73.1659 92.3091 73.4897 92.7185 74.2993C93.9402 76.7191 92.9659 79.6815 90.5444 80.9046L90.1897 81.084C89.4913 81.4406 88.7359 81.6178 87.9762 81.6178Z" fill="#FFCF55"/>
<path d="M60.901 89.8661C60.4105 89.8661 59.9245 89.6474 59.6004 89.2273C59.0465 88.5096 59.1779 87.4813 59.896 86.9278C60.0471 86.8118 63.6772 84.0266 70.4163 80.6288C71.2264 80.2218 72.2138 80.5457 72.6233 81.3552C73.0327 82.1647 72.7065 83.1515 71.8964 83.5606C65.466 86.8053 61.9388 89.5008 61.9037 89.527C61.6038 89.7546 61.2513 89.8661 60.901 89.8661Z" fill="#FFCF55"/>
<path d="M64.8319 93.9381C64.5714 93.9381 64.3065 93.8746 64.0612 93.7434C63.2621 93.3167 62.96 92.3278 63.3847 91.5292C63.4898 91.3323 66.0077 86.6786 71.952 82.8716C72.7161 82.3837 73.732 82.6047 74.2203 83.3683C74.7085 84.1319 74.4874 85.1471 73.7233 85.635C68.543 88.9518 66.3054 93.0323 66.2835 93.0717C65.9836 93.623 65.4165 93.9381 64.8319 93.9381Z" fill="#FFCF55"/>
<path d="M96.0044 71.1991C95.4198 71.1991 94.8527 70.8862 94.5571 70.3348C94.128 69.5362 94.428 68.5407 95.2249 68.1119C100.753 65.1407 108.049 65.1079 108.355 65.1079C109.261 65.1079 109.997 65.843 109.997 66.7488C109.997 67.6546 109.261 68.3898 108.357 68.3898C108.289 68.3898 101.57 68.4292 96.7816 71.0021C96.5342 71.1356 96.2671 71.1991 96.0044 71.1991Z" fill="#FFCF55"/>
<path d="M108.163 74.7281C107.992 74.7281 107.819 74.7018 107.648 74.6449C107.589 74.6252 103.793 73.4285 96.6617 73.7019C95.7509 73.7391 94.9933 73.0303 94.9583 72.1245C94.9232 71.2187 95.6304 70.4573 96.5369 70.4223C104.358 70.1225 108.511 71.4725 108.684 71.5294C109.544 71.816 110.009 72.7458 109.722 73.6057C109.49 74.2949 108.85 74.7281 108.163 74.7281Z" fill="#FFCF55"/>
<path d="M23.3238 89.1726C17.6882 89.1726 13.1035 84.5912 13.1035 78.9595V72.0194C13.1035 69.6828 13.8063 67.4314 15.1353 65.5082C15.6498 64.7622 16.6723 64.5762 17.4189 65.0903C18.1655 65.6045 18.3516 66.6284 17.8371 67.3723C16.8891 68.7441 16.3877 70.3523 16.3877 72.0194V78.9595C16.3877 82.7818 19.4989 85.8908 23.3238 85.8908C27.1488 85.8908 30.26 82.7818 30.26 78.9595C30.26 78.0537 30.9957 77.3186 31.9021 77.3186C32.8085 77.3186 33.5442 78.0537 33.5442 78.9595C33.5442 84.5912 28.9595 89.1726 23.3238 89.1726Z" fill="#FFCF55"/>
<path d="M40.5807 89.1726C34.9451 89.1726 30.3604 84.5912 30.3604 78.9595C30.3604 78.0537 31.096 77.3186 32.0024 77.3186C32.9089 77.3186 33.6445 78.0537 33.6445 78.9595C33.6445 82.7818 36.7557 85.8908 40.5807 85.8908C44.4057 85.8908 47.5169 82.7818 47.5169 78.9595V72.0194C47.5169 70.3523 47.0155 68.7441 46.0674 67.3723C45.5529 66.6262 45.739 65.6045 46.4856 65.0903C47.2322 64.5762 48.2547 64.7622 48.7692 65.5082C50.0982 67.4314 50.801 69.6828 50.801 72.0194V78.9595C50.8032 84.5912 46.2163 89.1726 40.5807 89.1726Z" fill="#FFCF55"/>
<path d="M32.0264 79.4847C30.9164 79.4847 29.8633 78.9684 29.1845 78.0954L26.1084 74.8223C26.0602 74.772 26.0164 74.7173 25.9748 74.6604C25.1779 73.5599 25.0662 72.1268 25.6836 70.9169C26.301 69.707 27.5293 68.9565 28.8868 68.9565H35.1595C36.517 68.9565 37.7453 69.707 38.3627 70.9169C38.9801 72.1268 38.8685 73.5599 38.0715 74.6604C38.0299 74.7173 37.9861 74.7698 37.938 74.8223L34.8618 78.0954C34.1874 78.9684 33.1343 79.4847 32.0264 79.4847ZM28.6043 72.6825L31.6411 75.9119C31.6893 75.9622 31.7331 76.0169 31.7747 76.0738C31.8513 76.181 31.9542 76.2029 32.0286 76.2029C32.1009 76.2029 32.2038 76.181 32.2826 76.0738C32.3242 76.0169 32.368 75.9644 32.4162 75.9119L35.4529 72.6825C35.4945 72.595 35.4923 72.5053 35.4442 72.4112C35.3872 72.2975 35.2931 72.2406 35.1661 72.2406H28.8934C28.7664 72.2406 28.6722 72.2975 28.6153 72.4112C28.5627 72.5053 28.5606 72.5972 28.6043 72.6825Z" fill="#FFCF55"/>
<path d="M13.6358 81.2197H12.2258C9.12773 81.2197 6.1676 80.198 3.67163 78.2617L2.77615 77.5681C0.529776 75.8265 -0.475181 72.8706 0.214495 70.0329L6.03186 46.1388C7.02367 42.0627 10.5158 39.1637 14.5203 39.0893C15.4268 39.0675 16.1756 39.7939 16.1931 40.6996C16.2106 41.6054 15.4881 42.3537 14.5816 42.3712C12.066 42.4172 9.86339 44.2856 9.22188 46.9133L3.40671 70.8096C3.02793 72.3674 3.58405 74.0412 4.79044 74.9754L5.68592 75.669C7.60169 77.1524 9.86339 77.9378 12.228 77.9378H13.638C14.5444 77.9378 15.2801 78.673 15.2801 79.5788C15.2779 80.4846 14.5422 81.2197 13.6358 81.2197Z" fill="#FFCF55"/>
<path d="M13.8288 78.5613C13.1785 78.5613 12.5633 78.1741 12.3049 77.533L9.09082 69.5712C7.11156 64.6659 6.88167 59.1721 8.44932 54.1005L11.7466 43.4257C13.3011 38.3957 17.5246 34.7353 22.5078 34.0965L25.527 33.7267C29.792 33.206 34.1162 33.206 38.3791 33.7267L41.3896 34.0943C46.3815 34.7332 50.6049 38.3935 52.1594 43.4235L55.5159 54.5512C55.7786 55.4198 55.286 56.3344 54.4168 56.5947C53.5476 56.8573 52.6324 56.365 52.3696 55.4964L49.0176 44.3796C47.8462 40.588 44.6912 37.8247 40.9823 37.3499L37.9806 36.9823C33.9805 36.4944 29.9256 36.4944 25.9255 36.9823L22.915 37.3499C19.2148 37.8225 16.0598 40.5858 14.8841 44.3906L11.5868 55.0654C10.2425 59.4171 10.4373 64.1321 12.1363 68.3394L15.3505 76.3012C15.6898 77.1414 15.2826 78.0975 14.4418 78.4366C14.2404 78.522 14.0324 78.5613 13.8288 78.5613Z" fill="#FFCF55"/>
<path d="M51.68 81.2196H50.27C49.3636 81.2196 48.6279 80.4845 48.6279 79.5787C48.6279 78.6729 49.3636 77.9377 50.27 77.9377H51.68C53.4929 77.9377 53.8213 77.6774 54.4759 77.161C54.5964 77.0669 54.719 76.9685 54.8503 76.87C55.575 76.3274 56.6063 76.474 57.1493 77.1982C57.6944 77.9224 57.5456 78.9507 56.8208 79.4955C56.7136 79.5765 56.6107 79.6574 56.5121 79.734C55.413 80.6026 54.4234 81.2196 51.68 81.2196Z" fill="#FFCF55"/>
<path d="M59.2133 55.3521C58.528 55.3521 57.8887 54.9189 57.6566 54.2341L54.8563 45.9222C54.841 45.8784 54.8279 45.8325 54.8169 45.7865C54.4141 44.1347 52.7172 42.4325 50.2497 42.3712H49.352C48.4456 42.3712 47.71 41.6361 47.71 40.7303C47.71 39.8245 48.4456 39.0894 49.352 39.0894H50.2672C50.2804 39.0894 50.2913 39.0894 50.3045 39.0894C53.9258 39.1703 57.1443 41.6251 57.9894 44.9376L60.7678 53.1861C61.0568 54.0459 60.5949 54.9758 59.7366 55.2646C59.5636 55.3258 59.3863 55.3521 59.2133 55.3521Z" fill="#FFCF55"/>
<path d="M26.2554 58.6752C27.3465 57.585 27.3465 55.8174 26.2554 54.7271C25.1644 53.6369 23.3956 53.6369 22.3046 54.7271C21.2135 55.8174 21.2135 57.585 22.3046 58.6752C23.3956 59.7655 25.1644 59.7655 26.2554 58.6752Z" fill="#FFCF55"/>
<path d="M42.3424 57.3417C42.695 55.8408 41.7631 54.3384 40.2611 53.986C38.759 53.6337 37.2556 54.5649 36.903 56.0659C36.5505 57.5669 37.4823 59.0693 38.9844 59.4216C40.4864 59.7739 41.9899 58.8427 42.3424 57.3417Z" fill="#FFCF55"/>
<path d="M31.9524 104C29.4718 104 27.1576 103.024 25.6031 101.32C24.2872 99.8782 23.6544 98.0644 23.8252 96.2091L24.6703 87.3284C24.7557 86.427 25.5571 85.764 26.4613 85.8494C27.3634 85.9347 28.0268 86.7355 27.9414 87.6391L27.0984 96.5132C26.9912 97.6925 27.5473 98.5742 28.0311 99.1059C28.966 100.128 30.3957 100.716 31.9546 100.716C33.5157 100.716 34.9454 100.13 35.8781 99.1059C36.3642 98.5742 36.9203 97.6925 36.8108 96.5066L35.9679 87.6369C35.8825 86.7355 36.5437 85.9347 37.448 85.8472C38.3522 85.764 39.1513 86.4226 39.2389 87.3262L40.0819 96.2003C40.2526 98.0601 39.6221 99.8738 38.304 101.316C36.7473 103.024 34.4331 104 31.9524 104Z" fill="#FFCF55"/>
<path d="M31.9526 96.4561C31.0462 96.4561 30.3105 95.7209 30.3105 94.8151V80.9175C30.3105 80.0117 31.0462 79.2766 31.9526 79.2766C32.8591 79.2766 33.5947 80.0117 33.5947 80.9175V94.8151C33.5947 95.7231 32.8591 96.4561 31.9526 96.4561Z" fill="#FFCF55"/>
<path d="M68.9173 73.8837C68.4904 73.8837 68.0634 73.7174 67.7416 73.3892C67.1088 72.7394 67.122 71.7023 67.7701 71.0678C69.4034 69.4772 71.5469 68.8362 73.9706 69.2125C75.6608 69.475 76.8957 70.1489 77.0314 70.2255C77.8218 70.6696 78.1043 71.6695 77.6598 72.4593C77.2175 73.247 76.2213 73.5292 75.4309 73.0916C75.2864 73.0129 72.1796 71.3588 70.0624 73.4198C69.7428 73.7283 69.3289 73.8837 68.9173 73.8837Z" fill="#FFCF55"/>
<path d="M84.8211 68.5845C84.7445 68.5845 84.6678 68.5802 84.589 68.5692C83.6913 68.4423 83.0652 67.6131 83.1921 66.7161C83.214 66.5629 83.4286 65.1714 84.2431 63.6705C85.4122 61.5176 87.2229 60.2027 89.4802 59.8701C90.3779 59.7366 91.2121 60.358 91.3434 61.255C91.4748 62.1521 90.8552 62.9857 89.9575 63.117C88.7292 63.2985 87.8031 63.9899 87.1288 65.2348C86.5967 66.215 86.4435 67.1668 86.4435 67.1755C86.3274 67.9916 85.6246 68.5845 84.8211 68.5845Z" fill="#FFCF55"/>
<path d="M68.3743 36.584C68.3722 36.584 68.3678 36.584 68.3656 36.584C67.9299 36.5818 67.5139 36.4067 67.2074 36.0982L52.2732 21.017C47.9183 16.6193 47.9556 9.50204 52.3564 5.15029C56.7571 0.798546 63.8794 0.83574 68.2342 5.23343L68.5276 5.5288L68.9108 5.15029C73.3115 0.798546 80.4338 0.83574 84.7886 5.23125C86.8993 7.36227 88.0509 10.1847 88.0356 13.1821C88.0203 16.1795 86.838 18.991 84.7054 21.0979L69.5282 36.1092C69.2217 36.4133 68.8079 36.584 68.3743 36.584ZM60.2537 5.18968C58.2328 5.18968 56.212 5.95326 54.6662 7.4826C53.1577 8.97476 52.3213 10.9636 52.3104 13.0836C52.2994 15.2037 53.1161 17.2013 54.6071 18.7088L68.3875 32.6238L82.3978 18.7678C83.9063 17.2757 84.7427 15.2869 84.7536 13.1668C84.7645 11.0467 83.9479 9.04914 82.4569 7.54168C79.3763 4.43047 74.3362 4.40422 71.2228 7.48479L69.6727 9.01633C69.364 9.32263 68.9502 9.49985 68.5101 9.4911C68.0744 9.48891 67.6584 9.31388 67.3519 9.00539L65.9025 7.54386C64.348 5.97513 62.3008 5.18968 60.2537 5.18968Z" fill="#FFCF55"/>
<path d="M39.2343 28.911C39.0066 28.911 38.7789 28.8628 38.5687 28.7688L31.5318 25.6466C30.2817 25.0931 29.3249 24.0844 28.8323 22.8111C28.3418 21.5355 28.3769 20.1462 28.9308 18.8991C29.4847 17.6498 30.494 16.6937 31.7683 16.2014C32.7798 15.812 33.8636 15.7529 34.8926 16.022C36.2326 13.9369 38.9388 13.0793 41.2727 14.1141C42.5229 14.6677 43.4819 15.6763 43.9723 16.9497C44.4627 18.2252 44.4299 19.6146 43.8738 20.8617L40.7341 27.933C40.5568 28.3312 40.2305 28.6419 39.8233 28.7994C39.6328 28.8738 39.4336 28.911 39.2343 28.911ZM33.6074 19.142C33.3841 19.142 33.1608 19.1835 32.9484 19.2645C32.4908 19.4395 32.1296 19.783 31.9325 20.2315C31.7333 20.6779 31.7223 21.1767 31.8975 21.634C32.0726 22.0913 32.4164 22.4523 32.8652 22.6492L38.4001 25.104L40.8742 19.5336C41.0735 19.0873 41.0844 18.5884 40.9093 18.1311C40.7341 17.6739 40.3904 17.3129 39.9415 17.116C39.0176 16.7068 37.9316 17.1247 37.5222 18.048L37.2025 18.77C36.8347 19.5992 35.8648 19.9712 35.035 19.6036L34.3519 19.3017C34.1132 19.1945 33.8614 19.142 33.6074 19.142Z" fill="#FFCF55"/>
<path d="M103.309 11.4582C103.294 12.4602 102.468 13.2588 101.466 13.2435C100.463 13.2282 99.6636 12.4033 99.6789 11.4013C99.6943 10.3992 100.52 9.60062 101.522 9.61594C102.525 9.63125 103.327 10.4583 103.309 11.4582Z" fill="#FFCF55"/>
<path d="M96.9187 25.5045C96.9099 25.5045 96.9012 25.5045 96.8924 25.5045C95.986 25.4892 95.2613 24.7431 95.2766 23.8373L95.2941 22.7674C95.3094 21.8616 96.056 21.1396 96.9625 21.1528C97.8689 21.1681 98.5936 21.9142 98.5783 22.82L98.5608 23.8898C98.5455 24.7869 97.8142 25.5045 96.9187 25.5045Z" fill="#FFCF55"/>
<path d="M96.7673 34.9606C96.7586 34.9606 96.7498 34.9606 96.7411 34.9606C95.8346 34.9453 95.1099 34.1992 95.1252 33.2934L95.1428 32.2236C95.1581 31.3265 95.8894 30.6089 96.7848 30.6089C96.7936 30.6089 96.8024 30.6089 96.8111 30.6089C97.7175 30.6242 98.4422 31.3703 98.4269 32.2761L98.4094 33.346C98.3941 34.243 97.6628 34.9606 96.7673 34.9606Z" fill="#FFCF55"/>
<path d="M92.6554 29.6309C92.6466 29.6309 92.6378 29.6309 92.6291 29.6309L91.5584 29.6134C90.652 29.5981 89.9273 28.852 89.9426 27.9462C89.9579 27.0492 90.6892 26.3315 91.5847 26.3315C91.5935 26.3315 91.6022 26.3315 91.611 26.3315L92.6816 26.349C93.5881 26.3644 94.3128 27.1104 94.2974 28.0162C94.2821 28.9133 93.5508 29.6309 92.6554 29.6309Z" fill="#FFCF55"/>
<path d="M102.118 29.7818C102.11 29.7818 102.101 29.7818 102.092 29.7818L101.019 29.7643C100.113 29.749 99.3882 29.0029 99.4036 28.0971C99.4189 27.2001 100.15 26.4824 101.046 26.4824C101.054 26.4824 101.063 26.4824 101.072 26.4824L102.145 26.4999C103.051 26.5152 103.776 27.2613 103.761 28.1671C103.745 29.0642 103.014 29.7818 102.118 29.7818Z" fill="#FFCF55"/>
<path d="M22.404 4.35393C22.3953 4.35393 22.3865 4.35393 22.3778 4.35393C21.4713 4.33862 20.7466 3.59254 20.762 2.68675L20.7795 1.61467C20.7948 0.708877 21.5436 -0.015321 22.4478 -5.63108e-06C23.3543 0.0153097 24.079 0.761386 24.0636 1.66718L24.0461 2.73926C24.0308 3.6363 23.2995 4.35393 22.404 4.35393Z" fill="#FFCF55"/>
<path d="M22.2537 13.8101C22.2449 13.8101 22.2361 13.8101 22.2274 13.8101C21.3209 13.7948 20.5962 13.0487 20.6116 12.1429L20.6291 11.0731C20.6444 10.1673 21.3932 9.44744 22.2974 9.45838C23.2039 9.47369 23.9286 10.2198 23.9133 11.1256L23.8957 12.1954C23.8804 13.0925 23.1491 13.8101 22.2537 13.8101Z" fill="#FFCF55"/>
<path d="M18.1417 8.47825C18.1329 8.47825 18.1242 8.47825 18.1154 8.47825L17.0448 8.46075C16.1383 8.44543 15.4136 7.69936 15.4289 6.79356C15.4443 5.88777 16.1974 5.16576 17.0973 5.17889L18.1701 5.19639C19.0766 5.21171 19.8013 5.95778 19.786 6.86358C19.7684 7.76062 19.0372 8.47825 18.1417 8.47825Z" fill="#FFCF55"/>
<path d="M27.6048 8.62913C27.596 8.62913 27.5873 8.62913 27.5785 8.62913L26.5057 8.61163C25.5993 8.59631 24.8746 7.85024 24.8899 6.94444C24.9052 6.03865 25.6518 5.31664 26.5582 5.32977L27.6311 5.34727C28.5375 5.36258 29.2622 6.10866 29.2469 7.01446C29.2316 7.9115 28.5003 8.62913 27.6048 8.62913Z" fill="#FFCF55"/>
</g>
<defs>
<clipPath id="clip0">
<rect width="110" height="104" fill="white"/>
</clipPath>
</defs>
</svg>
