<svg width="36" height="36" viewBox="0 0 36 36" fill="none" xmlns="http://www.w3.org/2000/svg">
<path fill-rule="evenodd" clip-rule="evenodd" d="M17.677 36C27.4397 36 35.3539 27.9411 35.3539 18C35.3539 8.05887 27.4397 0 17.677 0C7.91424 0 0 8.05887 0 18C0 27.9411 7.91424 36 17.677 36ZM13.1855 28.8C13.493 28.8 13.7889 28.6759 14.0059 28.4533L27.5207 14.6676C28.2006 13.9751 28.2006 12.8507 27.5207 12.1572L26.7002 11.3202C26.0214 10.6267 24.919 10.6267 24.2388 11.3202L13.1855 22.5944L9.09492 18.422C8.41496 17.7284 7.31364 17.7284 6.63348 18.422L5.81307 19.259C5.13311 19.9512 5.13311 21.0758 5.81307 21.7694L12.3651 28.4533C12.582 28.6759 12.878 28.8 13.1855 28.8Z" fill="#FFCF55"/>
</svg>
