<svg width="136" height="97" viewBox="0 0 136 97" fill="none" xmlns="http://www.w3.org/2000/svg">
<path d="M68.0956 61.2885C61.6955 61.2885 56.4883 56.1058 56.4883 49.7359C56.4883 43.366 61.6955 38.1833 68.0956 38.1833C74.4957 38.1833 79.703 43.366 79.703 49.7359C79.703 56.1058 74.4957 61.2885 68.0956 61.2885ZM68.0956 42.354C64.0058 42.354 60.6787 45.6654 60.6787 49.7359C60.6787 53.8064 64.0058 57.1179 68.0956 57.1179C72.1854 57.1179 75.5126 53.8064 75.5126 49.7359C75.5126 45.6654 72.1854 42.354 68.0956 42.354Z" fill="#FFCF55"/>
<path d="M81.4023 97.0001C80.324 97.0001 79.4105 96.1771 79.3183 95.0899L77.2399 70.6029C77.1616 69.6854 77.698 68.8262 78.5584 68.487C79.4189 68.1506 80.4022 68.4147 80.9721 69.1376C87.0034 76.7643 99.3399 76.7198 106.153 76.0136C106.972 75.9302 107.425 75.4297 107.62 75.1405C107.816 74.8541 108.109 74.2563 107.885 73.4778C107.62 72.5492 106.729 71.9431 105.771 72.0404C97.8956 72.83 87.4113 71.8819 82.2013 62.8734C80.8129 60.4739 77.7287 59.5258 76.0135 59.1727L74.1111 58.7834C72.9769 58.5498 72.2477 57.4488 72.4824 56.32C72.7171 55.1911 73.8233 54.4654 74.9575 54.699L76.8599 55.0882C81.0112 55.939 84.1987 57.966 85.8329 60.7936C89.1182 66.474 95.6831 68.8624 105.352 67.892C108.332 67.5917 111.092 69.4601 111.917 72.3323C112.419 74.0895 112.121 75.9635 111.092 77.4761C110.062 78.9942 108.419 79.9729 106.586 80.1619C100.206 80.8209 89.4841 80.9043 81.8688 75.6299L83.4919 94.7368C83.5897 95.8851 82.7348 96.8944 81.5811 96.9917C81.5224 97.0001 81.461 97.0001 81.4023 97.0001Z" fill="#FFCF55"/>
<path d="M54.6729 97.0001C54.6143 97.0001 54.5556 96.9973 54.4941 96.9917C53.3404 96.8944 52.4855 95.8851 52.5833 94.7368L54.1812 75.9163C51.572 77.7124 48.2644 78.9886 44.2808 79.7337C38.4115 80.8292 32.4919 80.4733 29.486 80.1619C27.6534 79.9729 26.0107 78.9942 24.9799 77.4761C23.9519 75.9635 23.653 74.0895 24.1558 72.3323C24.9799 69.4601 27.7428 67.5917 30.7207 67.892C40.3865 68.8624 46.9542 66.474 50.2395 60.7936C51.8737 57.966 55.0612 55.9418 59.2125 55.0882L61.1149 54.699C62.2491 54.4654 63.3554 55.1911 63.59 56.32C63.8247 57.4488 63.0956 58.5498 61.9614 58.7834L60.0589 59.1727C58.3437 59.5258 55.2596 60.4739 53.8712 62.8734C50.9938 67.8447 44.5713 73.4723 30.3017 72.0404C29.3407 71.9431 28.4523 72.5492 28.187 73.4778C27.9635 74.2536 28.2568 74.8514 28.4523 75.1405C28.6479 75.4297 29.1005 75.9302 29.9218 76.0136C34.4474 76.4807 49.6333 77.3815 55.0026 69.2794C55.5305 68.4842 56.5334 68.145 57.4386 68.4564C58.3437 68.7678 58.922 69.652 58.8409 70.6029L56.7625 95.0899C56.6647 96.1798 55.7484 97.0001 54.6729 97.0001Z" fill="#FFCF55"/>
<path d="M68.0796 18.7372C62.8891 18.7372 58.668 14.5332 58.668 9.36719C58.6652 4.20397 62.8891 0 68.0796 0C73.27 0 77.4939 4.20397 77.4939 9.36719C77.4911 14.5332 73.27 18.7372 68.0796 18.7372ZM68.0796 4.17061C65.1994 4.17061 62.8556 6.50337 62.8556 9.36719C62.8556 12.2338 65.1994 14.5665 68.0768 14.5665C70.9569 14.5665 73.3008 12.2338 73.3008 9.36719C73.3008 6.50337 70.9597 4.17061 68.0796 4.17061Z" fill="#FFCF55"/>
<path d="M76.6312 37.7941C75.5165 37.7941 74.5891 36.9183 74.5388 35.8005L74.0722 25.1655C74.0303 24.1896 74.6729 23.3165 75.6171 23.0607C76.5641 22.8049 77.5614 23.2387 78.0168 24.1006C79.8298 27.5205 84.0956 31.4603 94.1246 30.8264C95.2784 30.7485 96.2757 31.6244 96.3483 32.7755C96.4209 33.9238 95.5465 34.9164 94.39 34.9887C87.7999 35.4085 82.3692 34.0322 78.5224 31.0572L78.7208 35.617C78.7711 36.7681 77.8743 37.7413 76.7178 37.7913C76.6926 37.7913 76.6619 37.7941 76.6312 37.7941Z" fill="#FFCF55"/>
<path d="M98.1864 31.1461C97.2757 31.1461 96.4348 30.5483 96.1722 29.6336C96.0577 29.236 95.6806 28.9802 95.2699 29.0191C88.0038 29.7476 81.4445 26.3499 77.729 19.9244C76.8434 18.3924 74.8013 17.7724 73.6615 17.5388L72.2927 17.258C71.1585 17.0245 70.4294 15.9234 70.664 14.7946C70.8987 13.6657 72.005 12.94 73.1391 13.1736L74.508 13.4544C77.6648 14.1022 80.098 15.6593 81.3607 17.8419C82.4362 19.6992 86.5847 25.6993 94.8509 24.868C97.2785 24.6261 99.5301 26.147 100.201 28.4853C100.519 29.5919 99.8737 30.7458 98.7619 31.0627C98.5719 31.1183 98.3792 31.1461 98.1864 31.1461Z" fill="#FFCF55"/>
<path d="M59.3327 37.7941C59.2935 37.7941 59.2572 37.7941 59.2181 37.7913C58.0616 37.7301 57.176 36.7458 57.2375 35.5975L57.4805 31.1072C53.6533 34.0349 48.2784 35.3918 41.7666 34.9942C40.6129 34.9247 39.7329 33.9348 39.8027 32.7838C39.8726 31.6327 40.8671 30.7624 42.0236 30.8291C52.0023 31.4408 56.2485 27.5038 58.0532 24.0978C58.5113 23.2303 59.517 22.7993 60.4641 23.0607C61.4139 23.322 62.0508 24.2062 61.9977 25.1821L61.4223 35.8172C61.3636 36.9321 60.4389 37.7941 59.3327 37.7941Z" fill="#FFCF55"/>
<path d="M37.8865 31.146C37.6965 31.146 37.501 31.121 37.311 31.0654C36.1992 30.7484 35.5539 29.5946 35.8723 28.488C36.5428 26.1469 38.7972 24.6288 41.222 24.8707C49.4883 25.6964 53.6367 19.7019 54.7123 17.8446C55.975 15.662 58.4082 14.1022 61.5649 13.4571L62.9338 13.1763C64.0652 12.9427 65.1742 13.6684 65.4089 14.7973C65.6436 15.9261 64.9144 17.0271 63.7802 17.2607L62.4114 17.5415C61.2716 17.7751 59.2295 18.3951 58.3439 19.9271C54.6285 26.3498 48.0691 29.7503 40.803 29.0218C40.3951 28.9829 40.0152 29.2387 39.9007 29.6363C39.6381 30.5483 38.8 31.146 37.8865 31.146Z" fill="#FFCF55"/>
<path d="M125.15 42.5402C119.323 42.5402 114.582 37.8219 114.582 32.0219C114.582 26.222 119.323 21.5037 125.15 21.5037C130.978 21.5037 135.718 26.222 135.718 32.0219C135.715 37.8219 130.975 42.5402 125.15 42.5402ZM125.15 25.6743C121.633 25.6743 118.772 28.5214 118.772 32.0219C118.772 35.5225 121.633 38.3696 125.15 38.3696C128.667 38.3696 131.528 35.5225 131.528 32.0219C131.528 28.5214 128.664 25.6743 125.15 25.6743Z" fill="#FFCF55"/>
<path d="M103.941 71.259C103.424 71.259 102.904 71.0699 102.499 70.6863C101.661 69.8938 101.625 68.5731 102.421 67.739L106.751 63.1958C109.542 60.2681 111.308 56.6063 111.855 52.6081L112.503 47.8869C112.986 44.3558 115.157 41.239 118.311 39.5513L120.582 38.3335C121.602 37.7857 122.87 38.1666 123.421 39.1815C123.968 40.1963 123.588 41.4614 122.568 42.0064L120.297 43.2242C118.319 44.2835 116.959 46.2381 116.654 48.4513L116.006 53.1725C115.339 58.041 113.19 62.5007 109.791 66.0652L105.461 70.6084C105.05 71.0394 104.497 71.259 103.941 71.259Z" fill="#FFCF55"/>
<path d="M109.905 74.9932C109.285 74.9932 108.67 74.7207 108.257 74.1952C107.542 73.2888 107.701 71.9792 108.612 71.2674L110.517 69.7799C115.719 65.7122 119.367 59.9289 120.786 53.4979L121.244 51.4209C121.493 50.2948 122.61 49.5858 123.742 49.8305C124.873 50.078 125.586 51.1901 125.34 52.3134L124.882 54.3904C123.253 61.764 119.071 68.3925 113.107 73.058L111.201 74.5455C110.813 74.8458 110.358 74.9932 109.905 74.9932Z" fill="#FFCF55"/>
<path d="M133.905 79.414C132.748 79.414 131.809 78.4797 131.809 77.3287V48.2818C131.809 45.2317 130.893 42.2872 129.164 39.7682C128.51 38.8173 128.756 37.5188 129.709 36.871C130.664 36.2204 131.969 36.465 132.622 37.4132C134.832 40.6273 136 44.3864 136 48.2818V77.3314C136 78.4825 135.061 79.414 133.905 79.414Z" fill="#FFCF55"/>
<path d="M110.157 43.9693C110.006 43.9693 109.85 43.9526 109.696 43.9192L107.911 43.5188C103.866 42.6152 100.134 40.8997 96.8176 38.4196C96.8036 38.4085 96.7897 38.4001 96.7785 38.389L94.4179 36.5345C93.2837 35.642 92.5713 34.363 92.4177 32.9338C92.2613 31.5019 92.6831 30.1034 93.5994 28.9912C95.3621 26.8559 98.5245 26.4277 100.796 28.0181L104.237 30.4287C106.567 31.8968 109.255 32.6475 112.017 32.5946L117.038 32.5001C118.186 32.4751 119.15 33.3954 119.172 34.5465C119.194 35.6976 118.272 36.6485 117.116 36.6707L112.096 36.7652C108.489 36.832 104.983 35.8477 101.947 33.9209C101.919 33.9042 101.894 33.8875 101.868 33.8681L98.3876 31.4296C97.8987 31.0877 97.2171 31.1794 96.8399 31.6382C96.6416 31.8773 96.5522 32.1776 96.5857 32.4862C96.6192 32.7948 96.7729 33.0701 97.0159 33.2619L99.357 35.1026C102.19 37.2157 105.38 38.6809 108.833 39.4511L110.618 39.8515C111.747 40.1045 112.456 41.2194 112.202 42.3427C111.981 43.3103 111.118 43.9693 110.157 43.9693Z" fill="#FFCF55"/>
<path d="M10.8504 42.5402C5.02294 42.5402 0.282227 37.8219 0.282227 32.0219C0.282227 26.222 5.02294 21.5037 10.8504 21.5037C16.6778 21.5037 21.4185 26.222 21.4185 32.0219C21.4185 37.8219 16.6778 42.5402 10.8504 42.5402ZM10.8504 25.6743C7.33323 25.6743 4.4726 28.5214 4.4726 32.0219C4.4726 35.5225 7.33323 38.3696 10.8504 38.3696C14.3675 38.3696 17.2281 35.5225 17.2281 32.0219C17.2281 28.5214 14.3675 25.6743 10.8504 25.6743Z" fill="#FFCF55"/>
<path d="M32.0592 71.259C31.5032 71.259 30.9501 71.0421 30.5394 70.6084L26.2094 66.0652C22.8096 62.5007 20.6613 58.041 19.9937 53.1725L19.3456 48.4513C19.0411 46.2381 17.6806 44.2835 15.7027 43.2242L13.4315 42.0064C12.4119 41.4614 12.032 40.1963 12.5795 39.1815C13.127 38.1666 14.3981 37.7885 15.4178 38.3334L17.689 39.5513C20.8401 41.2418 23.0135 44.3586 23.4968 47.8869L24.1449 52.6081C24.6925 56.6063 26.458 60.2681 29.2488 63.1958L33.5789 67.739C34.375 68.5731 34.3415 69.8938 33.5006 70.6863C33.0956 71.0672 32.576 71.259 32.0592 71.259Z" fill="#FFCF55"/>
<path d="M26.0944 74.9932C25.6418 74.9932 25.1865 74.8486 24.801 74.5483L22.8957 73.0608C16.9314 68.3981 12.7494 61.7668 11.1208 54.3932L10.6626 52.3162C10.414 51.1929 11.1292 50.078 12.2606 49.8333C13.392 49.5858 14.5094 50.2976 14.758 51.4237L15.2162 53.5007C16.6353 59.9317 20.2837 65.715 25.4854 69.7827L27.3906 71.2702C28.3013 71.982 28.4578 73.2916 27.7454 74.198C27.3291 74.7179 26.7146 74.9932 26.0944 74.9932Z" fill="#FFCF55"/>
<path d="M2.09519 79.414C0.938644 79.414 0 78.4798 0 77.3287V48.2818C0 44.3864 1.16772 40.6301 3.37744 37.4132C4.03114 36.4623 5.33574 36.2204 6.29115 36.871C7.24656 37.5216 7.4896 38.8201 6.8359 39.7682C5.10388 42.2872 4.19037 45.2289 4.19037 48.2818V77.3315C4.19037 78.4825 3.25173 79.414 2.09519 79.414Z" fill="#FFCF55"/>
<path d="M25.8408 43.9694C24.8826 43.9694 24.0165 43.3104 23.7986 42.3401C23.5444 41.2168 24.254 40.1018 25.3826 39.8488L27.1677 39.4484C30.6234 38.6755 33.8108 37.213 36.6463 35.0999L38.9874 33.2593C39.2304 33.0674 39.3841 32.7921 39.4176 32.4835C39.4511 32.1749 39.3617 31.8746 39.1634 31.6355C38.7834 31.1767 38.1046 31.085 37.6157 31.427L34.1349 33.8654C34.1098 33.8821 34.0818 33.9015 34.0567 33.9182C31.0201 35.8478 27.5029 36.8349 23.9076 36.7626L18.8875 36.668C17.731 36.6458 16.8091 35.6949 16.8315 34.5438C16.8538 33.3927 17.812 32.4724 18.9657 32.4974L23.9858 32.592C26.7459 32.6392 29.4333 31.8941 31.7659 30.426L35.2076 28.0154C37.4816 26.425 40.6412 26.8532 42.4039 28.9885C43.323 30.1007 43.742 31.502 43.5856 32.9312C43.4292 34.3603 42.7196 35.6421 41.5854 36.5318L39.2248 38.3863C39.2108 38.3974 39.1969 38.4058 39.1857 38.4169C35.8697 40.8942 32.1375 42.6098 28.0924 43.5162L26.3073 43.9166C26.1481 43.9527 25.9944 43.9694 25.8408 43.9694Z" fill="#FFCF55"/>
</svg>
