<svg width="109" height="109" viewBox="0 0 109 109" fill="none" xmlns="http://www.w3.org/2000/svg">
<g clip-path="url(#clip0)">
<path d="M22.0344 29.6898C15.8881 29.6898 10.1315 25.8506 8.01406 19.7476C5.34731 12.0537 9.45818 3.62957 17.1816 0.97082C20.9225 -0.317736 24.9448 -0.0772353 28.5042 1.6482C32.0635 3.37363 34.7369 6.37438 36.0304 10.1032C38.6994 17.7971 34.5885 26.219 26.8651 28.88C25.266 29.4272 23.638 29.6898 22.0344 29.6898ZM22.0322 3.4663C20.7675 3.4663 19.4983 3.67591 18.2669 4.09954C12.2755 6.16256 9.08386 12.6958 11.1548 18.6664C13.2257 24.6348 19.7863 27.8121 25.7776 25.7513C31.7689 23.6883 34.9606 17.155 32.8897 11.1844C31.8863 8.29397 29.8132 5.96398 27.0512 4.62467C25.4609 3.85463 23.751 3.4663 22.0322 3.4663Z" fill="#FFCF55"/>
<path d="M22.1159 22.4262C20.1734 22.4262 18.2752 21.579 16.995 20.0433C16.4081 19.3394 16.5055 18.2958 17.2121 17.7133C17.9186 17.1286 18.9663 17.2257 19.551 17.9295C20.4259 18.9798 21.8833 19.3836 23.179 18.9401C24.4814 18.4922 25.3762 17.2698 25.4072 15.8996C25.4272 14.9862 26.198 14.2646 27.1061 14.2823C28.023 14.3022 28.7495 15.0612 28.7296 15.9746C28.6676 18.7216 26.8735 21.1708 24.2643 22.0688C23.5622 22.3115 22.8357 22.4262 22.1159 22.4262Z" fill="#FFCF55"/>
<path d="M18.435 13.8177C19.2258 13.0547 19.246 11.7976 18.4801 11.0098C17.7141 10.222 16.4522 10.2019 15.6614 10.9649C14.8706 11.7279 14.8504 12.9851 15.6163 13.7728C16.3822 14.5606 17.6442 14.5807 18.435 13.8177Z" fill="#FFCF55"/>
<path d="M25.5571 11.3497C26.3479 10.5867 26.368 9.32956 25.6021 8.54178C24.8362 7.75401 23.5742 7.73392 22.7834 8.49691C21.9926 9.25989 21.9725 10.517 22.7384 11.3048C23.5043 12.0926 24.7663 12.1127 25.5571 11.3497Z" fill="#FFCF55"/>
<path d="M78.3237 29.5418C76.5363 29.5418 74.7467 29.2153 73.0279 28.5622C65.3953 25.6563 61.5569 17.1064 64.4739 9.50081C65.887 5.81827 68.6557 2.90357 72.2704 1.29288C75.8851 -0.315613 79.9118 -0.428141 83.6085 0.979563C87.3052 2.38727 90.2333 5.14531 91.848 8.74621C93.4626 12.3471 93.5756 16.3584 92.1625 20.0409C90.7494 23.7235 87.9807 26.6404 84.366 28.2489C82.4324 29.1094 80.3792 29.5418 78.3237 29.5418ZM78.3127 3.31176C76.7179 3.31176 75.1254 3.64714 73.6259 4.31569C70.8218 5.56453 68.6734 7.82612 67.5792 10.6835C65.3156 16.5835 68.2924 23.216 74.2151 25.471C77.0834 26.5632 80.2086 26.4771 83.0105 25.2283C85.8146 23.9794 87.963 21.7178 89.0594 18.8605C90.1558 16.0032 90.0694 12.8921 88.8158 10.0988C87.5621 7.30541 85.2918 5.16517 82.4235 4.07298C81.0879 3.5655 79.6992 3.31176 78.3127 3.31176Z" fill="#FFCF55"/>
<path d="M77.7833 22.1128C76.9925 22.1128 76.1952 21.9716 75.431 21.6803C72.8662 20.7051 71.1518 18.2118 71.1651 15.478C71.1695 14.5668 71.9115 13.832 72.8263 13.832C72.8285 13.832 72.8329 13.832 72.8352 13.832C73.7521 13.8364 74.4919 14.58 74.4875 15.4957C74.4808 16.8593 75.3358 18.1037 76.616 18.5913C77.9029 19.0811 79.378 18.7171 80.2861 17.6867C80.8908 17.0005 81.9406 16.9321 82.6295 17.5344C83.3183 18.1368 83.387 19.1826 82.7823 19.8688C81.4999 21.3207 79.6593 22.1128 77.7833 22.1128Z" fill="#FFCF55"/>
<path d="M77.6482 10.9462C76.9283 11.7758 75.668 11.8663 74.8374 11.147C74.0046 10.4299 73.9138 9.17442 74.6359 8.34701C75.3557 7.51739 76.616 7.42692 77.4466 8.14622C78.2772 8.86331 78.368 10.1166 77.6482 10.9462Z" fill="#FFCF55"/>
<path d="M84.698 13.6115C83.9781 14.4411 82.7178 14.5315 81.8872 13.8123C81.0544 13.0952 80.9636 11.8397 81.6857 11.0123C82.4055 10.1827 83.6658 10.0922 84.4964 10.8115C85.327 11.5286 85.4178 12.7841 84.698 13.6115Z" fill="#FFCF55"/>
<path d="M92.7471 67.6424C89.6441 67.6424 86.6296 66.6716 84.0691 64.8204C77.4576 60.0369 75.9847 50.7853 80.7889 44.1991C85.5908 37.6129 94.8779 36.1456 101.489 40.9314C104.692 43.2481 106.796 46.6703 107.416 50.5647C108.037 54.459 107.095 58.3622 104.77 61.5527C102.444 64.7432 99.0087 66.8393 95.0994 67.4571C94.3131 67.5807 93.5268 67.6424 92.7471 67.6424ZM92.7937 41.4278C89.2343 41.4278 85.7237 43.065 83.4756 46.1452C79.7501 51.2553 80.8908 58.4328 86.0205 62.144C88.5056 63.9423 91.5445 64.6682 94.5767 64.1894C97.6089 63.7106 100.273 62.0844 102.079 59.6088C103.884 57.1332 104.612 54.106 104.132 51.0854C103.651 48.0648 102.019 45.4104 99.5336 43.6122C97.5003 42.1361 95.137 41.4278 92.7937 41.4278Z" fill="#FFCF55"/>
<path d="M92.0848 60.0566C90.7116 60.0566 89.3406 59.6374 88.1844 58.8011C85.9628 57.1949 84.9595 54.3419 85.686 51.7053C85.9296 50.8249 86.8421 50.3064 87.7281 50.5469C88.6118 50.7896 89.1324 51.6986 88.8909 52.5812C88.5277 53.8962 89.0283 55.3194 90.1379 56.1203C91.252 56.9257 92.7692 56.9588 93.9166 56.1975C94.6807 55.6923 95.7106 55.8975 96.2201 56.6587C96.7273 57.4199 96.5213 58.4459 95.7572 58.9534C94.6475 59.6903 93.3673 60.0566 92.0848 60.0566Z" fill="#FFCF55"/>
<path d="M93.1305 49.0092C92.2179 49.6226 90.9798 49.3843 90.3641 48.4753C89.7483 47.5662 89.9875 46.3328 90.9001 45.7194C91.8126 45.1061 93.0507 45.3444 93.6665 46.2534C94.2822 47.1625 94.043 48.3959 93.1305 49.0092Z" fill="#FFCF55"/>
<path d="M99.2409 53.4111C98.3283 54.0245 97.0902 53.7862 96.4744 52.8771C95.8587 51.9681 96.0979 50.7347 97.0104 50.1213C97.923 49.5079 99.1611 49.7462 99.7769 50.6553C100.395 51.5621 100.153 52.7977 99.2409 53.4111Z" fill="#FFCF55"/>
<path d="M94.1664 109C86.7531 109 80.3321 103.448 79.4572 95.9378C79.001 92.0214 80.104 88.1601 82.5603 85.0689C85.0189 81.9777 88.5361 80.025 92.4698 79.5705C96.4035 79.116 100.277 80.2126 103.38 82.6617C106.484 85.1108 108.444 88.6147 108.9 92.5333C109.841 100.62 104.005 107.961 95.8874 108.901C95.3093 108.967 94.7357 109 94.1664 109ZM94.1864 82.7809C93.7456 82.7809 93.3004 82.8051 92.853 82.8581C89.8031 83.2111 87.0721 84.7247 85.1651 87.1231C83.258 89.5215 82.4031 92.5156 82.7575 95.5539C83.1118 98.5921 84.6313 101.313 87.0389 103.212C89.4465 105.112 92.4521 105.964 95.502 105.611C101.799 104.883 106.328 99.1857 105.598 92.9128C104.92 87.0878 99.9385 82.7809 94.1864 82.7809Z" fill="#FFCF55"/>
<path d="M94.0686 101.736C91.6145 101.736 89.3043 100.362 88.1636 98.1575C87.7428 97.3455 88.064 96.346 88.879 95.929C89.6941 95.5098 90.6975 95.8297 91.1161 96.6417C91.7429 97.8552 93.0763 98.5635 94.4407 98.4068C95.8095 98.248 96.9479 97.2485 97.2735 95.9158C97.4906 95.0288 98.3898 94.4838 99.2825 94.7022C100.173 94.9185 100.72 95.8143 100.501 96.7035C99.845 99.3733 97.5637 101.379 94.8238 101.697C94.5714 101.723 94.3189 101.736 94.0686 101.736Z" fill="#FFCF55"/>
<path d="M90.9096 92.381C91.8468 91.8057 92.1384 90.5824 91.5608 89.6488C90.9833 88.7151 89.7553 88.4247 88.8181 89C87.8809 89.5753 87.5893 90.7986 88.1668 91.7323C88.7444 92.6659 89.9724 92.9564 90.9096 92.381Z" fill="#FFCF55"/>
<path d="M99.3529 89.8212C99.3598 88.7245 98.4729 87.8298 97.372 87.8229C96.2711 87.816 95.373 88.6995 95.3661 89.7962C95.3591 90.8929 96.246 91.7876 97.3469 91.7945C98.4478 91.8014 99.3459 90.9179 99.3529 89.8212Z" fill="#FFCF55"/>
<path d="M21.6309 108.79C12.6738 108.79 4.2815 103.195 1.19613 94.2984C-0.688753 88.8662 -0.336583 83.028 2.1862 77.8583C4.70897 72.6886 9.10335 68.8097 14.5565 66.932C20.0096 65.0544 25.8702 65.4052 31.0597 67.9183C36.2492 70.4314 40.1431 74.809 42.0279 80.2412C45.9173 91.4543 39.9238 103.731 28.6676 107.608C26.3398 108.409 23.9654 108.79 21.6309 108.79ZM21.6264 69.0524C19.6153 69.0524 17.5975 69.3878 15.6418 70.0608C11.0281 71.6494 7.30928 74.9326 5.17411 79.3057C3.03894 83.6789 2.74214 88.6191 4.33687 93.2173C7.62822 102.707 18.056 107.76 27.5823 104.479C37.1086 101.2 42.1808 90.81 38.8872 81.3224C37.2925 76.7264 33.9967 73.0218 29.6067 70.8948C27.0773 69.6702 24.3596 69.0524 21.6264 69.0524Z" fill="#FFCF55"/>
<path d="M9.36874 88.1911C8.73971 88.1911 8.13726 87.8314 7.85818 87.2246C6.9545 85.2587 7.82495 82.9265 9.79844 82.0285C10.7553 81.5916 11.8229 81.5541 12.8085 81.9182C13.7941 82.2822 14.5782 83.0081 15.0145 83.9613C15.3955 84.7932 15.03 85.775 14.195 86.1545C13.36 86.534 12.3744 86.17 11.9934 85.3381C11.9004 85.1374 11.7387 85.0513 11.6501 85.0204C11.5615 84.9873 11.3821 84.9454 11.1805 85.0381C10.8727 85.1793 10.7376 85.5411 10.8771 85.8478C11.2581 86.6797 10.8926 87.6615 10.0576 88.041C9.83387 88.1425 9.59909 88.1911 9.36874 88.1911Z" fill="#FFCF55"/>
<path d="M23.9059 81.5606C23.2768 81.5606 22.6744 81.201 22.3953 80.5942C21.4916 78.6283 22.3621 76.2961 24.3355 75.3981C26.309 74.4978 28.6502 75.365 29.5539 77.3309C29.9348 78.1627 29.5694 79.1446 28.7344 79.5241C27.9015 79.9036 26.9137 79.5396 26.5327 78.7077C26.391 78.401 26.0277 78.2664 25.7199 78.4054C25.412 78.5467 25.2769 78.9085 25.4164 79.2152C25.7974 80.047 25.4319 81.0289 24.5969 81.4084C24.371 81.5121 24.1362 81.5606 23.9059 81.5606Z" fill="#FFCF55"/>
<path d="M22.5651 102.023C17.6458 102.023 12.9347 99.2253 10.7508 94.4903C10.3676 93.6607 10.7331 92.6766 11.5681 92.2949L32.1357 82.8867C32.9685 82.505 33.9564 82.869 34.3395 83.7008C37.3252 90.1789 34.4636 97.8705 27.9606 100.845C26.213 101.646 24.3747 102.023 22.5651 102.023ZM14.5936 94.5543C17.2028 98.3317 22.2506 99.8144 26.5741 97.8374C30.8976 95.8605 33.0571 91.0791 31.8832 86.6464L14.5936 94.5543Z" fill="#FFCF55"/>
<path d="M37.4205 67.2961C37.0396 67.2961 36.6542 67.1659 36.3419 66.8989C35.6442 66.3054 35.5622 65.2596 36.158 64.5667L66.3738 29.3587C66.9696 28.6637 68.0172 28.582 68.7149 29.1755C69.4126 29.7691 69.4946 30.8149 68.8988 31.5077L38.683 66.718C38.3552 67.0997 37.8879 67.2961 37.4205 67.2961Z" fill="#FFCF55"/>
<path d="M19.0775 63.265C19.0553 63.265 19.0354 63.265 19.0132 63.2628C18.0963 63.2275 17.3809 62.4597 17.4163 61.5462L18.495 33.5466C18.5304 32.6331 19.3034 31.9182 20.2182 31.9558C21.1351 31.9911 21.8505 32.7589 21.8151 33.6724L20.7364 61.672C20.701 62.5656 19.9657 63.265 19.0775 63.265Z" fill="#FFCF55"/>
<path d="M73.8447 95.7856C73.7804 95.7856 73.7162 95.7812 73.6498 95.7746L48.2891 92.8179C47.3787 92.712 46.7253 91.889 46.8316 90.9822C46.938 90.0753 47.7641 89.4244 48.6745 89.5303L74.0352 92.487C74.9455 92.5929 75.5989 93.4159 75.4926 94.3227C75.3929 95.1656 74.6753 95.7856 73.8447 95.7856Z" fill="#FFCF55"/>
<path d="M74.111 51.1716C73.812 51.1716 73.5086 51.09 73.2339 50.9223L36.9538 28.4387C36.1741 27.9555 35.9371 26.9362 36.42 26.1595C36.905 25.3828 37.9283 25.1445 38.708 25.6278L74.9881 48.1113C75.7678 48.5945 76.0048 49.6139 75.5219 50.3905C75.2096 50.8958 74.667 51.1716 74.111 51.1716Z" fill="#FFCF55"/>
<path d="M46.5951 76.4352C45.9572 76.4352 45.3503 76.069 45.0757 75.4512C44.7036 74.6149 45.0823 73.6375 45.9218 73.2668L74.5207 60.635C75.3601 60.2643 76.3413 60.6416 76.7134 61.4778C77.0855 62.3141 76.7068 63.2915 75.8673 63.6622L47.2684 76.294C47.0492 76.3889 46.8188 76.4352 46.5951 76.4352Z" fill="#FFCF55"/>
<path d="M95.5977 77.6575C94.6807 77.6575 93.9365 76.9161 93.9365 76.0027V66.2017C93.9365 65.2882 94.6807 64.5469 95.5977 64.5469C96.5147 64.5469 97.2589 65.2882 97.2589 66.2017V76.0027C97.2589 76.9161 96.5147 77.6575 95.5977 77.6575Z" fill="#FFCF55"/>
<path d="M59.9757 12.87H35.1045C34.1876 12.87 33.4434 12.1286 33.4434 11.2151C33.4434 10.3017 34.1876 9.5603 35.1045 9.5603H59.9757C60.8927 9.5603 61.6369 10.3017 61.6369 11.2151C61.6369 12.1286 60.8949 12.87 59.9757 12.87Z" fill="#FFCF55"/>
<path d="M89.5751 35.6449C88.9062 35.6449 88.275 35.239 88.0225 34.5814L84.8795 26.389C84.5517 25.5351 84.9814 24.5797 85.8386 24.2531C86.6957 23.9266 87.6548 24.3546 87.9826 25.2085L91.1255 33.401C91.4533 34.2549 91.0236 35.2103 90.1665 35.5368C89.9738 35.6096 89.7722 35.6449 89.5751 35.6449Z" fill="#FFCF55"/>
</g>
<defs>
<clipPath id="clip0">
<rect width="109" height="109" fill="white"/>
</clipPath>
</defs>
</svg>
