<svg width="34" height="35" viewBox="0 0 34 35" fill="none" xmlns="http://www.w3.org/2000/svg">
<path fill-rule="evenodd" clip-rule="evenodd" d="M27.2 0C28.22 0 28.9 0.875 28.9 1.925L28.73 3.5H32.3C33.32 3.5 34 4.2 34 5.25V12.25C34 16.1 30.94 19.25 27.2 19.25C26.35 22.4 24.65 25.2 22.1 27.125V31.5H28.9C29.92 31.5 30.6 32.2 30.6 33.25C30.6 34.3 29.92 35 28.9 35H5.1C4.08 35 3.4 34.3 3.4 33.25C3.4 32.2 4.08 31.5 5.1 31.5H11.9V27.125L11.56 26.775C9.18 24.85 7.48 22.225 6.8 19.25C3.23 19.25 0.17 16.275 0 12.6V12.25V5.25C0 4.375 0.68 3.675 1.53 3.5H1.7H5.27L5.1 1.925C5.1 0.875 5.78 0 6.8 0H27.2ZM25.33 3.5H8.67L9.69 16.275C10.03 19.775 11.73 22.75 14.62 24.675C14.96 25.2 15.3 25.725 15.3 26.25V31.5H18.7V26.25C18.7 25.725 19.04 25.2 19.38 24.85L19.72 24.5C22.27 22.575 23.97 19.6 24.31 16.275L25.33 3.5ZM5.44 7H3.4V12.25C3.4 14 4.59 15.4 6.29 15.75L5.44 7ZM30.6 12.25V7H28.56L27.88 15.75C29.41 15.4 30.6 14 30.6 12.25Z" fill="#FFCF55"/>
</svg>
