<svg width="104" height="83" viewBox="0 0 104 83" fill="none" xmlns="http://www.w3.org/2000/svg">
<g clip-path="url(#clip0)">
<path d="M74.7779 51.2955C74.7399 51.2955 74.7041 51.2933 74.6662 51.2912C67.7642 50.8073 63.3764 47.2987 60.9106 44.4418C58.761 41.952 57.6714 39.5281 57.311 38.626C57.0834 38.4371 56.8052 38.3267 56.506 38.3076C56.1287 38.2843 55.7663 38.4116 55.4839 38.6642L47.4438 45.8936C44.742 48.3239 40.5797 48.0862 38.1667 45.3672C35.7894 42.6864 35.9897 38.5262 38.6135 36.0895L51.7389 23.9104C52.8622 22.8682 54.3226 22.259 55.8485 22.1954L67.3321 21.722C69.1677 21.6456 70.9443 21.0598 72.468 20.024L101.537 0.271603C102.259 -0.220827 103.242 -0.0276757 103.73 0.700357C104.219 1.42839 104.028 2.4175 103.305 2.90993L74.2383 22.6602C72.2278 24.025 69.8864 24.7997 67.4649 24.8995L55.9812 25.3728C55.2015 25.4047 54.4575 25.7167 53.8843 26.2473L40.7568 38.4286C39.3953 39.6915 39.29 41.8523 40.525 43.2425C41.7768 44.654 43.937 44.7771 45.3384 43.5163L53.3785 36.2869C54.2952 35.4634 55.4754 35.0516 56.702 35.128C57.9285 35.2044 59.0497 35.7606 59.8569 36.6945C59.9918 36.8494 60.095 37.0298 60.1604 37.223C60.1688 37.2442 61.0813 39.8231 63.3722 42.4423C66.3795 45.8808 70.251 47.789 74.8832 48.1138C75.7536 48.1753 76.4112 48.9352 76.35 49.8118C76.2952 50.6544 75.5998 51.2955 74.7779 51.2955Z" fill="#FFCF55"/>
<path d="M69.6482 77.6193C66.7378 77.6193 64.312 75.3269 64.1266 72.4021L63.3616 60.2526C63.3068 59.376 63.9685 58.6183 64.8389 58.5631C65.7135 58.51 66.4617 59.1744 66.5165 60.051L67.2815 72.2004C67.3616 73.4549 68.4006 74.4376 69.6482 74.4376C70.9253 74.4376 71.9664 73.4294 72.017 72.1452L72.5228 59.255C72.5713 58.0197 72.2172 56.7738 71.5259 55.7528L67.1677 49.3046C66.6766 48.5786 66.8621 47.5874 67.585 47.0929C68.3057 46.5983 69.2899 46.7851 69.7809 47.5131L74.1392 53.9614C75.2098 55.5427 75.7557 57.4679 75.6819 59.3824L75.1761 72.2726C75.0602 75.2696 72.6303 77.6193 69.6482 77.6193Z" fill="#FFCF55"/>
<path d="M60.9822 80.1048C57.7556 80.1048 55.1318 77.4622 55.1318 74.2126V59.5012C55.1318 58.6225 55.84 57.9093 56.7124 57.9093C57.5849 57.9093 58.2931 58.6225 58.2931 59.5012V74.2126C58.2931 75.7069 59.4985 76.9209 60.9822 76.9209C62.4659 76.9209 63.6714 75.7069 63.6714 74.2126V59.5012C63.6714 58.6225 64.3795 57.9093 65.252 57.9093C66.1245 57.9093 66.8326 58.6225 66.8326 59.5012V74.2126C66.8326 77.4622 64.2088 80.1048 60.9822 80.1048Z" fill="#FFCF55"/>
<path d="M48.1206 69.526C47.2482 69.526 46.54 68.8128 46.54 67.9341V59.5012C46.54 58.6225 47.2482 57.9093 48.1206 57.9093C48.9931 57.9093 49.7013 58.6225 49.7013 59.5012V67.9341C49.7013 68.8128 48.9931 69.526 48.1206 69.526Z" fill="#FFCF55"/>
<path d="M52.3898 80.1048C50.961 80.1048 49.5869 79.5805 48.5163 78.6275C47.863 78.0459 47.7997 77.0398 48.3793 76.3797C48.9567 75.7217 49.9557 75.6581 50.6111 76.2418C51.1022 76.679 51.7344 76.9189 52.3919 76.9189C53.8756 76.9189 55.0811 75.7048 55.0811 74.2105V59.4991C55.0811 58.6204 55.7892 57.9072 56.6617 57.9072C57.5342 57.9072 58.2423 58.6204 58.2423 59.4991V74.2105C58.2402 77.4622 55.6164 80.1048 52.3898 80.1048Z" fill="#FFCF55"/>
<path d="M43.4247 83C41.9643 83 40.5059 82.4396 39.3931 81.321C37.1697 79.0817 37.1697 75.4395 39.3931 73.2023L44.2235 68.3374C46.4469 66.0981 50.0633 66.0981 52.2846 68.3374C54.508 70.5767 54.508 74.219 52.2846 76.4583L47.4542 81.3231C46.3436 82.4396 44.8852 83 43.4247 83ZM48.253 69.8381C47.5744 69.8381 46.9358 70.1034 46.4574 70.5873L41.6271 75.4522C41.1466 75.9361 40.8831 76.5771 40.8831 77.2606C40.8831 77.9441 41.1466 78.5851 41.6271 79.069C42.1076 79.5529 42.744 79.8183 43.4226 79.8183C44.1012 79.8183 44.7398 79.5529 45.2182 79.069L50.0486 74.2041C51.0391 73.2065 51.0391 71.5849 50.0486 70.5873C49.5702 70.1055 48.9316 69.8381 48.253 69.8381Z" fill="#FFCF55"/>
<path d="M36.3124 78.3494C34.7887 78.3494 33.3577 77.753 32.2808 76.6684C30.0574 74.4291 30.0574 70.7868 32.2808 68.5475L38.1607 62.6256C39.2376 61.541 40.6686 60.9446 42.1923 60.9446C43.716 60.9446 45.147 61.541 46.2239 62.6256C47.3008 63.7103 47.8931 65.1515 47.8931 66.6861C47.8931 68.2185 47.3008 69.6619 46.2239 70.7465L40.3441 76.6684C39.2671 77.753 37.8361 78.3494 36.3124 78.3494ZM42.1923 64.1305C41.5432 64.1305 40.892 64.3789 40.3967 64.8777L34.5169 70.7996C33.5263 71.7971 33.5263 73.4188 34.5169 74.4164C35.5074 75.414 37.1175 75.414 38.108 74.4164L43.9879 68.4945C44.9784 67.4969 44.9784 65.8752 43.9879 64.8777C43.4926 64.3789 42.8435 64.1305 42.1923 64.1305Z" fill="#FFCF55"/>
<path d="M29.5742 73.3996C28.0504 73.3996 26.6195 72.8032 25.5425 71.7186C23.3192 69.4793 23.3192 65.837 25.5425 63.5998L32.297 56.7971C34.5204 54.5578 38.1368 54.5599 40.3581 56.7971C41.4351 57.8817 42.0273 59.3229 42.0273 60.8575C42.0273 62.3921 41.4351 63.8333 40.3581 64.9179L33.6037 71.7207C32.5288 72.8011 31.0979 73.3996 29.5742 73.3996ZM36.3286 58.2977C35.6774 58.2977 35.0283 58.5461 34.5331 59.0449L27.7786 65.8476C26.7881 66.8452 26.7881 68.4668 27.7786 69.4644C28.7691 70.462 30.3792 70.462 31.3697 69.4644L38.1242 62.6617C39.1147 61.6641 39.1147 60.0424 38.1242 59.0449C37.6289 58.5482 36.9798 58.2977 36.3286 58.2977Z" fill="#FFCF55"/>
<path d="M23.7597 67.3376C22.2992 67.3376 20.8408 66.7773 19.7281 65.6587C17.5047 63.4194 17.5047 59.7771 19.7281 57.54L26.4826 50.7372C27.5595 49.6526 28.9905 49.0562 30.5142 49.0562C32.0358 49.0562 33.4689 49.6526 34.5458 50.7372C36.7692 52.9765 36.7692 56.6188 34.5458 58.8581L27.7913 65.6608C26.6786 66.7794 25.2202 67.3376 23.7597 67.3376ZM30.5142 52.24C29.863 52.24 29.2139 52.4883 28.7186 52.9871L21.9641 59.7899C20.9736 60.7875 20.9736 62.4091 21.9641 63.4067C22.9546 64.4043 24.5648 64.4043 25.5553 63.4067L32.3098 56.6039C33.3003 55.6063 33.3003 53.9847 32.3098 52.9871C31.8145 52.4904 31.1654 52.24 30.5142 52.24Z" fill="#FFCF55"/>
<path d="M49.8272 28.9896C49.5785 28.9896 49.3277 28.9302 49.0938 28.8071L43.1655 25.6721C41.7534 25.2794 40.2972 25.1648 38.8388 25.3303C34.5332 25.8249 30.3077 24.7275 26.94 22.2484L0.647014 2.87594C-0.0568847 2.35804 -0.210731 1.36257 0.305602 0.651517C0.819828 -0.0574134 1.81034 -0.212359 2.51424 0.307664L28.8072 19.6801C31.5322 21.6881 34.9674 22.571 38.4826 22.1699C40.411 21.9491 42.333 22.1147 44.196 22.6581C44.2972 22.6878 44.3962 22.7281 44.489 22.7769L50.5627 25.9883C51.3362 26.398 51.6333 27.3595 51.2266 28.1385C50.9442 28.6797 50.3941 28.9896 49.8272 28.9896Z" fill="#FFCF55"/>
<path d="M23.7743 56.8184C23.1547 56.8184 22.5646 56.449 22.3139 55.8356L19.3571 48.6466C18.8007 47.2966 17.8818 46.1335 16.6974 45.2887L0.667914 33.8482C-0.0444147 33.3388 -0.213013 32.3454 0.292782 31.628C0.79647 30.9106 1.78488 30.7408 2.49721 31.2502L18.5267 42.6907C20.1979 43.8836 21.4962 45.5222 22.2801 47.4282L25.2369 54.6173C25.572 55.4302 25.1885 56.3599 24.3813 56.6974C24.1811 56.778 23.9767 56.8184 23.7743 56.8184Z" fill="#FFCF55"/>
<path d="M74.0526 63.4704C73.4646 63.4704 72.8998 63.1392 72.6279 62.5704C72.2486 61.7787 72.5794 60.8278 73.3655 60.4457L79.0136 57.7013C79.6016 57.4147 80.0968 56.952 80.4256 56.3853L82.139 46.4858C82.4951 44.4248 83.6817 42.5633 85.3929 41.3768L101.524 30.1952C102.242 29.6964 103.226 29.879 103.722 30.6049C104.217 31.3287 104.036 32.3199 103.315 32.8187L87.1843 44.0003C86.1685 44.7049 85.4646 45.8108 85.2517 47.0334L83.4941 57.1855C83.4688 57.3383 83.4203 57.4848 83.3508 57.6228C82.7164 58.9005 81.6627 59.9469 80.3856 60.5688L74.7375 63.3133C74.5162 63.4194 74.2823 63.4704 74.0526 63.4704Z" fill="#FFCF55"/>
</g>
<defs>
<clipPath id="clip0">
<rect width="104" height="83" fill="white"/>
</clipPath>
</defs>
</svg>
