<svg width="39" height="39" viewBox="0 0 39 39" fill="none" xmlns="http://www.w3.org/2000/svg">
<g clip-path="url(#clip0)">
<path d="M37.7761 21.719L33.2562 19.1645V18.9313H37.4105C37.581 18.9313 37.7446 18.8636 37.8653 18.7431C37.9859 18.6226 38.0538 18.4591 38.054 18.2886V10.1351C38.054 8.15976 37.2693 6.26528 35.8725 4.86847C34.4757 3.47167 32.5812 2.68695 30.6058 2.68695C28.6304 2.68695 26.736 3.47167 25.3392 4.86847C23.9424 6.26528 23.1576 8.15976 23.1576 10.1351V12.6921C23.1546 12.7785 23.1689 12.8646 23.1999 12.9453C23.2308 13.026 23.2777 13.0996 23.3377 13.1618C23.3977 13.224 23.4696 13.2735 23.5492 13.3072C23.6288 13.341 23.7143 13.3584 23.8007 13.3584C23.8872 13.3584 23.9727 13.341 24.0523 13.3072C24.1318 13.2735 24.2037 13.224 24.2638 13.1618C24.3238 13.0996 24.3707 13.026 24.4016 12.9453C24.4325 12.8646 24.4469 12.7785 24.4438 12.6921V10.1351C24.4438 8.50087 25.093 6.93355 26.2486 5.77795C27.4042 4.62235 28.9716 3.97314 30.6058 3.97314C32.2401 3.97314 33.8074 4.62235 34.963 5.77795C36.1186 6.93355 36.7678 8.50087 36.7678 10.1351V17.6475H33.2562V17.3518C33.8772 16.9242 34.3851 16.3521 34.7361 15.6848C35.0871 15.0174 35.2707 14.2748 35.2712 13.5208V11.6521C35.2709 11.4981 35.2155 11.3493 35.1148 11.2327C35.0142 11.1161 34.8751 11.0395 34.7228 11.0167C33.9723 10.8796 33.2374 10.6678 32.529 10.3846C32.4504 10.3537 32.3665 10.3387 32.2821 10.3403C32.1977 10.3419 32.1145 10.36 32.0371 10.3938C31.9597 10.4276 31.8898 10.4762 31.8312 10.537C31.7726 10.5978 31.7266 10.6696 31.6958 10.7482C31.665 10.8268 31.6499 10.9106 31.6515 10.995C31.6531 11.0794 31.6713 11.1627 31.705 11.2401C31.7732 11.3963 31.9007 11.5191 32.0594 11.5814C32.6858 11.8278 33.3294 12.0279 33.985 12.1802V13.5225C33.985 14.4187 33.629 15.2782 32.9953 15.9119C32.3616 16.5456 31.502 16.9016 30.6058 16.9016C29.7096 16.9016 28.8501 16.5456 28.2164 15.9119C27.5827 15.2782 27.2266 14.4187 27.2266 13.5225V11.6537C27.2449 11.1971 27.4167 10.76 27.7141 10.413C28.0854 10.0516 28.4328 9.66652 28.7541 9.26008C29.1533 9.84069 29.6664 10.3341 30.2621 10.7104C30.3334 10.7583 30.4135 10.7916 30.4978 10.808C30.5821 10.8245 30.6689 10.824 30.753 10.8064C30.8371 10.7889 30.9168 10.7547 30.9874 10.7058C31.0581 10.6569 31.1182 10.5944 31.1643 10.522C31.2105 10.4495 31.2416 10.3685 31.2559 10.2838C31.2702 10.1991 31.2674 10.1124 31.2477 10.0288C31.228 9.9452 31.1918 9.86639 31.1411 9.79702C31.0904 9.72765 31.0264 9.66912 30.9528 9.62489C30.2441 9.20087 29.7041 8.54458 29.4244 7.76751C29.3835 7.63473 29.3011 7.51856 29.1893 7.43604C29.0775 7.35352 28.9422 7.30899 28.8033 7.30899C28.6643 7.30899 28.5291 7.35352 28.4173 7.43604C28.3055 7.51856 28.2231 7.63473 28.1821 7.76751C27.8448 8.43163 27.3783 9.02168 26.8098 9.50301C26.2641 10.0893 25.9549 10.8569 25.9421 11.6578V13.5265C25.9424 14.2801 26.126 15.0223 26.477 15.6891C26.828 16.356 27.336 16.9274 27.9571 17.3542V17.6532H26.5206C26.4342 17.6501 26.3481 17.6645 26.2674 17.6954C26.1867 17.7264 26.113 17.7732 26.0508 17.8333C25.9886 17.8933 25.9392 17.9652 25.9054 18.0448C25.8716 18.1243 25.8542 18.2099 25.8542 18.2963C25.8542 18.3827 25.8716 18.4683 25.9054 18.5478C25.9392 18.6274 25.9886 18.6993 26.0508 18.7593C26.113 18.8194 26.1867 18.8662 26.2674 18.8972C26.3481 18.9281 26.4342 18.9425 26.5206 18.9394H27.9554V19.1701L26.2679 20.1191C26.1194 20.203 26.0103 20.3423 25.9646 20.5066C25.9189 20.6709 25.9403 20.8465 26.0241 20.995C26.108 21.1435 26.2473 21.2526 26.4116 21.2983C26.5758 21.344 26.7515 21.3226 26.9 21.2388L28.1813 20.5148C28.3872 20.9868 28.7262 21.3884 29.157 21.6704C29.5877 21.9525 30.0914 22.1027 30.6062 22.1027C31.1211 22.1027 31.6248 21.9525 32.0555 21.6704C32.4862 21.3884 32.8253 20.9868 33.0311 20.5148L37.1432 22.8386C37.3261 22.9416 37.4784 23.0913 37.5844 23.2725C37.6905 23.4536 37.7466 23.6597 37.7469 23.8696V27.7111H36.0179V26.9563C36.063 26.38 35.9951 25.8004 35.818 25.2501C35.756 25.0928 35.6343 24.9665 35.4795 24.8988C35.3246 24.831 35.1493 24.8273 34.9917 24.8885C34.8342 24.9506 34.707 25.0716 34.6374 25.2259C34.5677 25.3802 34.5611 25.5557 34.6188 25.7148C34.7066 26.0023 34.7494 26.3016 34.7455 26.6021C34.7397 26.6246 34.7351 26.6473 34.7317 26.6703V27.0278C34.6145 28.1435 34.2378 29.2162 33.6316 30.16C32.7378 31.642 32.5518 32.6406 32.9816 33.6058C33.4787 34.6871 34.0646 35.7252 34.7333 36.7096V38.3248C34.7393 38.4914 34.8096 38.6492 34.9296 38.765C35.0495 38.8808 35.2097 38.9455 35.3764 38.9455C35.5431 38.9455 35.7033 38.8808 35.8233 38.765C35.9432 38.6492 36.0136 38.4914 36.0195 38.3248V28.9973H37.7485V38.3281C37.7485 38.4987 37.8163 38.6624 37.937 38.7831C38.0577 38.9038 38.2213 38.9716 38.392 38.9716C38.5627 38.9716 38.7264 38.9038 38.847 38.7831C38.9677 38.6624 39.0355 38.4987 39.0355 38.3281V23.8656C39.0339 23.4284 38.9165 22.9995 38.6953 22.6224C38.4741 22.2454 38.1569 21.9337 37.7761 21.719ZM31.97 19.4529C31.97 19.8147 31.8263 20.1617 31.5705 20.4175C31.3146 20.6734 30.9676 20.8171 30.6058 20.8171C30.244 20.8171 29.897 20.6734 29.6412 20.4175C29.3854 20.1617 29.2416 19.8147 29.2416 19.4529V17.9733C29.6864 18.1092 30.1489 18.1782 30.614 18.1781C31.0735 18.1782 31.5305 18.11 31.97 17.9758V19.4529ZM34.7325 34.2404C34.5335 33.8756 34.3336 33.4831 34.1573 33.0858C33.9948 32.7243 33.8956 32.2213 34.7325 30.8271V34.2404Z" fill="#FFBA4F"/>
<path d="M14.037 19.1368C14.1873 19.1375 14.3329 19.0849 14.4482 18.9885C14.5634 18.892 14.6407 18.7579 14.6665 18.6098C14.6923 18.4618 14.6649 18.3094 14.5891 18.1797C14.5133 18.0499 14.394 17.9512 14.2523 17.901L12.6273 17.3168V15.6731C13.43 15.089 14.0272 14.266 14.3336 13.3218C14.6373 13.3017 14.9362 13.2357 15.22 13.1259C16.3372 12.6896 17.0677 11.0858 16.8824 9.47538C16.8685 9.23735 16.8032 9.00515 16.691 8.79476C16.5788 8.58438 16.4223 8.40079 16.2324 8.25663C16.0778 8.14647 15.9043 8.06552 15.7205 8.01775C16.0061 7.70775 16.243 7.35629 16.4233 6.97532C16.7092 6.31648 16.9006 5.62063 16.9921 4.90832C17.0044 4.82429 16.9998 4.73864 16.9785 4.65643C16.9572 4.57422 16.9197 4.49709 16.8681 4.42958C16.8166 4.36208 16.7521 4.30556 16.6784 4.26335C16.6047 4.22114 16.5233 4.1941 16.439 4.1838C16.3547 4.17351 16.2692 4.18018 16.1875 4.20341C16.1058 4.22665 16.0296 4.26598 15.9634 4.3191C15.8971 4.37222 15.8421 4.43806 15.8017 4.51274C15.7612 4.58741 15.7361 4.66942 15.7278 4.75394C15.6516 5.34741 15.4924 5.92723 15.255 6.47644C15.023 6.90166 14.7208 7.28459 14.3612 7.60907C14.1687 6.82419 13.8632 6.10107 13.3692 5.88738C13.2241 5.82466 13.0651 5.80132 12.9082 5.81973C12.7513 5.83813 12.602 5.89762 12.4754 5.99219C12.1107 6.32005 11.6737 6.55717 11.2 6.68424C10.7263 6.81131 10.2293 6.82474 9.74947 6.72344C9.01046 6.6259 8.2988 6.37993 7.65728 6.00032C7.5775 5.94682 7.48664 5.91208 7.39151 5.89872C7.29639 5.88535 7.19947 5.89369 7.10803 5.92313C7.01574 5.95244 6.93126 6.00223 6.86091 6.06878C6.79057 6.13533 6.73617 6.21692 6.70178 6.30744C6.49118 6.79287 6.21685 7.24808 5.88603 7.66107C5.85028 7.70738 5.81534 7.74232 5.78041 7.78375C5.17603 7.31477 4.71279 6.68811 4.4417 5.97276C4.17062 5.25741 4.10219 4.48112 4.24397 3.72938C4.68272 1.59657 7.07309 1.14888 9.00034 1.14888C10.0941 1.13501 11.1805 1.3294 12.2016 1.72169C12.5926 1.86681 12.9933 1.98411 13.4008 2.07269C13.7096 2.12191 14.025 2.10873 14.3285 2.03393C14.6321 1.95913 14.9175 1.82422 15.168 1.63719C15.4171 2.1084 15.5922 2.61509 15.6872 3.1395C15.6995 3.22415 15.7287 3.30546 15.773 3.37858C15.8174 3.4517 15.8761 3.51514 15.9455 3.56511C16.0149 3.61508 16.0937 3.65056 16.1771 3.66943C16.2605 3.6883 16.3469 3.69018 16.431 3.67495C16.5152 3.65972 16.5954 3.6277 16.667 3.58079C16.7385 3.53389 16.7998 3.47306 16.8473 3.40193C16.8948 3.33081 16.9275 3.25084 16.9435 3.16681C16.9594 3.08278 16.9583 2.9964 16.9401 2.91282C16.7774 1.95088 16.3837 1.04279 15.7928 0.266504C15.7332 0.195162 15.6586 0.137777 15.5744 0.0984005C15.4902 0.0590241 15.3983 0.0386156 15.3053 0.0386156C15.2124 0.0386156 15.1205 0.0590241 15.0363 0.0984005C14.952 0.137777 14.8775 0.195162 14.8178 0.266504C14.8122 0.272192 14.2207 0.940067 13.6462 0.823879C13.296 0.745723 12.9515 0.643651 12.6152 0.518379C11.4606 0.0815309 10.2347 -0.136416 9.00034 -0.124308C5.60653 -0.124308 3.47534 1.15294 2.99678 3.47263C2.82462 4.26902 2.84361 5.09488 3.05221 5.88252C3.2608 6.67016 3.65306 7.39716 4.19684 8.00394C3.98522 8.04683 3.7847 8.13284 3.60778 8.25663C3.41786 8.40079 3.26141 8.58438 3.1492 8.79476C3.037 9.00515 2.97169 9.23735 2.95778 9.47538C2.77253 11.0858 3.50297 12.6896 4.62016 13.1251C4.86736 13.2212 5.12648 13.2833 5.39041 13.3096C5.72066 14.3365 6.39431 15.2184 7.29816 15.8072V17.2973L1.96978 19.1791C1.38691 19.3851 0.882074 19.7665 0.524515 20.2708C0.166955 20.7752 -0.025811 21.3778 -0.0273438 21.996V38.3273C-0.0273437 38.4962 0.0397686 38.6582 0.159229 38.7777C0.27869 38.8971 0.440713 38.9643 0.609656 38.9643C0.778599 38.9643 0.940623 38.8971 1.06008 38.7777C1.17954 38.6582 1.24666 38.4962 1.24666 38.3273V29.1021H3.62484V38.3281C3.62484 38.497 3.69196 38.659 3.81142 38.7785C3.93088 38.898 4.0929 38.9651 4.26184 38.9651C4.43079 38.9651 4.59281 38.898 4.71227 38.7785C4.83173 38.659 4.89884 38.497 4.89884 38.3281V25.3858C4.89884 25.2168 4.83173 25.0548 4.71227 24.9353C4.59281 24.8159 4.43079 24.7488 4.26184 24.7488C4.0929 24.7488 3.93088 24.8159 3.81142 24.9353C3.69196 25.0548 3.62484 25.2168 3.62484 25.3858V27.8281H1.24666V21.996C1.24762 21.6411 1.35842 21.2953 1.56384 21.0059C1.76926 20.7166 2.05922 20.4979 2.39391 20.3799L7.47528 18.5868C7.65947 19.0978 7.99634 19.5398 8.44022 19.853C8.8841 20.1661 9.41352 20.3352 9.95674 20.3374C10.5 20.3395 11.0307 20.1746 11.477 19.8649C11.9233 19.5552 12.2637 19.1158 12.4518 18.6063L13.825 19.0986C13.8929 19.1237 13.9647 19.1366 14.037 19.1368ZM14.5619 11.8869V9.28688C14.8664 9.19557 15.191 9.19557 15.4955 9.28688C15.5729 9.37969 15.6167 9.49593 15.6198 9.61676C15.7425 10.6852 15.2574 11.7406 14.7585 11.9356C14.6926 11.9606 14.625 11.9809 14.5562 11.9966C14.557 11.9624 14.5619 11.9251 14.5619 11.8869ZM5.08653 11.9438C4.58766 11.7488 4.10259 10.6933 4.22609 9.62488C4.22839 9.5039 4.27229 9.38741 4.35041 9.295C4.61582 9.20663 4.90157 9.19956 5.17103 9.27469V11.8909C5.17103 11.9178 5.17103 11.9438 5.17103 11.9722C5.14503 11.9568 5.11903 11.9519 5.08653 11.9438ZM11.3525 17.6792C11.3525 18.0475 11.2062 18.4007 10.9458 18.6611C10.6854 18.9215 10.3322 19.0678 9.96397 19.0678C9.5957 19.0678 9.24251 18.9215 8.98211 18.6611C8.7217 18.4007 8.57541 18.0475 8.57541 17.6792V16.3881C9.4852 16.6532 10.4544 16.6334 11.3525 16.3313V17.6792ZM9.85834 15.3043C8.95362 15.3032 8.08626 14.9433 7.44653 14.3036C6.80679 13.6638 6.44692 12.7965 6.44584 11.8918V8.91638C6.61202 8.77143 6.76335 8.61031 6.89759 8.43538C7.1508 8.10741 7.38024 7.76176 7.58416 7.40107C8.21588 7.69184 8.88683 7.88838 9.57559 7.98444C10.1532 8.10346 10.7494 8.09852 11.325 7.96994C11.9005 7.84136 12.4421 7.59208 12.9142 7.23857C13.0927 7.73449 13.2185 8.24784 13.2895 8.77013V11.8869C13.2886 12.3364 13.199 12.7812 13.026 13.1961C12.8531 13.6109 12.6 13.9876 12.2813 14.3046C11.9627 14.6216 11.5847 14.8727 11.1689 15.0435C10.7532 15.2144 10.3078 15.3016 9.85834 15.3002V15.3043Z" fill="#FFBA4F"/>
<path d="M26.5387 27.4674C26.4232 26.888 26.4418 26.2899 26.5931 25.7189C26.651 25.5607 26.6446 25.3861 26.5752 25.2326C26.5058 25.0792 26.3791 24.959 26.2221 24.8979C26.0651 24.8369 25.8904 24.8398 25.7356 24.9061C25.5807 24.9724 25.458 25.0968 25.3939 25.2525C25.2193 25.7858 25.1492 26.3477 25.1875 26.9076L22.2861 25.8822V24.9998C22.8986 24.5743 23.3606 23.9656 23.6056 23.2611C23.7804 23.2366 23.9519 23.1922 24.1166 23.1286C24.5923 22.8538 24.9715 22.439 25.2026 21.9406C25.4336 21.4423 25.5053 20.8848 25.4077 20.3442C25.3959 20.1521 25.3427 19.9648 25.2517 19.7952C25.1607 19.6257 25.034 19.4778 24.8804 19.3619C24.8007 19.3062 24.7148 19.2602 24.6244 19.2246C24.9825 18.7798 25.2363 18.2603 25.367 17.7045C25.4978 17.1486 25.5023 16.5705 25.3801 16.0127C25.0201 14.2659 23.4341 13.3039 20.9113 13.3039C20.0066 13.2947 19.1082 13.4539 18.2617 13.7735C18.025 13.8615 17.7826 13.9334 17.5362 13.9888C17.2924 14.0343 16.9561 13.7719 16.8391 13.6378C16.78 13.573 16.7082 13.5212 16.628 13.4858C16.5478 13.4504 16.4611 13.4321 16.3735 13.4321C16.2859 13.4321 16.1992 13.4504 16.119 13.4858C16.0388 13.5212 15.9669 13.573 15.9079 13.6378C15.3835 14.3469 15.0617 15.1853 14.9771 16.0632C14.8925 16.9411 15.0483 17.8255 15.4278 18.6217C15.5304 18.8454 15.6621 19.0547 15.8194 19.2441C15.7479 19.2761 15.6798 19.3153 15.6162 19.3611C15.4626 19.477 15.3359 19.6248 15.2449 19.7944C15.1539 19.964 15.1007 20.1513 15.0889 20.3434C14.9912 20.884 15.0628 21.4415 15.2939 21.9399C15.525 22.4382 15.9043 22.8531 16.38 23.1278C16.5709 23.2019 16.771 23.2494 16.9747 23.2692C17.203 23.9089 17.6116 24.4688 18.1512 24.8812V25.896L16.1314 26.6208V25.3857C16.1344 25.3002 16.1202 25.215 16.0896 25.1351C16.059 25.0552 16.0126 24.9823 15.9532 24.9207C15.8938 24.8591 15.8226 24.8101 15.7438 24.7767C15.665 24.7432 15.5803 24.726 15.4948 24.726C15.4092 24.726 15.3245 24.7432 15.2458 24.7767C15.167 24.8101 15.0958 24.8591 15.0364 24.9207C14.977 24.9823 14.9306 25.0552 14.9 25.1351C14.8693 25.215 14.8551 25.3002 14.8582 25.3857V27.079L14.5259 27.1984C14.0799 27.3589 13.6942 27.6528 13.4211 28.0402C13.1481 28.4277 13.0011 28.8898 13 29.3638V38.4004C13 38.562 13.0642 38.717 13.1785 38.8313C13.2928 38.9456 13.4478 39.0098 13.6094 39.0098C13.771 39.0098 13.926 38.9456 14.0403 38.8313C14.1545 38.717 14.2187 38.562 14.2187 38.4004V34.6336H15.6276V38.4004C15.6276 38.562 15.6918 38.717 15.8061 38.8313C15.9204 38.9456 16.0754 39.0098 16.237 39.0098C16.3986 39.0098 16.5536 38.9456 16.6679 38.8313C16.7822 38.717 16.8464 38.562 16.8464 38.4004V31.8086C16.8464 31.6469 16.7822 31.492 16.6679 31.3777C16.5536 31.2634 16.3986 31.1992 16.237 31.1992C16.0754 31.1992 15.9204 31.2634 15.8061 31.3777C15.6918 31.492 15.6276 31.6469 15.6276 31.8086V33.4149H14.2187V29.3638C14.2197 29.1407 14.2893 28.9233 14.4181 28.7412C14.5469 28.559 14.7286 28.4209 14.9386 28.3457L18.3462 27.1221C18.5103 27.4829 18.775 27.7887 19.1086 28.0026C19.4423 28.2166 19.8306 28.3297 20.2269 28.3284C20.6233 28.327 21.0108 28.2112 21.3429 27.9949C21.675 27.7786 21.9377 27.471 22.0992 27.1091L25.6149 28.3506C25.8263 28.4247 26.0096 28.5626 26.1394 28.7452C26.2692 28.9278 26.3391 29.1462 26.3396 29.3703V33.4149H24.9332V31.8086C24.9332 31.6469 24.869 31.492 24.7547 31.3777C24.6404 31.2634 24.4854 31.1992 24.3238 31.1992C24.1622 31.1992 24.0072 31.2634 23.8929 31.3777C23.7786 31.492 23.7144 31.6469 23.7144 31.8086V38.4004C23.7144 38.562 23.7786 38.717 23.8929 38.8313C24.0072 38.9456 24.1622 39.0098 24.3238 39.0098C24.4854 39.0098 24.6404 38.9456 24.7547 38.8313C24.869 38.717 24.9332 38.562 24.9332 38.4004V34.6336H26.3421V38.4004C26.3421 38.562 26.4063 38.717 26.5205 38.8313C26.6348 38.9456 26.7898 39.0098 26.9514 39.0098C27.1131 39.0098 27.268 38.9456 27.3823 38.8313C27.4966 38.717 27.5608 38.562 27.5608 38.4004V29.3703C27.5595 28.9936 27.4656 28.623 27.2874 28.2912C27.1091 27.9593 26.852 27.6764 26.5387 27.4674ZM23.8209 21.8831V20.3474C23.9338 20.3228 24.0508 20.3228 24.1637 20.3474C24.1846 20.391 24.1968 20.4382 24.1995 20.4864C24.2344 20.7327 24.2188 20.9835 24.1537 21.2236C24.0886 21.4637 23.9754 21.6881 23.8209 21.8831ZM16.7619 21.9529C16.5755 21.7611 16.4369 21.5281 16.3571 21.2728C16.2774 21.0174 16.2588 20.747 16.3028 20.4831C16.3126 20.3962 16.3321 20.3531 16.328 20.3531C16.4711 20.3207 16.6198 20.3229 16.7619 20.3596V21.9529ZM17.706 17.6386C17.5155 17.7575 17.3519 17.915 17.226 18.101C17.1 18.287 17.0145 18.4973 16.9747 18.7184C16.8041 18.5507 16.661 18.3571 16.5506 18.1447C16.3155 17.644 16.192 17.0982 16.1887 16.545C16.1853 15.9919 16.3021 15.4446 16.5311 14.9411C16.9011 15.1755 17.3456 15.2625 17.7767 15.1848C18.0764 15.1194 18.3712 15.0333 18.6591 14.9272C19.3778 14.65 20.1427 14.5122 20.9129 14.521C22.8483 14.521 23.9501 15.1044 24.1873 16.2565C24.2843 16.7454 24.2485 17.2513 24.0838 17.7217C23.919 18.1921 23.6313 18.6097 23.2505 18.9312C23.0341 18.6567 22.8524 18.3565 22.7094 18.0375C22.6773 17.9514 22.6262 17.8736 22.56 17.8099C22.4937 17.7461 22.414 17.6981 22.3267 17.6694C22.2391 17.6401 22.146 17.6313 22.0544 17.6435C21.9629 17.6558 21.8754 17.6888 21.7986 17.7401C21.3556 18.0013 20.8646 18.1704 20.3547 18.2374C20.0285 18.3094 19.6896 18.3017 19.367 18.2149C19.0444 18.128 18.7474 17.9646 18.5014 17.7385C18.3893 17.6534 18.2568 17.5993 18.1171 17.5817C17.9775 17.5642 17.8357 17.5838 17.706 17.6386ZM21.0697 26.2616C21.0758 26.4847 20.9933 26.7011 20.8401 26.8634C20.687 27.0257 20.4757 27.1207 20.2527 27.1276C20.0296 27.1345 19.813 27.0527 19.6501 26.9001C19.4872 26.7475 19.3915 26.5366 19.3838 26.3136C19.3819 26.2893 19.3784 26.2652 19.3732 26.2413V25.4833C19.6737 25.57 19.9844 25.6162 20.2971 25.6206C20.5573 25.6191 20.8165 25.5883 21.0697 25.5288V26.2616ZM20.2857 24.4018C19.6751 24.4012 19.0897 24.1586 18.6576 23.7271C18.2256 23.2957 17.9821 22.7106 17.9806 22.1V19.7787C18.0223 19.5071 18.0843 19.2391 18.1659 18.9767C18.5088 19.2053 18.8935 19.3637 19.2979 19.4429C19.7023 19.5221 20.1183 19.5205 20.5221 19.4382C20.9866 19.374 21.4402 19.2474 21.8709 19.0621C22.0034 19.2852 22.1494 19.5001 22.308 19.7056C22.3966 19.8221 22.495 19.9308 22.6021 20.0306V22.1C22.6 22.7124 22.3548 23.2988 21.9204 23.7304C21.486 24.162 20.898 24.4035 20.2857 24.4018Z" fill="#FFBA4F"/>
</g>
<defs>
<clipPath id="clip0">
<rect width="39" height="39" fill="white"/>
</clipPath>
</defs>
</svg>
