<svg width="115" height="96" viewBox="0 0 115 96" fill="none" xmlns="http://www.w3.org/2000/svg">
<path d="M57.4769 60.2005C51.8646 60.2005 47.2979 55.597 47.2979 49.9395C47.2979 44.2821 51.8646 39.6786 57.4769 39.6786C63.0892 39.6786 67.6559 44.2821 67.6559 49.9395C67.6559 55.597 63.0892 60.2005 57.4769 60.2005ZM57.4769 43.1608C53.7691 43.1608 50.7523 46.2019 50.7523 49.9395C50.7523 53.6771 53.7691 56.7182 57.4769 56.7182C61.1846 56.7182 64.2015 53.6771 64.2015 49.9395C64.2015 46.2019 61.1846 43.1608 57.4769 43.1608Z" fill="#FFCF55"/>
<path d="M87.6966 60.2005C82.0843 60.2005 77.5176 55.597 77.5176 49.9395C77.5176 44.2821 82.0843 39.6786 87.6966 39.6786C93.3089 39.6786 97.8756 44.2821 97.8756 49.9395C97.8756 55.597 93.3089 60.2005 87.6966 60.2005ZM87.6966 43.1608C83.9889 43.1608 80.972 46.2019 80.972 49.9395C80.972 53.6771 83.9889 56.7182 87.6966 56.7182C91.4043 56.7182 94.4212 53.6771 94.4212 49.9395C94.4212 46.2019 91.4043 43.1608 87.6966 43.1608Z" fill="#FFCF55"/>
<path d="M99.5915 95.9999C99.3704 95.9999 99.1447 95.9859 98.9213 95.9581C97.33 95.7538 95.939 94.8461 95.1053 93.4648C93.9539 91.5589 94.1174 89.1794 95.4577 87.4638V67.6477C95.4577 66.9211 95.9044 66.2711 96.5792 66.018C97.254 65.7626 98.0139 65.9577 98.4884 66.5055L106.841 76.1861C107.385 76.8152 107.408 77.7438 106.899 78.4008L98.4722 89.2792C98.4262 89.3372 98.3778 89.393 98.3271 89.444C97.7376 90.0314 97.6271 90.9414 98.0577 91.6564C98.341 92.1276 98.8154 92.4364 99.3566 92.5061C99.8701 92.5711 100.379 92.4132 100.764 92.0696L110.632 79.7844C111.806 78.3218 111.85 76.2488 110.738 74.7375L99.7964 60.8202C99.0572 59.8777 98.06 59.2068 96.9131 58.8748L93.0488 57.7582C92.1322 57.4936 91.6025 56.5301 91.8651 55.6039C92.1276 54.6799 93.0856 54.1437 94.0022 54.4106L97.8666 55.5273C99.7089 56.0589 101.314 57.143 102.505 58.6566L113.462 72.5947C113.471 72.6064 113.481 72.6203 113.49 72.6319C115.565 75.4223 115.493 79.2643 113.317 81.9758L103.373 94.3563C103.329 94.4097 103.283 94.4607 103.235 94.5095C102.247 95.4706 100.948 95.9999 99.5915 95.9999ZM98.9121 72.2999V83.0507L103.302 77.3863L98.9121 72.2999Z" fill="#FFCF55"/>
<path d="M77.2067 95.2316C76.2533 95.2316 75.4795 94.4515 75.4795 93.4904V65.4772C75.4795 64.5161 76.2533 63.7361 77.2067 63.7361C78.1601 63.7361 78.9339 64.5161 78.9339 65.4772V93.4904C78.9339 94.4515 78.1601 95.2316 77.2067 95.2316Z" fill="#FFCF55"/>
<path d="M63.96 57.2451C63.1931 57.2451 62.493 56.7275 62.2903 55.9451C62.0485 55.0142 62.5989 54.0624 63.5224 53.8186L65.7931 53.2174C69.2913 52.2911 72.8839 52.0636 76.4696 52.5395L80.836 53.1199C81.7825 53.2452 82.4481 54.1204 82.3237 55.0746C82.1993 56.0287 81.3288 56.6996 80.3846 56.5742L76.0182 55.9939C72.877 55.576 69.7335 55.7756 66.6706 56.5858L64.3998 57.1871C64.2525 57.2266 64.1051 57.2451 63.96 57.2451Z" fill="#FFCF55"/>
<path d="M67.9674 95.2315C67.014 95.2315 66.2402 94.4515 66.2402 93.4904V64.0447C66.2402 63.4574 66.5327 62.9095 67.0209 62.5892L73.688 58.1853C73.8008 58.111 73.9206 58.0507 74.0449 58.0043L81.4558 55.2904C82.354 54.9608 83.3442 55.4297 83.669 56.3328C83.9937 57.2358 83.5308 58.2364 82.6349 58.5637L75.4129 61.2079L69.6947 64.9849V93.4904C69.6947 94.4515 68.9209 95.2315 67.9674 95.2315Z" fill="#FFCF55"/>
<path d="M77.112 68.9199C77.0084 68.9199 76.9024 68.9106 76.7965 68.8897L67.6538 67.1881C66.7165 67.0139 66.0947 66.1062 66.2697 65.1591C66.4425 64.2142 67.3429 63.5874 68.2825 63.7639L77.4252 65.4655C78.3625 65.6396 78.9843 66.5473 78.8093 67.4945C78.655 68.3325 77.9272 68.9199 77.112 68.9199Z" fill="#FFCF55"/>
<path d="M27.304 60.2005C21.6917 60.2005 17.125 55.597 17.125 49.9395C17.125 44.2821 21.6917 39.6786 27.304 39.6786C32.9163 39.6786 37.4831 44.2821 37.4831 49.9395C37.4831 55.597 32.9163 60.2005 27.304 60.2005ZM27.304 43.1608C23.5963 43.1608 20.5794 46.2019 20.5794 49.9395C20.5794 53.6771 23.5963 56.7182 27.304 56.7182C31.0118 56.7182 34.0286 53.6771 34.0286 49.9395C34.0286 46.2019 31.0118 43.1608 27.304 43.1608Z" fill="#FFCF55"/>
<path d="M15.4093 95.9999C14.0528 95.9999 12.754 95.4729 11.766 94.5026C11.7177 94.4538 11.6716 94.4027 11.6278 94.3493L1.68371 81.9712C-0.494884 79.2598 -0.563972 75.4177 1.51098 72.6273C1.5202 72.6157 1.52941 72.6018 1.53862 72.5901L12.496 58.652C13.6867 57.1361 15.2918 56.0543 17.1342 55.5227L20.9985 54.406C21.9151 54.1414 22.8708 54.6753 23.1357 55.5993C23.3982 56.5232 22.8685 57.4889 21.952 57.7536L18.0876 58.8702C16.943 59.2022 15.9459 59.8731 15.2043 60.8156L4.2607 74.7329C3.14838 76.2442 3.19214 78.3172 4.36664 79.7798L14.2348 92.065C14.6194 92.4086 15.1283 92.5688 15.6419 92.5014C16.1831 92.4318 16.6575 92.123 16.9407 91.6518C17.3714 90.9368 17.2608 90.0268 16.6713 89.4394C16.6183 89.3883 16.57 89.3326 16.5262 89.2746L8.09972 78.3962C7.59077 77.7392 7.6161 76.8106 8.15729 76.1815L16.5101 66.5009C16.9822 65.953 17.7422 65.758 18.4192 66.0134C19.094 66.2688 19.5408 66.9188 19.5408 67.6431V87.4592C20.8788 89.1748 21.0423 91.5543 19.8931 93.4602C19.0594 94.8415 17.6685 95.7515 16.0771 95.9558C15.8537 95.986 15.6304 95.9999 15.4093 95.9999ZM11.6992 77.384L16.0886 83.0484V72.2976L11.6992 77.384Z" fill="#FFCF55"/>
<path d="M37.7936 95.2316C36.8402 95.2316 36.0664 94.4515 36.0664 93.4904V65.4772C36.0664 64.5161 36.8402 63.7361 37.7936 63.7361C38.747 63.7361 39.5208 64.5161 39.5208 65.4772V93.4904C39.5208 94.4515 38.747 95.2316 37.7936 95.2316Z" fill="#FFCF55"/>
<path d="M51.0408 57.2451C50.8957 57.2451 50.7483 57.2266 50.6009 57.1871L48.3302 56.5858C45.2673 55.7756 42.1237 55.576 38.9825 55.9939L34.6161 56.5742C33.6742 56.6996 32.8037 56.0287 32.6771 55.0746C32.5527 54.1204 33.2182 53.2476 34.1648 53.1199L38.5311 52.5395C42.1168 52.0636 45.7094 52.2911 49.2076 53.2174L51.4783 53.8186C52.4018 54.0624 52.9522 55.0142 52.7104 55.9451C52.5077 56.7275 51.8076 57.2451 51.0408 57.2451Z" fill="#FFCF55"/>
<path d="M47.0338 95.2315C46.0803 95.2315 45.3066 94.4515 45.3066 93.4904V64.9849L39.5883 61.2079L32.3663 58.5637C31.4704 58.2364 31.0076 57.2358 31.3323 56.3328C31.657 55.4297 32.6473 54.9608 33.5454 55.2904L40.9563 58.0043C41.0806 58.0507 41.2027 58.111 41.3132 58.1853L47.9803 62.5892C48.4662 62.9119 48.761 63.4574 48.761 64.0447V93.4904C48.761 94.4515 47.9872 95.2315 47.0338 95.2315Z" fill="#FFCF55"/>
<path d="M37.8883 68.92C37.0707 68.92 36.3453 68.3326 36.191 67.4946C36.0183 66.5498 36.6378 65.6421 37.5751 65.4656L46.7178 63.764C47.6551 63.5899 48.5555 64.2143 48.7305 65.1592C48.9033 66.104 48.2838 67.0117 47.3465 67.1882L38.2038 68.8898C38.0978 68.9084 37.9919 68.92 37.8883 68.92Z" fill="#FFCF55"/>
<path d="M56.5997 21.9078C55.6463 21.9078 54.8725 21.1278 54.8725 20.1667L54.8633 1.74111C54.8633 0.780016 55.6348 0 56.5905 0C57.5439 0 58.3177 0.780016 58.3177 1.74111L58.3269 20.1667C58.3269 21.1278 57.5531 21.9078 56.5997 21.9078Z" fill="#FFCF55"/>
<path d="M79.2177 26.2094C78.9183 26.2094 78.6143 26.1305 78.3357 25.9633C77.5158 25.4712 77.2464 24.4033 77.7346 23.5768L86.6447 8.48028C87.1329 7.65383 88.1923 7.38222 89.0121 7.87437C89.832 8.36653 90.1014 9.4344 89.6132 10.2609L80.7031 25.3574C80.3807 25.9053 79.8073 26.2094 79.2177 26.2094Z" fill="#FFCF55"/>
<path d="M99.1266 34.4252C98.6522 34.4252 98.1824 34.2302 97.8415 33.8472C97.2036 33.1322 97.2635 32.0318 97.9728 31.3887L107.263 22.9803C107.972 22.3373 109.066 22.3976 109.702 23.1127C110.34 23.8277 110.28 24.9281 109.57 25.5711L100.28 33.9795C99.9487 34.279 99.5365 34.4252 99.1266 34.4252Z" fill="#FFCF55"/>
<path d="M35.7838 26.2094C35.1942 26.2094 34.6208 25.9053 34.2984 25.3574L25.386 10.2609C24.8977 9.4344 25.1672 8.36653 25.987 7.87437C26.8069 7.38222 27.8662 7.65383 28.3545 8.48028L37.2646 23.5768C37.7528 24.4033 37.4834 25.4712 36.6635 25.9633C36.3872 26.1305 36.0832 26.2094 35.7838 26.2094Z" fill="#FFCF55"/>
<path d="M15.8747 34.4252C15.4648 34.4252 15.0502 34.279 14.7209 33.9795L5.43081 25.5711C4.7215 24.9281 4.66162 23.8277 5.29954 23.1127C5.93515 22.3976 7.02905 22.3373 7.73836 22.9803L17.0285 31.3887C17.7378 32.0318 17.7976 33.1322 17.1597 33.8472C16.8189 34.2302 16.3491 34.4252 15.8747 34.4252Z" fill="#FFCF55"/>
</svg>
