<svg width="96" height="102" viewBox="0 0 96 102" fill="none" xmlns="http://www.w3.org/2000/svg">
<g clip-path="url(#clip0)">
<path d="M42.6621 78.5197C42.66 78.5197 42.6558 78.5197 42.6537 78.5197C42.2351 78.5176 41.8354 78.349 41.5409 78.0518L32.1191 68.514C31.5069 67.8944 31.5111 66.8934 32.1317 66.2781C32.7501 65.6648 33.7493 65.6691 34.3635 66.2907L42.6768 74.7054L51.1668 66.2865C51.7852 65.6712 52.7844 65.6775 53.3986 66.297C54.0108 66.9166 54.0066 67.9176 53.3881 68.5329L43.777 78.0645C43.4762 78.3553 43.0786 78.5197 42.6621 78.5197Z" fill="#FFCF55"/>
<path d="M63.3026 58.0532C62.8967 58.0532 62.4907 57.8972 62.1814 57.5854C61.5693 56.9658 61.5735 55.9648 62.192 55.3494L76.7738 40.8909C80.6991 37.0007 82.8741 31.8103 82.9036 26.2806C82.9309 20.7489 80.8084 15.5395 76.9253 11.6072C68.9086 3.49176 55.795 3.42432 47.6943 11.4575L44.0972 15.0232C43.8006 15.3161 43.403 15.4805 42.9865 15.4805C42.9844 15.4805 42.9802 15.4805 42.9781 15.4805C42.5595 15.4784 42.1598 15.3098 41.8653 15.0126L38.5038 11.6093C30.4893 3.49386 17.3757 3.42432 9.27491 11.4554C1.17412 19.4887 1.1047 32.6238 9.12345 40.7392L23.4466 55.2399C24.0587 55.8594 24.0545 56.8604 23.4339 57.4758C22.8155 58.089 21.8163 58.0848 21.2021 57.4631L6.87896 42.9624C-2.36196 33.6079 -2.28203 18.4666 7.05566 9.209C16.3933 -0.0485952 31.5074 0.0314844 40.7483 9.38601L42.9991 11.6662L45.475 9.2111C54.8127 -0.0464883 69.9267 0.0314844 79.1677 9.38601C88.4086 18.7405 88.3307 33.8819 78.9931 43.1395L64.4112 57.598C64.1041 57.9015 63.7044 58.0532 63.3026 58.0532Z" fill="#FFCF55"/>
<path d="M27.6469 77.5736C27.3692 77.5736 27.0873 77.4998 26.8328 77.346C26.0882 76.895 25.8484 75.9235 26.2985 75.1754L34.9399 60.8602C36.1684 58.8266 36.0906 56.2472 34.7443 54.2895C34.5087 53.946 34.1742 53.8806 33.9954 53.8722C33.8145 53.8659 33.478 53.8975 33.2108 54.2157L21.9 67.6859C21.3383 68.3539 20.3433 68.4403 19.6765 67.8777C19.0097 67.315 18.9234 66.3182 19.4851 65.6502L30.7959 52.18C31.631 51.1853 32.8553 50.6501 34.1448 50.7133C35.4385 50.7744 36.6038 51.4235 37.3401 52.4919C39.391 55.4696 39.5088 59.3956 37.6388 62.4913L28.9974 76.8065C28.7008 77.3017 28.1791 77.5736 27.6469 77.5736Z" fill="#FFCF55"/>
<path d="M39.3709 102C38.5 102 37.7932 101.292 37.7932 100.419V85.554C37.7932 82.5995 37.139 79.6218 35.9 76.9413L32.0778 68.6699C31.7118 67.8776 32.0568 66.9377 32.8477 66.571C33.6387 66.2043 34.5769 66.5499 34.9429 67.3423L38.765 75.6116C40.1955 78.7051 40.9506 82.1422 40.9506 85.5519V100.417C40.9485 101.292 40.2417 102 39.3709 102Z" fill="#FFCF55"/>
<path d="M20.436 101.062C19.5651 101.062 18.8583 100.354 18.8583 99.4816V89.988C18.8583 88.6836 18.3261 87.4128 17.3963 86.5003L13.4501 82.6249C10.9805 80.1994 9.35024 77.1163 8.736 73.7045L6.19701 59.6105C5.8941 57.9247 5.85203 56.2093 6.0729 54.5108L7.44652 43.955C7.56011 43.0889 8.35105 42.4799 9.21561 42.5916C10.0802 42.7054 10.6881 43.4977 10.5766 44.3639L9.20299 54.9196C9.02419 56.2957 9.05785 57.6844 9.30396 59.05L11.843 73.144C12.3394 75.9046 13.6604 78.4039 15.6609 80.368L19.6072 84.2434C21.1386 85.7459 22.0158 87.8406 22.0158 89.988V99.4816C22.0137 100.354 21.3069 101.062 20.436 101.062Z" fill="#FFCF55"/>
<path d="M57.8631 77.5735C57.3288 77.5735 56.8071 77.3016 56.5126 76.8106L47.8712 62.4954C46.0033 59.3997 46.119 55.4737 48.1699 52.496C48.9062 51.4276 50.0694 50.7785 51.3652 50.7174C52.6589 50.6563 53.8811 51.1894 54.7141 52.1841L66.0249 65.6543C66.5866 66.3223 66.5003 67.3191 65.8335 67.8818C65.1667 68.4444 64.1717 68.358 63.61 67.69L52.2992 54.2198C52.0321 53.9016 51.6934 53.8679 51.5146 53.8763C51.3358 53.8847 51.0034 53.9501 50.7657 54.2936C49.4194 56.2513 49.3416 58.8286 50.5701 60.8643L59.2115 75.1795C59.6617 75.9276 59.424 76.8991 58.6772 77.3501C58.4227 77.4997 58.1408 77.5735 57.8631 77.5735Z" fill="#FFCF55"/>
<path d="M46.1402 102C45.2693 102 44.5625 101.292 44.5625 100.419V85.5541C44.5625 82.1444 45.3177 78.7073 46.7481 75.6137L50.5703 67.3445C50.9363 66.5521 51.8745 66.2086 52.6654 66.5753C53.4563 66.942 53.7992 67.8819 53.4332 68.6742L49.611 76.9435C48.372 79.624 47.7178 82.6017 47.7178 85.5562V100.421C47.7178 101.292 47.011 102 46.1402 102Z" fill="#FFCF55"/>
<path d="M65.0738 101.062C64.2029 101.062 63.4961 100.354 63.4961 99.4814V89.9878C63.4961 87.8404 64.3733 85.7457 65.9047 84.2432L69.8509 80.3678C71.8514 78.4037 73.1703 75.9065 73.6689 73.1438L76.2079 59.0498C76.454 57.6842 76.4877 56.2955 76.3089 54.9194L74.9352 44.3637C74.8216 43.4976 75.4317 42.7052 76.2962 42.5914C77.1608 42.4818 77.9517 43.0887 78.0653 43.9549L79.439 54.5106C79.6598 56.2091 79.6177 57.9245 79.3148 59.6104L76.7758 73.7043C76.1616 77.114 74.5314 80.1992 72.0618 82.6247L68.1155 86.5002C67.1857 87.4126 66.6535 88.6834 66.6535 89.9878V99.4814C66.6514 100.354 65.9446 101.062 65.0738 101.062Z" fill="#FFCF55"/>
<path d="M67.8426 22.6412C67.8341 22.6412 67.8257 22.6412 67.8173 22.6412C66.9464 22.6265 66.2502 21.9079 66.2649 21.0354L66.2817 20.0049C66.2964 19.1409 66.999 18.4497 67.8594 18.4497C67.8678 18.4497 67.8762 18.4497 67.8846 18.4497C68.7555 18.4645 69.4518 19.1831 69.437 20.0555L69.4202 21.086C69.4076 21.95 68.7029 22.6412 67.8426 22.6412Z" fill="#FFCF55"/>
<path d="M67.697 31.7491C67.6886 31.7491 67.6802 31.7491 67.6718 31.7491C66.8009 31.7344 66.1046 31.0158 66.1194 30.1433L66.1362 29.1128C66.1509 28.2488 66.8535 27.5576 67.7139 27.5576C67.7223 27.5576 67.7307 27.5576 67.7391 27.5576C68.61 27.5724 69.3063 28.291 69.2915 29.1634L69.2747 30.1939C69.2621 31.0579 68.5574 31.7491 67.697 31.7491Z" fill="#FFCF55"/>
<path d="M63.7491 26.6137C63.7407 26.6137 63.7323 26.6137 63.7239 26.6137L62.6952 26.5968C61.8244 26.5821 61.1281 25.8635 61.1428 24.991C61.1575 24.127 61.8601 23.4358 62.7205 23.4358C62.7289 23.4358 62.7373 23.4358 62.7457 23.4358L63.7744 23.4527C64.6452 23.4674 65.3415 24.186 65.3268 25.0585C65.3121 25.9225 64.6074 26.6137 63.7491 26.6137Z" fill="#FFCF55"/>
<path d="M72.8409 26.7589C72.8325 26.7589 72.8241 26.7589 72.8157 26.7589L71.787 26.7421C70.9162 26.7273 70.2199 26.0087 70.2346 25.1363C70.2493 24.2723 70.9519 23.5811 71.8123 23.5811C71.8207 23.5811 71.8291 23.5811 71.8375 23.5811L72.8662 23.5979C73.737 23.6127 74.4333 24.3313 74.4186 25.2037C74.4039 26.0677 73.6992 26.7589 72.8409 26.7589Z" fill="#FFCF55"/>
<path d="M89.4265 42.5094C89.4181 42.5094 89.4097 42.5094 89.4013 42.5094C88.5304 42.4947 87.8341 41.7761 87.8489 40.9036L87.8657 39.871C87.8804 38.9986 88.5935 38.2968 89.4686 38.3158C90.3395 38.3306 91.0358 39.0492 91.021 39.9216L91.0042 40.9542C90.9895 41.8182 90.2848 42.5094 89.4265 42.5094Z" fill="#FFCF55"/>
<path d="M89.282 51.6175C89.2736 51.6175 89.2652 51.6175 89.2568 51.6175C88.3859 51.6027 87.6896 50.8841 87.7043 50.0117L87.7212 48.9791C87.7359 48.115 88.4385 47.4238 89.2988 47.4238C89.3073 47.4238 89.3157 47.4238 89.3241 47.4238C90.195 47.4386 90.8912 48.1572 90.8765 49.0296L90.8597 50.0622C90.845 50.9262 90.1403 51.6175 89.282 51.6175Z" fill="#FFCF55"/>
<path d="M85.3313 46.4838C85.3229 46.4838 85.3145 46.4838 85.306 46.4838L84.2753 46.4669C83.4044 46.4522 82.7082 45.7336 82.7229 44.8611C82.7376 43.9971 83.4402 43.3059 84.3005 43.3059C84.309 43.3059 84.3174 43.3059 84.3258 43.3059L85.3565 43.3228C86.2274 43.3375 86.9237 44.0561 86.909 44.9286C86.8942 45.7926 86.1916 46.4838 85.3313 46.4838Z" fill="#FFCF55"/>
<path d="M94.4231 46.6293C94.4147 46.6293 94.4063 46.6293 94.3978 46.6293L93.3671 46.6124C92.4962 46.5977 91.8 45.8791 91.8147 45.0066C91.8294 44.1426 92.532 43.4514 93.3923 43.4514C93.4008 43.4514 93.4092 43.4514 93.4176 43.4514L94.4483 43.4683C95.3192 43.483 96.0155 44.2016 96.0007 45.0741C95.986 45.9381 95.2834 46.6293 94.4231 46.6293Z" fill="#FFCF55"/>
<path d="M89.4265 4.1914C89.4181 4.1914 89.4097 4.1914 89.4013 4.1914C88.5304 4.17664 87.8341 3.45804 87.8489 2.58559L87.8657 1.5551C87.8804 0.682656 88.5935 -0.0106624 89.4686 -0.000125618C90.3395 0.0146258 91.0358 0.733233 91.021 1.60568L91.0042 2.63617C90.9895 3.50018 90.2848 4.1914 89.4265 4.1914Z" fill="#FFCF55"/>
<path d="M89.282 13.3014C89.2736 13.3014 89.2652 13.3014 89.2568 13.3014C88.3859 13.2867 87.6896 12.5681 87.7043 11.6956L87.7212 10.663C87.7359 9.79058 88.4469 9.08883 89.3241 9.1078C90.195 9.12255 90.8912 9.84116 90.8765 10.7136L90.8597 11.7462C90.845 12.6102 90.1403 13.3014 89.282 13.3014Z" fill="#FFCF55"/>
<path d="M85.3313 8.16591C85.3229 8.16591 85.3145 8.16591 85.306 8.16591L84.2753 8.14905C83.4044 8.1343 82.7082 7.41569 82.7229 6.54325C82.7376 5.6708 83.4465 4.97327 84.3258 4.98802L85.3565 5.00488C86.2274 5.01963 86.9237 5.73824 86.909 6.61068C86.8942 7.4747 86.1916 8.16591 85.3313 8.16591Z" fill="#FFCF55"/>
<path d="M94.4231 8.31119C94.4147 8.31119 94.4063 8.31119 94.3978 8.31119L93.3671 8.29433C92.4962 8.27958 91.8 7.56097 91.8147 6.68853C91.8294 5.82451 92.532 5.1333 93.3923 5.1333C93.4008 5.1333 93.4092 5.1333 93.4176 5.1333L94.4483 5.15016C95.3192 5.16491 96.0155 5.88352 96.0007 6.75596C95.986 7.61997 95.2834 8.31119 94.4231 8.31119Z" fill="#FFCF55"/>
<path d="M89.1656 61.7536C89.1509 62.7188 88.3579 63.488 87.3944 63.4732C86.431 63.4585 85.6632 62.664 85.6779 61.6988C85.6927 60.7336 86.4857 59.9645 87.4491 59.9792C88.4126 59.994 89.1804 60.7884 89.1656 61.7536Z" fill="#FFCF55"/>
</g>
<defs>
<clipPath id="clip0">
<rect width="96" height="102" fill="white"/>
</clipPath>
</defs>
</svg>
