<svg width="41" height="41" viewBox="0 0 41 41" fill="none" xmlns="http://www.w3.org/2000/svg">
<path d="M35.96 23.4781C35.8658 21.9803 35.3275 20.5732 34.3891 19.383C34.1837 19.1226 33.806 19.0779 33.5456 19.2833C33.2851 19.4887 33.2404 19.8663 33.4458 20.1267C34.3146 21.2285 34.7738 22.5525 34.7738 23.9528C34.7734 23.9644 34.773 23.9759 34.773 23.9876C34.771 24.2941 35.0001 24.5529 35.3045 24.5881C37.656 24.8602 39.4293 26.8497 39.4293 29.2158C39.4293 31.7851 37.3389 33.8755 34.7696 33.8755H23.7832C23.4515 33.8755 23.1826 34.1444 23.1826 34.4761C23.1826 34.8078 23.4515 35.0767 23.7832 35.0767H34.7697C38.0013 35.0767 40.6305 32.4475 40.6305 29.2158C40.6305 26.4157 38.6566 24.0351 35.96 23.4781Z" fill="#FFBA4F"/>
<path d="M20.9815 35.0766C21.3132 35.0766 21.5821 34.8077 21.5821 34.476C21.5821 34.1443 21.3132 33.8754 20.9815 33.8754H18.1175C17.8155 33.8754 17.5604 34.0997 17.5218 34.3992C17.39 35.422 16.5118 36.1933 15.4791 36.1933C14.4464 36.1933 13.5682 35.4221 13.4363 34.3992C13.3977 34.0997 13.1427 33.8754 12.8407 33.8754H9.34619C6.77688 33.8754 4.68652 31.7851 4.68652 29.2158C4.68652 26.9387 6.3222 25.0305 8.50649 24.6332C8.74705 25.1825 9.20806 25.6141 9.77773 25.8139V26.4882C9.77773 27.2951 10.4341 27.9514 11.2409 27.9514H12.5062C13.313 27.9514 13.9694 27.295 13.9694 26.4882V25.8139C14.8146 25.5174 15.4225 24.7121 15.4225 23.767V23.086C15.8887 22.9795 16.238 22.5623 16.238 22.0643V20.2003C16.238 19.8681 16.0823 19.572 15.8404 19.3797C16.1031 18.688 16.5294 18.0717 17.0813 17.594C18.0019 16.7973 18.7157 15.8121 19.1858 14.7207C19.8059 14.9388 20.3975 15.2399 20.9461 15.622C22.1585 16.4663 23.082 17.6374 23.6168 19.0087C23.6875 19.1899 23.8415 19.3256 24.0301 19.373C24.2187 19.4205 24.4187 19.3735 24.5665 19.2472C25.6859 18.291 27.1126 17.7644 28.5839 17.7644C29.5907 17.7644 30.5912 18.0126 31.4774 18.4822C31.7703 18.6374 32.134 18.5258 32.2893 18.2327C32.4446 17.9396 32.3329 17.5761 32.0398 17.4208C30.9811 16.8598 29.7861 16.5634 28.584 16.5634C27.0925 16.5634 25.6393 17.0164 24.4165 17.8518C23.7753 16.5675 22.8239 15.466 21.6327 14.6364C20.9919 14.1902 20.3006 13.8391 19.5762 13.5849C19.7462 12.9341 19.8352 12.2586 19.8352 11.5726C19.8352 9.98094 19.3665 8.44424 18.4799 7.12863C18.2947 6.85364 17.9214 6.78093 17.6462 6.96623C17.3711 7.15161 17.2984 7.52486 17.4838 7.79993C18.2362 8.91646 18.634 10.221 18.634 11.5726C18.634 13.5358 17.7815 15.3997 16.2953 16.6859C15.5613 17.3211 14.9999 18.1463 14.6717 19.0722L14.6435 19.1517H13.5943V13.8819H14.4724C15.6189 13.8819 16.5516 12.9491 16.5516 11.8026C16.5516 10.6562 15.6189 9.7234 14.4724 9.7234C13.3259 9.7234 12.3932 10.6562 12.3932 11.8026V12.6807H11.3539V11.8026C11.3539 10.6562 10.4212 9.7234 9.27468 9.7234C8.1282 9.7234 7.19545 10.6562 7.19545 11.8026C7.19545 12.9491 8.1282 13.8819 9.27468 13.8819H10.1527V19.1517H9.10371L9.07577 19.0728C8.74512 18.1398 8.1901 17.32 7.47084 16.7021C5.95264 15.3979 5.09348 13.5027 5.11366 11.5025C5.15042 7.86455 8.13965 4.86362 11.777 4.81301C13.1711 4.79355 14.5168 5.19563 15.6659 5.97591C15.9402 6.16225 16.3138 6.0909 16.5001 5.81647C16.6865 5.54205 16.6151 5.16856 16.3407 4.98222C14.9868 4.06292 13.4033 3.58814 11.7603 3.612C9.67988 3.64091 7.71932 4.475 6.23964 5.96053C4.76004 7.44598 3.93363 9.40982 3.91257 11.4904C3.88871 13.8458 4.90033 16.0776 6.68816 17.6133C7.22436 18.0739 7.64309 18.6837 7.90687 19.3797C7.66495 19.572 7.5092 19.8681 7.5092 20.2003V22.0643C7.5092 22.5363 7.8231 22.9353 8.2528 23.0663C8.27322 23.1928 8.29548 23.3191 8.32159 23.4446C5.55809 23.9314 3.48535 26.3407 3.48535 29.2158C3.48535 32.4474 6.11456 35.0766 9.34619 35.0766H12.357C12.7657 36.4291 14.0258 37.3945 15.4791 37.3945C16.9326 37.3945 18.1926 36.4291 18.6012 35.0766H20.9815ZM13.5943 11.8025C13.5943 11.3183 13.9882 10.9244 14.4724 10.9244C14.9565 10.9244 15.3504 11.3183 15.3504 11.8025C15.3504 12.2866 14.9565 12.6805 14.4724 12.6805H13.5943V11.8025ZM12.7682 26.4882C12.7682 26.6328 12.6507 26.7503 12.5062 26.7503H11.2409C11.0964 26.7503 10.9789 26.6327 10.9789 26.4882V25.9359H12.7682V26.4882ZM14.2213 23.7669C14.2213 24.3005 13.7872 24.7346 13.2537 24.7346H10.4935C9.95991 24.7346 9.52589 24.3005 9.52589 23.7669V23.1129H14.2214V23.7669H14.2213ZM11.3539 13.8818H12.3932V19.1516H11.3539V13.8818ZM9.27476 12.6806C8.79061 12.6806 8.3967 12.2867 8.3967 11.8026C8.3967 11.3184 8.79061 10.9245 9.27476 10.9245C9.75891 10.9245 10.1528 11.3184 10.1528 11.8026V12.6806H9.27476ZM8.71029 20.3527H15.0369V21.9118H8.71029V20.3527Z" fill="#FFBA4F"/>
<path d="M12.0117 2.45111C12.3434 2.45111 12.6123 2.18221 12.6123 1.85053V0.600586C12.6123 0.268902 12.3434 0 12.0117 0C11.68 0 11.4111 0.268902 11.4111 0.600586V1.85053C11.4111 2.18221 11.68 2.45111 12.0117 2.45111Z" fill="#FFBA4F"/>
<path d="M18.7969 5.37645C18.9505 5.37645 19.1043 5.31783 19.2215 5.20052L20.1053 4.31669C20.3399 4.08215 20.3399 3.70185 20.1053 3.46739C19.8708 3.23284 19.4905 3.23284 19.256 3.46739L18.3722 4.35121C18.1377 4.58576 18.1377 4.96605 18.3722 5.20052C18.4894 5.31783 18.6432 5.37645 18.7969 5.37645Z" fill="#FFBA4F"/>
<path d="M21.5254 12.2424H22.7753C23.107 12.2424 23.3759 11.9735 23.3759 11.6418C23.3759 11.3102 23.107 11.0413 22.7753 11.0413H21.5254C21.1937 11.0413 20.9248 11.3102 20.9248 11.6418C20.9248 11.9735 21.1937 12.2424 21.5254 12.2424Z" fill="#FFBA4F"/>
<path d="M19.4845 19.9109C19.6381 19.9109 19.7919 19.8523 19.9091 19.735C20.1437 19.5005 20.1437 19.1202 19.9091 18.8857L19.0252 18.0019C18.7907 17.7672 18.4104 17.7673 18.1759 18.0019C17.9414 18.2364 17.9414 18.6167 18.1759 18.8512L19.0598 19.735C19.177 19.8523 19.3307 19.9109 19.4845 19.9109Z" fill="#FFBA4F"/>
<path d="M4.06541 19.7145C4.21908 19.7145 4.37283 19.6559 4.49006 19.5386L5.37389 18.6547C5.60844 18.4201 5.60844 18.0398 5.37389 17.8054C5.13934 17.5707 4.75905 17.5708 4.52458 17.8054L3.64076 18.6893C3.40621 18.9238 3.40621 19.3041 3.64076 19.5386C3.75799 19.6559 3.91166 19.7145 4.06541 19.7145Z" fill="#FFBA4F"/>
<path d="M2.22072 10.7635H0.970703C0.63902 10.7635 0.370117 11.0325 0.370117 11.3641C0.370117 11.6958 0.63902 11.9647 0.970703 11.9647H2.22064C2.55233 11.9647 2.82123 11.6958 2.82123 11.3641C2.82123 11.0325 2.55241 10.7635 2.22072 10.7635Z" fill="#FFBA4F"/>
<path d="M4.72184 5.00415C4.83908 5.12147 4.99283 5.18009 5.1465 5.18009C5.30017 5.18009 5.45392 5.12147 5.57115 5.00415C5.8057 4.76961 5.8057 4.38931 5.57115 4.15485L4.68733 3.27094C4.45278 3.03631 4.07249 3.03639 3.83802 3.27094C3.60347 3.50549 3.60347 3.88578 3.83802 4.12025L4.72184 5.00415Z" fill="#FFBA4F"/>
<path d="M30.8449 23.3164H19.1699C18.8382 23.3164 18.5693 23.5853 18.5693 23.917C18.5693 24.2487 18.8382 24.5176 19.1699 24.5176H30.8449C31.1766 24.5176 31.4455 24.2487 31.4455 23.917C31.4455 23.5853 31.1766 23.3164 30.8449 23.3164Z" fill="#FFBA4F"/>
<path d="M31.4455 26.4924C31.4455 26.1607 31.1766 25.8918 30.8449 25.8918H19.1699C18.8382 25.8918 18.5693 26.1607 18.5693 26.4924C18.5693 26.8241 18.8382 27.093 19.1699 27.093H30.8449C31.1766 27.093 31.4455 26.8241 31.4455 26.4924Z" fill="#FFBA4F"/>
<path d="M19.1699 28.4672C18.8382 28.4672 18.5693 28.7361 18.5693 29.0678C18.5693 29.3995 18.8382 29.6684 19.1699 29.6684H24.8357C25.1674 29.6684 25.4363 29.3995 25.4363 29.0678C25.4363 28.7361 25.1674 28.4672 24.8357 28.4672H19.1699Z" fill="#FFBA4F"/>
<path d="M20.5863 36.7942C19.4268 36.7942 18.4834 37.7376 18.4834 38.8971C18.4834 40.0567 19.4268 41 20.5863 41C21.7459 41 22.6892 40.0567 22.6892 38.8971C22.6892 37.7376 21.7459 36.7942 20.5863 36.7942ZM20.5863 39.7988C20.0891 39.7988 19.6846 39.3943 19.6846 38.8971C19.6846 38.3999 20.0891 37.9954 20.5863 37.9954C21.0835 37.9954 21.488 38.3999 21.488 38.8971C21.488 39.3943 21.0835 39.7988 20.5863 39.7988Z" fill="#FFBA4F"/>
</svg>
