<svg width="38" height="39" viewBox="0 0 38 39" fill="none" xmlns="http://www.w3.org/2000/svg">
<path d="M14.25 3.04688C13.8977 3.04688 13.5533 3.15409 13.2604 3.35497C12.9675 3.55585 12.7392 3.84136 12.6043 4.17541C12.4695 4.50945 12.4342 4.87703 12.503 5.23165C12.5717 5.58627 12.7414 5.91201 12.9905 6.16768C13.2396 6.42335 13.557 6.59746 13.9025 6.668C14.248 6.73854 14.6062 6.70233 14.9317 6.56397C15.2571 6.4256 15.5353 6.19129 15.7311 5.89065C15.9268 5.59002 16.0313 5.23657 16.0313 4.875C16.0313 4.39015 15.8436 3.92516 15.5095 3.58232C15.1755 3.23948 14.7224 3.04688 14.25 3.04688ZM14.25 5.48437C14.1326 5.48437 14.0178 5.44864 13.9201 5.38168C13.8225 5.31472 13.7464 5.21955 13.7014 5.1082C13.6565 4.99685 13.6447 4.87432 13.6677 4.75612C13.6906 4.63791 13.7471 4.52933 13.8302 4.44411C13.9132 4.35888 14.019 4.30085 14.1342 4.27733C14.2493 4.25382 14.3687 4.26589 14.4772 4.31201C14.5857 4.35813 14.6784 4.43624 14.7437 4.53645C14.8089 4.63666 14.8438 4.75448 14.8438 4.875C14.8438 5.03662 14.7812 5.19161 14.6698 5.30589C14.5585 5.42017 14.4075 5.48437 14.25 5.48437Z" fill="#FFBA4F"/>
<path d="M6.53125 20.1094H8.90625V21.3281H6.53125V20.1094Z" fill="#FFBA4F"/>
<path d="M10.0938 20.1094H19V21.3281H10.0938V20.1094Z" fill="#FFBA4F"/>
<path d="M6.53125 23.7656H8.90625V24.9844H6.53125V23.7656Z" fill="#FFBA4F"/>
<path d="M6.53125 27.4219H8.90625V28.6406H6.53125V27.4219Z" fill="#FFBA4F"/>
<path d="M6.53125 31.0781H8.90625V32.2969H6.53125V31.0781Z" fill="#FFBA4F"/>
<path d="M36.2187 21.3281H35.625C33.6987 21.3232 31.8251 20.6822 30.2812 19.5L28.8562 18.4031C28.7539 18.3231 28.6287 18.2797 28.5 18.2797C28.3713 18.2797 28.2461 18.3231 28.1437 18.4031L27.3125 19.043V6.70313C27.3111 6.21872 27.123 5.75457 26.7892 5.41205C26.4555 5.06952 26.0032 4.87645 25.5312 4.875H20.6744C20.5511 4.51989 20.3243 4.21238 20.0247 3.99431C19.7251 3.77623 19.3673 3.6582 19 3.65625H17.6106C17.3658 2.94208 16.9111 2.3235 16.3091 1.88592C15.7071 1.44833 14.9877 1.21332 14.25 1.21332C13.5123 1.21332 12.7929 1.44833 12.1909 1.88592C11.5889 2.3235 11.1342 2.94208 10.8894 3.65625H9.5C9.13271 3.6582 8.77492 3.77623 8.47532 3.99431C8.17572 4.21238 7.94887 4.51989 7.82562 4.875H2.96875C2.49677 4.87645 2.04452 5.06952 1.71077 5.41205C1.37703 5.75457 1.18891 6.21872 1.1875 6.70313V35.9531C1.18891 36.4375 1.37703 36.9017 1.71077 37.2442C2.04452 37.5867 2.49677 37.7798 2.96875 37.7813H25.5312C25.8002 37.7795 26.0652 37.7155 26.3068 37.5942C26.5484 37.4729 26.7602 37.2973 26.9266 37.0805L28.2447 37.7203C28.3241 37.7604 28.4115 37.7812 28.5 37.7812C28.5885 37.7812 28.6759 37.7604 28.7553 37.7203L33.9684 35.1792C34.8283 34.7151 35.5479 34.0183 36.0492 33.1643C36.5506 32.3103 36.8145 31.3317 36.8125 30.3347V21.9375C36.8125 21.7759 36.7499 21.6209 36.6386 21.5066C36.5272 21.3923 36.3762 21.3281 36.2187 21.3281ZM20.7812 6.09375H25.5312C25.6887 6.09375 25.8397 6.15796 25.9511 6.27224C26.0624 6.38652 26.125 6.54151 26.125 6.70313V19.9205C25.7451 20.1636 25.3482 20.3775 24.9375 20.5603V7.92188C24.9375 7.76026 24.8749 7.60527 24.7636 7.49099C24.6522 7.37671 24.5012 7.3125 24.3437 7.3125H20.7812V6.09375ZM8.90625 5.48438C8.90625 5.32276 8.9688 5.16777 9.08015 5.05349C9.1915 4.93921 9.34253 4.875 9.5 4.875H11.3406C11.4779 4.87643 11.6112 4.82844 11.7176 4.73937C11.8239 4.65029 11.8964 4.52578 11.9225 4.3875C12.0315 3.83649 12.3228 3.3411 12.747 2.98527C13.1712 2.62944 13.7022 2.43506 14.25 2.43506C14.7978 2.43506 15.3288 2.62944 15.753 2.98527C16.1772 3.3411 16.4685 3.83649 16.5775 4.3875C16.6036 4.52578 16.6761 4.65029 16.7824 4.73937C16.8888 4.82844 17.0221 4.87643 17.1594 4.875H19C19.1575 4.875 19.3085 4.93921 19.4198 5.05349C19.5312 5.16777 19.5937 5.32276 19.5937 5.48438V7.92188H8.90625V5.48438ZM8.3125 9.14063H20.1875C20.345 9.14063 20.496 9.07643 20.6073 8.96215C20.7187 8.84787 20.7812 8.69287 20.7812 8.53125H23.75V20.9869C22.9769 21.2098 22.178 21.3246 21.375 21.3281H20.7812C20.6238 21.3281 20.4728 21.3923 20.3614 21.5066C20.2501 21.6209 20.1875 21.7759 20.1875 21.9375V23.7656H10.0937V24.9844H20.1875V27.4219H10.0937V28.6406H20.1875V30.3347C20.1883 30.5833 20.2042 30.8316 20.235 31.0781H10.0937V32.2969H20.5497C20.8058 32.9774 21.1913 33.5988 21.6837 34.125H4.75V8.53125H7.71875C7.71875 8.69287 7.78131 8.84787 7.89265 8.96215C8.004 9.07643 8.15503 9.14063 8.3125 9.14063ZM25.5312 36.5625H2.96875C2.81128 36.5625 2.66026 36.4983 2.54891 36.384C2.43756 36.2697 2.375 36.1147 2.375 35.9531V6.70313C2.375 6.54151 2.43756 6.38652 2.54891 6.27224C2.66026 6.15796 2.81128 6.09375 2.96875 6.09375H7.71875V7.3125H4.15625C3.99878 7.3125 3.84775 7.37671 3.73641 7.49099C3.62506 7.60527 3.5625 7.76026 3.5625 7.92188V34.7344C3.5625 34.896 3.62506 35.051 3.73641 35.1653C3.84775 35.2796 3.99878 35.3438 4.15625 35.3438H23.37L25.7569 36.5077C25.6859 36.5409 25.6092 36.5595 25.5312 36.5625ZM35.625 30.3347C35.6272 31.1058 35.4243 31.8628 35.0382 32.5243C34.6521 33.1858 34.0975 33.7266 33.4341 34.0884L28.5 36.4955L23.5778 34.0945C22.9122 33.7327 22.3554 33.1914 21.9672 32.5288C21.5791 31.8663 21.3743 31.1077 21.375 30.3347V22.5469C23.5583 22.5425 25.6821 21.816 27.4312 20.475L28.5 19.6523L29.5687 20.475C31.3179 21.816 33.4417 22.5425 35.625 22.5469V30.3347Z" fill="#FFBA4F"/>
<path d="M17.8125 12.7969H16.0312V10.9688C16.0312 10.8071 15.9687 10.6521 15.8573 10.5379C15.746 10.4236 15.595 10.3594 15.4375 10.3594H13.0625C12.905 10.3594 12.754 10.4236 12.6427 10.5379C12.5313 10.6521 12.4688 10.8071 12.4688 10.9688V12.7969H10.6875C10.53 12.7969 10.379 12.8611 10.2677 12.9754C10.1563 13.0896 10.0938 13.2446 10.0938 13.4062V15.8438C10.0938 16.0054 10.1563 16.1604 10.2677 16.2746C10.379 16.3889 10.53 16.4531 10.6875 16.4531H12.4688V18.2812C12.4688 18.4429 12.5313 18.5979 12.6427 18.7121C12.754 18.8264 12.905 18.8906 13.0625 18.8906H15.4375C15.595 18.8906 15.746 18.8264 15.8573 18.7121C15.9687 18.5979 16.0312 18.4429 16.0312 18.2812V16.4531H17.8125C17.97 16.4531 18.121 16.3889 18.2323 16.2746C18.3437 16.1604 18.4062 16.0054 18.4062 15.8438V13.4062C18.4062 13.2446 18.3437 13.0896 18.2323 12.9754C18.121 12.8611 17.97 12.7969 17.8125 12.7969ZM17.2188 15.2344H15.4375C15.28 15.2344 15.129 15.2986 15.0177 15.4129C14.9063 15.5271 14.8438 15.6821 14.8438 15.8438V17.6719H13.6562V15.8438C13.6562 15.6821 13.5937 15.5271 13.4823 15.4129C13.371 15.2986 13.22 15.2344 13.0625 15.2344H11.2812V14.0156H13.0625C13.22 14.0156 13.371 13.9514 13.4823 13.8371C13.5937 13.7229 13.6562 13.5679 13.6562 13.4062V11.5781H14.8438V13.4062C14.8438 13.5679 14.9063 13.7229 15.0177 13.8371C15.129 13.9514 15.28 14.0156 15.4375 14.0156H17.2188V15.2344Z" fill="#FFBA4F"/>
<path d="M33.9328 23.6316C32.0914 23.3446 30.3475 22.5953 28.8562 21.45C28.7539 21.37 28.6287 21.3266 28.5 21.3266C28.3713 21.3266 28.2461 21.37 28.1438 21.45C26.6525 22.5953 24.9086 23.3446 23.0672 23.6316C22.927 23.6544 22.7993 23.7276 22.7069 23.8381C22.6145 23.9486 22.5633 24.0892 22.5625 24.2349V30.3347C22.5627 30.8786 22.7049 31.4124 22.9743 31.8808C23.2437 32.3491 23.6305 32.7348 24.0944 32.9977L24.13 33.016L28.2447 35.0208C28.3241 35.0609 28.4115 35.0817 28.5 35.0817C28.5885 35.0817 28.6759 35.0609 28.7553 35.0208L32.9056 32.9977C33.369 32.7342 33.7554 32.3484 34.0247 31.8802C34.294 31.412 34.4366 30.8784 34.4375 30.3347V24.2349C34.4367 24.0892 34.3855 23.9486 34.2931 23.8381C34.2007 23.7276 34.073 23.6544 33.9328 23.6316ZM33.25 30.3347C33.2517 30.6553 33.17 30.9705 33.0135 31.2479C32.8569 31.5254 32.6311 31.7549 32.3594 31.913L28.5 33.796L24.6525 31.9252C24.3785 31.7657 24.1505 31.5344 23.992 31.255C23.8335 30.9756 23.7499 30.658 23.75 30.3347V24.7467C25.4553 24.4055 27.0729 23.7041 28.5 22.6871C29.9271 23.7041 31.5447 24.4055 33.25 24.7467V30.3347Z" fill="#FFBA4F"/>
<path d="M25.9509 28.8192L25.1113 29.6808L26.8926 31.509C27.0039 31.6232 27.1549 31.6874 27.3124 31.6874C27.4698 31.6874 27.6208 31.6232 27.7321 31.509L32.4821 26.634L31.6426 25.7723L27.3124 30.2165L25.9509 28.8192Z" fill="#FFBA4F"/>
</svg>
