<svg width="109" height="86" viewBox="0 0 109 86" fill="none" xmlns="http://www.w3.org/2000/svg">
<path d="M17.0097 18.7012C11.8661 18.7012 7.68164 14.5071 7.68164 9.35169C7.68164 4.19411 11.8661 0 17.0097 0C22.1532 0 26.3377 4.1941 26.3377 9.3495C26.3377 14.5071 22.1532 18.7012 17.0097 18.7012ZM17.0097 3.29208C13.677 3.29208 10.9662 6.00914 10.9662 9.3495C10.9662 12.6899 13.677 15.4069 17.0097 15.4069C20.3424 15.4069 23.0532 12.6899 23.0532 9.3495C23.0532 6.00914 20.3424 3.29208 17.0097 3.29208Z" fill="#FFCF55"/>
<path d="M5.29026 55.8489H5.06254C2.2707 55.8489 0 53.4962 0 50.6058V37.5648C0 35.7673 0.186123 33.9676 0.553989 32.2118L2.48529 21.686C2.48747 21.6728 2.48966 21.6574 2.49404 21.6443C2.92103 19.612 4.36622 17.9352 6.26467 17.2636L13.1052 14.8494C13.9614 14.5466 14.8986 14.9987 15.1986 15.8546C15.5007 16.7127 15.0497 17.6521 14.1957 17.9528L7.35513 20.3669C6.53838 20.6545 5.90994 21.3963 5.71287 22.3027L3.78157 32.8264C3.77939 32.8395 3.7772 32.8549 3.77282 32.8681C3.44874 34.4066 3.28452 35.9868 3.28452 37.5648V50.6058C3.28452 51.6812 4.08156 52.5569 5.06254 52.5569H5.29026C6.27124 52.5569 7.06828 51.6812 7.06828 50.6058V45.9222C7.06828 45.0136 7.80401 44.2762 8.71054 44.2762C9.61707 44.2762 10.3528 45.0136 10.3528 45.9222V50.6058C10.3528 53.4962 8.0821 55.8489 5.29026 55.8489Z" fill="#FFCF55"/>
<path d="M28.6765 55.8489C25.8847 55.8489 23.614 53.4962 23.614 50.6058V45.9222C23.614 45.0136 24.3497 44.2762 25.2562 44.2762C26.1628 44.2762 26.8985 45.0136 26.8985 45.9222V50.6058C26.8985 51.6812 27.6955 52.5569 28.6765 52.5569C29.6575 52.5569 30.4545 51.6812 30.4545 50.6058V37.5647C30.4545 35.9889 30.2903 34.4087 29.9662 32.8702C29.964 32.8571 29.9597 32.8417 29.9575 32.8285L28.0262 22.3049C27.8291 21.3985 27.2007 20.6588 26.3839 20.3691L19.5434 17.9549C18.6872 17.6521 18.2383 16.7127 18.5405 15.8568C18.8427 14.9987 19.7798 14.5487 20.6338 14.8516L27.4744 17.2658C29.3728 17.9352 30.8158 19.6141 31.245 21.6465C31.2472 21.6596 31.2516 21.675 31.2538 21.6882L33.185 32.214C33.5529 33.9698 33.739 35.7717 33.739 37.5669V50.6079C33.739 53.4962 31.4683 55.8489 28.6765 55.8489Z" fill="#FFCF55"/>
<path d="M8.71062 86C7.80409 86 7.06836 85.2626 7.06836 84.354V28.4743C7.06836 27.5657 7.80409 26.8282 8.71062 26.8282C9.61715 26.8282 10.3529 27.5657 10.3529 28.4743V84.354C10.3529 85.2626 9.61715 86 8.71062 86Z" fill="#FFCF55"/>
<path d="M25.2555 86C24.349 86 23.6133 85.2626 23.6133 84.354V28.4743C23.6133 27.5657 24.349 26.8282 25.2555 26.8282C26.1621 26.8282 26.8978 27.5657 26.8978 28.4743V84.354C26.8978 85.2626 26.1621 86 25.2555 86Z" fill="#FFCF55"/>
<path d="M16.983 86C16.0808 86 15.3473 85.2714 15.3407 84.365L15.0889 49.4053C15.0823 48.4967 15.8115 47.7549 16.7202 47.7483C16.7246 47.7483 16.729 47.7483 16.7312 47.7483C17.6333 47.7483 18.3669 48.4769 18.3734 49.3834L18.6252 84.343C18.6318 85.2516 17.9026 85.9935 16.9939 86C16.9917 86 16.9874 86 16.983 86Z" fill="#FFCF55"/>
<path d="M92.2714 18.7012C87.1278 18.7012 82.9434 14.5071 82.9434 9.35169C82.9434 4.1963 87.1278 0.00219727 92.2714 0.00219727C97.4149 0.00219727 101.602 4.19411 101.602 9.3495C101.602 14.5071 97.4149 18.7012 92.2714 18.7012ZM92.2714 3.29208C88.9387 3.29208 86.2279 6.00914 86.2279 9.3495C86.2279 12.6899 88.9387 15.4069 92.2714 15.4069C95.6041 15.4069 98.3171 12.6921 98.3171 9.3495C98.3171 6.00694 95.6041 3.29208 92.2714 3.29208Z" fill="#FFCF55"/>
<path d="M80.552 55.8489H80.3243C77.5324 55.8489 75.2617 53.4962 75.2617 50.6058V37.5647C75.2617 35.7673 75.4478 33.9654 75.8157 32.2118L77.747 21.686C77.7492 21.6728 77.7514 21.6574 77.7558 21.6443C78.1828 19.612 79.6279 17.933 81.5264 17.2636L88.367 14.8494C89.2231 14.5487 90.1603 14.9987 90.4603 15.8546C90.7625 16.7127 90.3114 17.6521 89.4574 17.9527L82.6169 20.3669C81.8001 20.6544 81.1717 21.3963 80.9746 22.3027L79.0433 32.8264C79.0411 32.8395 79.0389 32.8549 79.0345 32.868C78.7105 34.4065 78.5462 35.9867 78.5462 37.5625V50.6036C78.5462 51.679 79.3433 52.5547 80.3243 52.5547H80.552C81.533 52.5547 82.33 51.679 82.33 50.6036V45.92C82.33 45.0114 83.0657 44.274 83.9723 44.274C84.8788 44.274 85.6145 45.0114 85.6145 45.92V50.6036C85.6145 53.4962 83.3438 55.8489 80.552 55.8489Z" fill="#FFCF55"/>
<path d="M103.938 55.8489C101.146 55.8489 98.8757 53.4962 98.8757 50.6058V45.9222C98.8757 45.0136 99.6114 44.2762 100.518 44.2762C101.424 44.2762 102.16 45.0136 102.16 45.9222V50.6058C102.16 51.6812 102.957 52.5569 103.938 52.5569C104.919 52.5569 105.716 51.6812 105.716 50.6058V37.5647C105.716 35.9889 105.552 34.4087 105.228 32.8702C105.226 32.8571 105.221 32.8417 105.219 32.8285L103.288 22.3049C103.091 21.3985 102.462 20.6588 101.646 20.3691L94.8051 17.9549C93.9489 17.6521 93.5 16.7127 93.8022 15.8568C94.1044 14.9987 95.0416 14.5487 95.8955 14.8516L102.736 17.2658C104.635 17.9352 106.078 19.6141 106.507 21.6465C106.509 21.6596 106.513 21.675 106.515 21.6882L108.447 32.214C108.815 33.9698 109.001 35.7717 109.001 37.5669V50.6079C109.001 53.4962 106.73 55.8489 103.938 55.8489Z" fill="#FFCF55"/>
<path d="M83.9723 86C83.0658 86 82.3301 85.2626 82.3301 84.354V28.4743C82.3301 27.5657 83.0658 26.8282 83.9723 26.8282C84.8789 26.8282 85.6146 27.5657 85.6146 28.4743V84.354C85.6146 85.2626 84.8789 86 83.9723 86Z" fill="#FFCF55"/>
<path d="M100.517 86C99.6107 86 98.875 85.2626 98.875 84.354V28.4743C98.875 27.5657 99.6107 26.8282 100.517 26.8282C101.424 26.8282 102.16 27.5657 102.16 28.4743V84.354C102.16 85.2626 101.424 86 100.517 86Z" fill="#FFCF55"/>
<path d="M92.2447 86C91.3426 86 90.609 85.2714 90.6024 84.365L90.3506 49.4053C90.3441 48.4967 91.0732 47.7549 91.9819 47.7483C91.9863 47.7483 91.9907 47.7483 91.9929 47.7483C92.895 47.7483 93.6286 48.4769 93.6352 49.3834L93.887 84.343C93.8935 85.2516 93.1644 85.9935 92.2557 86C92.2535 86 92.2491 86 92.2447 86Z" fill="#FFCF55"/>
<path d="M47.4503 45.8784H42.9111C39.4514 45.8784 36.6377 42.9485 36.6377 39.3492V39.3031C36.6377 35.7016 39.4514 32.7738 42.9111 32.7738H47.4503C48.3328 32.7738 49.1846 32.9604 49.986 33.3291C50.8093 33.7088 51.1728 34.6854 50.794 35.5128C50.4152 36.338 49.4407 36.7001 48.6174 36.3227C48.2496 36.1537 47.8576 36.0681 47.4525 36.0681H42.9133C41.2645 36.0681 39.9244 37.521 39.9244 39.3053V39.3514C39.9244 41.1379 41.2645 42.5886 42.9133 42.5886H47.4525C49.1561 42.5886 50.4414 41.2981 50.4414 39.5862C50.4414 38.6776 51.1772 37.9402 52.0837 37.9402C52.9902 37.9402 53.7259 38.6776 53.7259 39.5862C53.7238 43.1153 50.9691 45.8784 47.4503 45.8784Z" fill="#FFCF55"/>
<path d="M66.0888 45.8784H61.5496C60.7438 45.8784 59.9577 45.7204 59.2154 45.411C58.3789 45.062 57.9826 44.0985 58.3307 43.258C58.6789 42.4196 59.6424 42.0223 60.4788 42.3713C60.8204 42.5139 61.1795 42.5864 61.5517 42.5864H66.0909C67.7398 42.5864 69.0799 41.1335 69.0799 39.3492V39.3031C69.0799 37.5166 67.7398 36.0659 66.0909 36.0659H61.5517C59.8482 36.0659 58.5628 37.3564 58.5628 39.0682C58.5628 39.9769 57.8271 40.7143 56.9206 40.7143C56.0141 40.7143 55.2783 39.9769 55.2783 39.0682C55.2783 35.5391 58.0351 32.7738 61.5517 32.7738H66.0909C69.5506 32.7738 72.3644 35.7037 72.3644 39.3031V39.3492C72.3622 42.9485 69.5484 45.8784 66.0888 45.8784Z" fill="#FFCF55"/>
<path d="M59.9749 40.971H49.0221C48.1156 40.971 47.3799 40.2336 47.3799 39.325C47.3799 38.4164 48.1156 37.679 49.0221 37.679H59.9749C60.8814 37.679 61.6172 38.4164 61.6172 39.325C61.6172 40.2336 60.8836 40.971 59.9749 40.971Z" fill="#FFCF55"/>
<path d="M55.1427 77.8839C54.2362 77.8839 53.5005 77.1465 53.5005 76.2379L53.4961 65.7647C53.4961 64.8561 54.2296 64.1187 55.1384 64.1187C56.0449 64.1187 56.7806 64.8561 56.7806 65.7647L56.785 76.2379C56.785 77.1443 56.0493 77.8817 55.1427 77.8839Z" fill="#FFCF55"/>
<path d="M37.1103 73.5472C36.8257 73.5472 36.5366 73.4725 36.2717 73.3145C35.4921 72.8492 35.236 71.8397 35.7002 71.0583L40.7934 62.477C41.2576 61.6957 42.2648 61.4389 43.0443 61.9042C43.8239 62.3695 44.0801 63.379 43.6159 64.1604L38.5227 72.7417C38.2161 73.2596 37.6687 73.5472 37.1103 73.5472Z" fill="#FFCF55"/>
<path d="M72.1325 73.5472C71.5719 73.5472 71.0267 73.2596 70.7201 72.7417L65.6269 64.1604C65.1627 63.379 65.4189 62.3695 66.1984 61.9042C66.978 61.4389 67.9852 61.6957 68.4494 62.477L73.5426 71.0583C74.0068 71.8397 73.7506 72.8492 72.9711 73.3145C72.7083 73.4725 72.4193 73.5472 72.1325 73.5472Z" fill="#FFCF55"/>
<path d="M55.1354 14.5313C54.2267 14.5313 53.4932 13.7938 53.4932 12.8852L53.4975 2.41203C53.4975 1.50342 54.2333 0.765991 55.1398 0.765991C56.0463 0.765991 56.7821 1.50342 56.7821 2.41203L56.7777 12.8852C56.7777 13.796 56.042 14.5313 55.1354 14.5313Z" fill="#FFCF55"/>
<path d="M42.2057 16.9761C41.6451 16.9761 41.0999 16.6886 40.7934 16.1707L35.7002 7.58931C35.236 6.80799 35.4921 5.79842 36.2717 5.33314C37.0512 4.86786 38.0584 5.12465 38.5227 5.90597L43.6159 14.4873C44.0801 15.2686 43.8239 16.2782 43.0443 16.7435C42.7816 16.9015 42.4925 16.9761 42.2057 16.9761Z" fill="#FFCF55"/>
<path d="M67.0371 16.9761C66.7524 16.9761 66.4634 16.9015 66.1984 16.7435C65.4189 16.2782 65.1627 15.2686 65.6269 14.4873L70.7201 5.90597C71.1843 5.12465 72.1916 4.86786 72.9711 5.33314C73.7506 5.79842 74.0068 6.80799 73.5426 7.58931L68.4494 16.1707C68.1429 16.6908 67.5976 16.9761 67.0371 16.9761Z" fill="#FFCF55"/>
</svg>
