<svg width="273" height="29" viewBox="0 0 273 29" fill="none" xmlns="http://www.w3.org/2000/svg">
<path d="M24.4098 24.142L5.70157 1.24666L5.58637 1.11917C4.64626 0.16771 3.24669 -0.114104 2.02057 0.399871C0.793135 0.915188 0 2.1176 0 3.46493V28.6014H3.62538V4.46739L22.4421 27.4916C23.3452 28.494 24.7342 28.8282 25.9815 28.3357C27.2288 27.8445 28.0365 26.6515 28.0365 25.2961V0.143555H24.4111V24.142H24.4098Z" fill="url(#paint0_linear)"/>
<path d="M32.0732 2.81839V25.9996C32.0732 27.4342 33.2729 28.6017 34.7466 28.6017H60.1097V24.9274H35.6986V16.2475H46.0915V12.5718H35.6986V3.89063H60.1097V0.216309H34.7466C33.2716 0.216309 32.0732 1.38382 32.0732 2.81839Z" fill="url(#paint1_linear)"/>
<path d="M88.5572 24.1727L80.7914 13.9039C80.181 13.0598 79.1972 12.5552 78.1631 12.5552H78.1617C77.1276 12.5552 76.1438 13.0625 75.5586 13.8757L67.7728 24.1727V0.183594H64.1475V25.2932C64.1475 26.6325 64.9366 27.8309 66.1574 28.3422C67.3769 28.8561 68.7725 28.5743 69.706 27.6282L78.1617 16.4698L86.4652 27.4484L86.6227 27.6296C87.2464 28.263 88.0753 28.5985 88.9214 28.5985C89.3424 28.5985 89.7675 28.5153 90.1713 28.3449C91.3921 27.8322 92.1813 26.6352 92.1813 25.2959V0.183594H88.5572V24.1727Z" fill="url(#paint2_linear)"/>
<path d="M134.64 12.5606H122.413C120.046 12.5606 118.121 10.608 118.121 8.20992C118.121 5.81182 120.047 3.85925 122.413 3.85925H129.848V0.183594H122.413C118.046 0.183594 114.495 3.78276 114.495 8.20992C114.495 12.6371 118.046 16.2362 122.413 16.2362H134.64C137.007 16.2362 138.933 18.1861 138.933 20.5856C138.933 22.985 137.006 24.9363 134.64 24.9363H126.875V28.6106H134.64C139.007 28.6106 142.559 25.0114 142.559 20.5856C142.559 16.1598 139.006 12.5606 134.64 12.5606Z" fill="url(#paint3_linear)"/>
<path d="M161.06 0C161.057 0 161.054 0 161.05 0C159.807 0.00268394 158.694 0.705877 158.119 1.88681L146.604 27.4675L149.904 28.9933L155.746 16.0111H166.459L172.398 28.9987L175.687 27.4527L163.963 1.81971C163.411 0.695141 162.299 0 161.06 0ZM157.401 12.3367L161.062 4.20171L164.783 12.3367H157.401Z" fill="url(#paint4_linear)"/>
<path d="M204.142 24.142L185.433 1.24666L185.318 1.11917C184.378 0.16771 182.978 -0.114104 181.752 0.399871C180.525 0.915188 179.731 2.1176 179.731 3.46493V28.6014H183.357V4.46739L202.174 27.4916C203.077 28.494 204.466 28.8282 205.713 28.3357C206.96 27.8445 207.768 26.6515 207.768 25.2961V0.143555H204.142V24.142Z" fill="url(#paint5_linear)"/>
<path d="M231.951 12.5606H219.724C217.356 12.5606 215.431 10.608 215.431 8.20992C215.431 5.81182 217.358 3.85925 219.724 3.85925H227.159V0.183594H219.724C215.357 0.183594 211.806 3.78276 211.806 8.20992C211.806 12.6371 215.357 16.2362 219.724 16.2362H231.951C234.318 16.2362 236.243 18.1861 236.243 20.5856C236.243 22.985 234.317 24.9363 231.951 24.9363H224.186V28.6106H231.951C236.317 28.6106 239.87 25.0114 239.87 20.5856C239.87 16.1598 236.316 12.5606 231.951 12.5606Z" fill="url(#paint6_linear)"/>
<path d="M261.278 1.81971C260.722 0.695141 259.61 0 258.37 0C258.368 0 258.365 0 258.361 0C257.118 0.00268394 256.004 0.705877 255.429 1.88681L243.915 27.4675L247.215 28.9933L253.057 16.0111H263.77L269.708 28.9987L272.998 27.4527L261.278 1.81971ZM254.712 12.3367L258.373 4.20171L262.094 12.3367H254.712Z" fill="url(#paint7_linear)"/>
<defs>
<linearGradient id="paint0_linear" x1="14.0182" y1="0.143555" x2="14.0182" y2="28.6014" gradientUnits="userSpaceOnUse">
<stop stop-color="#FFBD14"/>
<stop offset="0.526042" stop-color="#FFCF55"/>
<stop offset="1" stop-color="#FFC329"/>
</linearGradient>
<linearGradient id="paint1_linear" x1="46.0915" y1="0.216309" x2="46.0915" y2="28.6017" gradientUnits="userSpaceOnUse">
<stop stop-color="#FFBD14"/>
<stop offset="0.526042" stop-color="#FFCF55"/>
<stop offset="1" stop-color="#FFC329"/>
</linearGradient>
<linearGradient id="paint2_linear" x1="78.1644" y1="0.183594" x2="78.1644" y2="28.5985" gradientUnits="userSpaceOnUse">
<stop stop-color="#FFBD14"/>
<stop offset="0.526042" stop-color="#FFCF55"/>
<stop offset="1" stop-color="#FFC329"/>
</linearGradient>
<linearGradient id="paint3_linear" x1="128.527" y1="0.183594" x2="128.527" y2="28.6106" gradientUnits="userSpaceOnUse">
<stop stop-color="#FFBD14"/>
<stop offset="0.526042" stop-color="#FFCF55"/>
<stop offset="1" stop-color="#FFC329"/>
</linearGradient>
<linearGradient id="paint4_linear" x1="161.146" y1="0" x2="161.146" y2="28.9987" gradientUnits="userSpaceOnUse">
<stop stop-color="#FFBD14"/>
<stop offset="0.526042" stop-color="#FFCF55"/>
<stop offset="1" stop-color="#FFC329"/>
</linearGradient>
<linearGradient id="paint5_linear" x1="193.75" y1="0.143555" x2="193.75" y2="28.6014" gradientUnits="userSpaceOnUse">
<stop stop-color="#FFBD14"/>
<stop offset="0.526042" stop-color="#FFCF55"/>
<stop offset="1" stop-color="#FFC329"/>
</linearGradient>
<linearGradient id="paint6_linear" x1="225.838" y1="0.183594" x2="225.838" y2="28.6106" gradientUnits="userSpaceOnUse">
<stop stop-color="#FFBD14"/>
<stop offset="0.526042" stop-color="#FFCF55"/>
<stop offset="1" stop-color="#FFC329"/>
</linearGradient>
<linearGradient id="paint7_linear" x1="258.456" y1="0" x2="258.456" y2="28.9987" gradientUnits="userSpaceOnUse">
<stop stop-color="#FFBD14"/>
<stop offset="0.526042" stop-color="#FFCF55"/>
<stop offset="1" stop-color="#FFC329"/>
</linearGradient>
</defs>
</svg>
