<svg width="41" height="41" viewBox="0 0 41 41" fill="none" xmlns="http://www.w3.org/2000/svg">
<g clip-path="url(#clip0)">
<path d="M40.302 19.3407C37.8451 19.2548 35.4412 19.6159 33.1825 20.3877C33.1376 17.9753 32.6529 15.6104 31.7369 13.3433C31.5872 12.9731 31.1663 12.7942 30.7954 12.9437C29.3645 13.5218 28.0245 14.2519 26.7856 15.1249C25.2984 12.1917 23.3593 9.51865 21.0105 7.17068C20.728 6.88832 20.2702 6.88832 19.9879 7.17076C17.6381 9.52065 15.6991 12.1933 14.213 15.1238C12.9749 14.2513 11.6354 13.5215 10.205 12.9437C9.83444 12.7941 9.41323 12.973 9.26357 13.3433C8.34595 15.6141 7.86108 17.9829 7.81744 20.3993C5.58958 19.6337 3.18876 19.2539 0.697929 19.3407C0.29874 19.3547 -0.0134848 19.6895 0.000448795 20.0886C0.374173 30.7899 9.19806 39.2406 19.8237 39.2406C20.048 39.2406 20.2742 39.2365 20.5 39.2291C20.7264 39.2367 20.9516 39.2406 21.1765 39.2406C31.8012 39.2406 40.626 30.7893 40.9996 20.0886C41.0134 19.6895 40.7012 19.3546 40.302 19.3407ZM10.3415 14.5743C12.3792 15.4916 14.2053 16.7512 15.7781 18.3258C17.4666 20.0134 18.7909 21.9856 19.7198 24.1902C19.1001 25.791 18.6936 27.4457 18.504 29.1336C16.3723 25.5139 13.1278 22.6374 9.26148 20.9593C9.23778 18.7791 9.60021 16.6366 10.3415 14.5743ZM1.48622 20.7748C6.12699 20.7947 10.5244 22.5343 13.9379 25.7176C17.3516 28.9009 19.3938 33.1656 19.7371 37.7942C10.1704 37.7492 2.19835 30.3152 1.48622 20.7748ZM16.8008 17.3032C16.3474 16.8492 15.8739 16.4202 15.3823 16.0153C16.7069 13.3442 18.4247 10.8941 20.4994 8.71723C22.573 10.8926 24.2906 13.3429 25.6162 16.0164C25.1251 16.4209 24.6521 16.8494 24.1989 17.3029C22.6908 18.8102 21.4515 20.5294 20.4999 22.4277C19.5491 20.5304 18.3098 18.8112 16.8008 17.3032ZM20.4971 33.8097C20.3091 33.1399 20.0871 32.4849 19.8328 31.8464C19.828 31.692 19.8256 31.5287 19.8256 31.3496C19.8256 28.9796 20.2781 26.6589 21.1702 24.4519C22.1047 22.1394 23.4677 20.0783 25.2217 18.3255C26.7952 16.751 28.6216 15.4914 30.6591 14.5743C31.3986 16.6322 31.7609 18.7698 31.7389 20.945C29.6792 21.836 27.7658 23.0837 26.0759 24.6597C23.3707 27.1822 21.4652 30.335 20.4971 33.8097ZM21.2629 37.7941C21.6062 33.1656 23.6482 28.9009 27.0621 25.7175C30.4759 22.534 34.8726 20.7944 39.5138 20.7748C38.8015 30.3157 30.8304 37.75 21.2629 37.7941Z" fill="#FFBA4F"/>
<path d="M1.12846 17.2278C1.52786 17.2278 1.85164 16.904 1.85164 16.5046C1.85164 16.1052 1.52786 15.7814 1.12846 15.7814C0.729055 15.7814 0.405273 16.1052 0.405273 16.5046C0.405273 16.904 0.729055 17.2278 1.12846 17.2278Z" fill="#FFBA4F"/>
<path d="M9.93412 9.19872C10.3335 9.19872 10.6573 8.87494 10.6573 8.47554C10.6573 8.07613 10.3335 7.75235 9.93412 7.75235C9.53472 7.75235 9.21094 8.07613 9.21094 8.47554C9.21094 8.87494 9.53472 9.19872 9.93412 9.19872Z" fill="#FFBA4F"/>
<path d="M20.4996 3.20577C20.899 3.20577 21.2227 2.88199 21.2227 2.48259C21.2227 2.08318 20.899 1.7594 20.4996 1.7594C20.1001 1.7594 19.7764 2.08318 19.7764 2.48259C19.7764 2.88199 20.1001 3.20577 20.4996 3.20577Z" fill="#FFBA4F"/>
<path d="M31.066 9.19872C31.4654 9.19872 31.7891 8.87494 31.7891 8.47554C31.7891 8.07613 31.4654 7.75235 31.066 7.75235C30.6666 7.75235 30.3428 8.07613 30.3428 8.47554C30.3428 8.87494 30.6666 9.19872 31.066 9.19872Z" fill="#FFBA4F"/>
<path d="M39.8706 17.2278C40.2701 17.2278 40.5938 16.904 40.5938 16.5046C40.5938 16.1052 40.2701 15.7814 39.8706 15.7814C39.4712 15.7814 39.1475 16.1052 39.1475 16.5046C39.1475 16.904 39.4712 17.2278 39.8706 17.2278Z" fill="#FFBA4F"/>
</g>
<defs>
<clipPath id="clip0">
<rect width="41" height="41" fill="white"/>
</clipPath>
</defs>
</svg>
