<svg width="38" height="39" viewBox="0 0 38 39" fill="none" xmlns="http://www.w3.org/2000/svg">
<g clip-path="url(#clip0)">
<path d="M14.43 6.39276C13.3655 6.39276 12.3835 6.88634 11.7332 7.70401C11.0829 6.88634 10.1009 6.39276 9.03641 6.39276C8.70654 6.39276 8.38298 6.43462 8.07455 6.5172C7.77806 6.59651 7.60045 6.9075 7.6778 7.2118C7.75507 7.51602 8.05809 7.69883 8.35458 7.61899C8.57172 7.56084 8.8011 7.53147 9.03648 7.53147C9.99203 7.53147 10.8501 8.11509 11.2223 9.01853C11.3092 9.22913 11.5104 9.36606 11.7332 9.36606C11.9561 9.36606 12.1574 9.22913 12.2441 9.01853C12.6164 8.11516 13.4745 7.53147 14.4301 7.53147C15.5807 7.53147 16.5282 8.25551 16.9028 9.42124C17.938 12.642 14.5297 14.959 11.7332 16.4507C8.93666 14.9589 5.52849 12.6421 6.56354 9.42124C6.61353 9.26574 6.67449 9.1155 6.74479 8.97469C6.88451 8.69483 6.7766 8.35172 6.50399 8.2084C6.23138 8.06493 5.89707 8.17567 5.75735 8.45554C5.66102 8.64848 5.57781 8.85337 5.50995 9.0645C4.90377 10.9505 5.39612 12.7574 6.97328 14.4349C8.30689 15.8534 10.1847 16.9196 11.4812 17.5983C11.5604 17.6397 11.6467 17.6604 11.7332 17.6604C11.8196 17.6604 11.906 17.6397 11.9852 17.5983C13.2816 16.9197 15.1593 15.8534 16.4931 14.4349C18.0703 12.7574 18.5626 10.9505 17.9565 9.0645C17.4268 7.41646 16.0755 6.39276 14.43 6.39276Z" fill="#FFBA4F"/>
<path d="M26.2675 12.9609C26.2673 12.9609 26.2676 12.9609 26.2674 12.9609C25.2814 12.9609 24.314 13.0856 23.3818 13.3273C23.4371 12.8093 23.4606 12.2848 23.4491 11.7557C23.3811 8.5974 22.1302 5.63994 19.9271 3.42829C17.7243 1.2171 14.8151 0 11.7338 0H11.7168C8.56946 0.00456669 5.61218 1.28438 3.38991 3.6038C1.16644 5.92452 -0.0313885 8.98268 0.0170379 12.2151C0.0688016 15.6701 1.57024 18.9378 4.13685 21.1829C4.14945 22.2837 4.13217 23.53 4.0856 24.8878C4.07151 25.2992 4.27849 25.683 4.62571 25.8894C4.79405 25.9894 4.98108 26.0393 5.16797 26.0393C5.36582 26.0393 5.56346 25.9834 5.73818 25.872C6.4869 25.3946 7.57401 24.6121 8.50947 23.5914C9.55468 23.8978 10.6393 24.0532 11.7334 24.0532H11.7446C12.7261 24.0523 13.6892 23.9257 14.6179 23.6817C14.5727 24.1125 14.5491 24.5482 14.5491 24.9875C14.5491 31.6189 19.8058 37.0141 26.2672 37.0141C27.3617 37.0141 28.4464 36.8587 29.4915 36.5523C30.4268 37.5727 31.514 38.3553 32.2628 38.8329C32.4375 38.9444 32.6351 39.0002 32.833 39.0002C33.0199 39.0002 33.207 38.9504 33.3754 38.8503C33.7226 38.6438 33.9295 38.26 33.9153 37.8487C33.8688 36.4892 33.8516 35.2428 33.8642 34.1438C34.697 33.4154 35.426 32.5727 36.0313 31.6389C36.2009 31.3771 36.1317 31.0237 35.8766 30.8495C35.6215 30.6753 35.2771 30.7465 35.1075 31.0083C34.5583 31.8556 33.8964 32.6203 33.1401 33.2811C32.899 33.4919 32.7587 33.7966 32.7551 34.1169C32.7421 35.223 32.7589 36.4745 32.8049 37.8379C32.1115 37.3922 31.1272 36.6778 30.2896 35.761C30.0105 35.4554 29.5943 35.3371 29.2028 35.4527C28.252 35.7332 27.2644 35.8755 26.2674 35.8755C20.4178 35.8755 15.6588 30.9912 15.6588 24.9876C15.6588 22.0822 16.7631 19.3488 18.7682 17.2909C20.7734 15.233 23.4367 14.0997 26.2676 14.0997C32.1172 14.0998 36.8762 18.984 36.8762 24.9876C36.8762 26.2758 36.6592 27.5365 36.2312 28.7346C36.1257 29.0298 36.2735 29.3569 36.5611 29.4651C36.8487 29.5734 37.1674 29.4217 37.2729 29.1265C37.7458 27.8025 37.9857 26.41 37.9857 24.9876C37.9855 18.356 32.7288 12.961 26.2675 12.9609ZM22.2151 13.6984C20.6444 14.2922 19.2035 15.2336 17.9835 16.4855C16.3663 18.1452 15.2805 20.2032 14.8119 22.4423C13.8286 22.7519 12.7977 22.9134 11.7437 22.9144H11.7336C10.7372 22.9144 9.74994 22.7723 8.79936 22.4919C8.40742 22.3763 7.99079 22.4943 7.7115 22.7998C6.87372 23.717 5.88954 24.4311 5.19615 24.8767C5.24213 23.5173 5.25896 22.2672 5.24613 21.1599C5.24227 20.8364 5.10367 20.5318 4.86591 20.3244C2.53633 18.2914 1.17334 15.3294 1.1264 12.1976C1.08257 9.27236 2.16738 6.50388 4.18097 4.40229C6.19338 2.30184 8.87025 1.14289 11.7184 1.13878H11.7337C14.5234 1.13878 17.157 2.24065 19.1512 4.24238C21.1458 6.24465 22.2782 8.92187 22.3399 11.7809C22.3538 12.4291 22.3113 13.07 22.2151 13.6984Z" fill="#FFBA4F"/>
<path d="M28.9632 19.3536C27.8987 19.3536 26.9167 19.8472 26.2664 20.6649C25.6161 19.8473 24.6341 19.3536 23.5696 19.3536C23.5695 19.3536 23.5695 19.3536 23.5695 19.3536C21.924 19.3536 20.5728 20.3774 20.0432 22.0254C19.437 23.9113 19.9293 25.7182 21.5065 27.3957C22.8401 28.8143 24.7179 29.8805 26.0144 30.5592C26.0936 30.6006 26.18 30.6213 26.2664 30.6213C26.3528 30.6213 26.4392 30.6005 26.5184 30.5592C27.8148 29.8805 29.6925 28.8143 31.0263 27.3957C32.6035 25.7182 33.0958 23.9113 32.4896 22.0254C31.96 20.3773 30.6087 19.3536 28.9632 19.3536ZM26.2664 29.4115C23.4699 27.9198 20.0616 25.603 21.0968 22.3821C21.4714 21.2165 22.4189 20.4923 23.5696 20.4923C24.5252 20.4923 25.3832 21.076 25.7555 21.9794C25.8423 22.19 26.0434 22.3269 26.2664 22.3269C26.4893 22.3269 26.6905 22.19 26.7772 21.9794C27.1495 21.0761 28.0076 20.4923 28.9632 20.4923C30.1139 20.4923 31.0613 21.2164 31.436 22.3821H31.436C32.4712 25.6029 29.0629 27.9198 26.2664 29.4115Z" fill="#FFBA4F"/>
</g>
<defs>
<clipPath id="clip0">
<rect width="38" height="39" fill="white"/>
</clipPath>
</defs>
</svg>
