<svg width="35" height="35" viewBox="0 0 35 35" fill="none" xmlns="http://www.w3.org/2000/svg">
<path fill-rule="evenodd" clip-rule="evenodd" d="M33.25 0C32.2 0 30.975 0.525 30.275 1.225L25.2 6.3C24.85 6.65 24.15 6.825 23.625 6.825L3.5 1.75L1.75 3.5C1.05 4.2 1.05 5.25 1.75 5.95C1.925 6.125 2.1 6.125 2.275 6.3L17.5 14L10.5 21H2.8C2.1 21 1.575 21.35 1.225 22.05L0 24.5L7 28L10.5 35L12.95 33.775C13.65 33.425 14 32.9 14 32.2V24.5L21 17.5L28.7 32.9C29.05 33.775 30.1 34.125 30.975 33.6C31.15 33.6 31.325 33.425 31.5 33.25L33.25 31.5L28.175 11.375C28 10.85 28.175 10.15 28.7 9.8L33.775 4.725C34.475 4.025 35 2.8 35 1.75C35 0.7 34.3 0 33.25 0Z" fill="#FFCF55"/>
</svg>
