<svg width="37" height="37" viewBox="0 0 37 37" fill="none" xmlns="http://www.w3.org/2000/svg">
<path fill-rule="evenodd" clip-rule="evenodd" d="M17.3897 32.375L9.43465 36.815C8.32465 37.37 7.02965 37 6.47465 35.89C6.28965 35.52 6.10465 34.965 6.28965 34.41L7.76965 25.16C7.95465 24.42 7.58465 23.68 7.21465 23.125L0.739648 16.28C-0.185352 15.355 -0.185352 13.875 0.739648 12.95C0.924649 12.765 1.47965 12.395 1.84965 12.395L10.9146 11.1C11.6546 10.915 12.2096 10.545 12.5796 9.80501L16.6497 1.29501C17.2047 0.185014 18.4997 -0.369986 19.6097 0.185014C19.9797 0.370014 20.3497 0.740014 20.5347 1.29501L24.6047 9.80501C24.9747 10.545 25.5297 10.915 26.2697 11.1L35.1497 12.395C36.4447 12.58 37.1847 13.69 36.9997 14.985C36.9997 15.54 36.6297 15.91 36.4447 16.28L29.9697 22.94C29.4147 23.495 29.2297 24.235 29.4146 24.975L30.8947 34.225C31.0797 35.52 30.3397 36.63 29.0447 36.815C28.4897 36.815 28.1196 36.815 27.5647 36.63L19.6097 32.19C18.8697 32.005 18.1297 32.005 17.3897 32.375Z" fill="#FFCF55"/>
</svg>
