<svg width="119" height="104" viewBox="0 0 119 104" fill="none" xmlns="http://www.w3.org/2000/svg">
<g clip-path="url(#clip0)">
<path d="M59.7048 77.6814C54.6017 77.6814 50.4492 73.5308 50.4492 68.4299C50.4492 63.3291 54.6017 59.1785 59.7048 59.1785C64.8078 59.1785 68.9603 63.3291 68.9603 68.4299C68.9603 73.5308 64.8078 77.6814 59.7048 77.6814ZM59.7048 62.7505C56.5719 62.7505 54.0228 65.2985 54.0228 68.4299C54.0228 71.5614 56.5719 74.1094 59.7048 74.1094C62.8376 74.1094 65.3868 71.5614 65.3868 68.4299C65.3868 65.2985 62.8376 62.7505 59.7048 62.7505Z" fill="#FFCF55"/>
<path d="M74.3422 104C73.5036 104 72.7531 103.407 72.5887 102.552L68.8198 82.9942C68.6483 82.106 69.1676 81.2296 70.0301 80.9558C79.0712 78.0696 86.6662 70.1945 89.5656 65.6033C90.0016 64.9127 89.8515 64.0102 89.2201 63.503C88.8723 63.2244 88.4363 63.1053 87.998 63.1672C87.562 63.2291 87.1832 63.4577 86.9307 63.8149C82.3613 70.2731 74.0158 77.9743 60.2075 77.9743C48.9484 77.9743 39.5332 73.0783 32.9816 63.8149C32.7291 63.4577 32.3503 63.2291 31.9143 63.1672C31.4736 63.1053 31.0376 63.2244 30.6922 63.503C30.0585 64.0102 29.9107 64.9127 30.3467 65.6033C33.2461 70.1921 40.8435 78.0696 49.8823 80.9558C50.7447 81.232 51.264 82.106 51.0925 82.9942L47.3236 102.552C47.1377 103.521 46.1991 104.155 45.2318 103.969C44.2622 103.783 43.6285 102.845 43.8143 101.878L47.2902 83.8372C37.3223 80.0866 29.9298 71.6376 27.3235 67.5131C25.9155 65.2866 26.4039 62.3647 28.4551 60.7192C29.5629 59.831 31.0066 59.4333 32.4122 59.6309C33.8131 59.8286 35.0853 60.6025 35.9001 61.7527C39.9811 67.5227 47.5142 74.4023 60.2099 74.4023C72.4887 74.4023 79.9312 67.5227 84.0146 61.7527C84.8294 60.6001 86.1016 59.8262 87.5025 59.6309C88.9104 59.4333 90.3518 59.8286 91.4596 60.7192C93.5132 62.3647 93.9992 65.2866 92.5912 67.5131C89.9849 71.6376 82.5924 80.0866 72.6245 83.8372L76.1004 101.878C76.2862 102.847 75.6525 103.783 74.6829 103.969C74.5685 103.988 74.4541 104 74.3422 104Z" fill="#FFCF55"/>
<path d="M38.4516 39.6397C36.9222 39.6397 35.407 39.2563 34.0252 38.5014C29.5463 36.0558 27.8953 30.4239 30.342 25.947C31.5284 23.7776 33.4868 22.2012 35.8596 21.5058C38.2325 20.8105 40.734 21.0796 42.9019 22.2655C45.0723 23.4514 46.6494 25.4088 47.3451 27.7806C48.0407 30.1525 47.7715 32.6529 46.5851 34.8199C45.3987 36.9893 43.4404 38.5657 41.0675 39.2611C40.2075 39.5159 39.3284 39.6397 38.4516 39.6397ZM35.7405 35.37C38.4898 36.8702 41.949 35.8581 43.4499 33.1101C44.1789 31.7789 44.3433 30.2453 43.9168 28.788C43.4904 27.333 42.5208 26.1304 41.189 25.4017C39.8573 24.6754 38.323 24.5087 36.865 24.935C35.4093 25.3612 34.2062 26.3304 33.4772 27.6616C31.9787 30.4096 32.9912 33.8673 35.7405 35.37Z" fill="#FFCF55"/>
<path d="M28.0269 62.3333C26.1996 62.3333 24.4438 61.3594 23.5027 59.671C21.1323 55.406 17.2585 44.871 18.7475 34.3289L1.24413 28.7256C0.303089 28.4255 -0.213888 27.4206 0.0862924 26.48C0.386473 25.5394 1.39422 25.0226 2.33288 25.3227L21.3086 31.3951C22.171 31.6713 22.6903 32.5476 22.5188 33.4359C20.7177 42.7493 23.9887 53.189 26.6284 57.935C27.0239 58.647 27.8887 58.9495 28.6391 58.6375C29.0513 58.4661 29.3634 58.1422 29.5206 57.7255C29.6755 57.3135 29.6564 56.8706 29.4635 56.48C25.9852 49.3741 23.2264 38.3628 29.8494 26.2514C35.2479 16.376 44.0627 10.4655 55.3361 9.16055C55.7697 9.11055 56.1533 8.88908 56.4153 8.53664C56.6822 8.17944 56.7846 7.74128 56.706 7.30311C56.5631 6.50537 55.846 5.93861 55.0288 5.99338C49.6089 6.33629 39.0525 9.22009 32.1818 15.7664C31.5266 16.3903 30.5093 16.426 29.8113 15.8497L14.4497 3.16197C13.6873 2.5333 13.5801 1.40931 14.2091 0.647286C14.838 -0.11236 15.9625 -0.21952 16.7249 0.406771L30.8953 12.1086C38.9692 5.16468 49.9305 2.73095 54.8025 2.42376C57.4326 2.25707 59.7626 4.08593 60.2248 6.67444C60.4725 8.07228 60.1295 9.52728 59.2814 10.6656C58.438 11.7991 57.1491 12.5444 55.7459 12.7064C48.7226 13.5208 39.0716 16.8261 32.9846 27.9612C27.0954 38.7319 29.5659 48.5597 32.6725 54.906C33.2943 56.1728 33.3634 57.6588 32.8631 58.9828C32.3628 60.3116 31.3217 61.3856 30.0114 61.9309C29.3634 62.2048 28.6916 62.3333 28.0269 62.3333Z" fill="#FFCF55"/>
<path d="M80.5477 39.6398C79.6734 39.6398 78.7942 39.5136 77.9294 39.2611C75.5566 38.5658 73.5983 36.9893 72.4119 34.82C71.2254 32.6506 70.9562 30.1525 71.6519 27.7807C72.3475 25.4089 73.9247 23.4515 76.095 22.2656C80.5739 19.8175 86.2082 21.4702 88.6549 25.9471C91.1017 30.424 89.4507 36.0559 84.9718 38.5015C83.5924 39.2564 82.0772 39.6398 80.5477 39.6398ZM80.5239 24.7064C79.6043 24.7064 78.6704 24.9303 77.8079 25.4018C76.4762 26.1281 75.5066 27.3307 75.0801 28.788C74.6537 30.243 74.8181 31.779 75.5471 33.1102C76.2737 34.4413 77.4768 35.4105 78.9348 35.8368C80.3904 36.263 81.9271 36.0987 83.2588 35.37C86.0081 33.8674 87.023 30.4097 85.5197 27.664C84.4882 25.7756 82.537 24.7064 80.5239 24.7064Z" fill="#FFCF55"/>
<path d="M90.9735 62.3338C90.3088 62.3338 89.6369 62.2052 88.9889 61.9361C87.6786 61.3908 86.6375 60.3145 86.1372 58.9881C85.6393 57.664 85.7084 56.1781 86.3278 54.9112C89.4368 48.5626 91.905 38.7348 86.0157 27.9664C79.9287 16.8289 70.2801 13.5213 63.2568 12.7092C61.8536 12.5473 60.5647 11.8043 59.7214 10.6684C58.8732 9.53014 58.5302 8.07514 58.778 6.6773C59.2378 4.08641 61.5701 2.25992 64.2003 2.42662C69.0722 2.73381 80.0336 5.16753 88.1075 12.1115L102.275 0.409628C103.035 -0.219044 104.162 -0.111884 104.791 0.650143C105.42 1.40979 105.313 2.53616 104.551 3.16483L89.1891 15.8502C88.491 16.4265 87.4737 16.3908 86.8186 15.7668C79.9502 9.22056 69.3915 6.33677 63.9715 5.99386C63.1568 5.93908 62.4349 6.50584 62.2944 7.30597C62.2157 7.74414 62.3206 8.1823 62.585 8.5395C62.8471 8.89194 63.2306 9.1134 63.6642 9.16341C74.9377 10.4684 83.7525 16.3789 89.1509 26.2542C95.7716 38.3657 93.0152 49.377 89.5369 56.4829C89.3439 56.8758 89.3249 57.3187 89.4797 57.7283C89.6369 58.1451 89.949 58.4689 90.3612 58.6404C91.1116 58.9523 91.9741 58.6499 92.3719 57.9355C95.0092 53.1919 98.2826 42.7521 96.4815 33.4387C96.31 32.5505 96.8294 31.6742 97.6918 31.3979L116.667 25.3255C117.608 25.0255 118.614 25.5422 118.914 26.4829C119.214 27.4235 118.697 28.4284 117.756 28.7284L100.25 34.3293C101.737 44.8715 97.8657 55.4065 95.4952 59.6715C94.5566 61.3599 92.8007 62.3338 90.9735 62.3338Z" fill="#FFCF55"/>
</g>
<defs>
<clipPath id="clip0">
<rect width="119" height="104" fill="white"/>
</clipPath>
</defs>
</svg>
