<svg width="39" height="39" viewBox="0 0 39 39" fill="none" xmlns="http://www.w3.org/2000/svg">
<path d="M38.4383 37.8553H33.7078C35.464 36.2892 35.3118 33.193 33.5204 31.707C33.8995 31.7254 34.3315 31.5962 34.3315 31.1357C34.3315 30.2499 34.0349 29.5207 33.4503 28.9685C33.1096 28.6467 32.7041 28.4223 32.2938 28.2656C32.4456 28.0157 32.5331 27.7226 32.5331 27.4093C32.5331 26.4972 31.7912 25.7552 30.8792 25.7552C29.9671 25.7552 29.2252 26.4972 29.2252 27.4093C29.2252 27.5916 29.2553 27.7668 29.3099 27.9309H28.3726C28.3802 26.1253 28.5577 24.2111 28.099 22.4482C27.278 19.2924 24.7233 16.8135 21.5634 16.0359V14.6751C23.6896 13.8496 25.2015 11.7829 25.2015 9.3683C25.2015 7.34941 24.0961 5.44956 22.3514 4.43981C22.5403 4.03178 22.6387 3.58711 22.6387 3.12843C22.6387 1.40339 21.2355 0 19.5106 0C17.7857 0 16.3825 1.40339 16.3825 3.12835C16.3825 3.58399 16.482 4.03018 16.6709 4.43912C14.9684 5.42397 13.8197 7.26387 13.8197 9.36823C13.8197 11.7433 15.2824 13.7822 17.3538 14.6339V16.0563C15.5497 16.4841 14.3798 17.367 14.327 17.4075C14.3268 17.4076 14.3267 17.4077 14.3266 17.4078C13.8999 17.7087 13.4957 18.0489 13.1256 18.4203C12.6176 18.9298 13.4097 19.7537 13.9348 19.2268C14.1061 19.055 14.2859 18.8912 14.4722 18.7355C15.4507 20.3966 17.3456 21.4716 19.4028 21.4716C21.4508 21.4716 23.3435 20.3546 24.3214 18.6308C26.1725 20.105 27.2537 22.3373 27.2435 24.7288L27.23 27.9309H26.5113C25.7761 27.9309 25.7749 29.0734 26.5113 29.0734H29.5357V30.7641C28.8102 30.8216 28.0894 30.9332 27.377 31.0805C27.0582 31.1464 25.9849 31.3808 25.9759 31.3897C25.9654 31.4002 24.6032 30.7945 24.6653 28.6855C24.6654 28.68 24.6655 28.6743 24.6655 28.6687V23.5111C24.6655 22.7759 23.523 22.7747 23.523 23.5111V28.6605C23.4773 30.2842 24.0963 31.2685 24.6602 31.8247C23.2233 32.3106 21.4939 33.0361 19.551 34.1186C17.5475 33.0002 15.7444 32.2471 14.1966 31.7415C14.7466 31.177 15.3283 30.2042 15.284 28.6282V23.4788C15.284 22.7436 14.1415 22.7424 14.1415 23.4788V28.6364C14.1415 28.642 14.1416 28.6476 14.1417 28.6532C14.1985 30.5797 13.063 31.241 12.856 31.3452C11.3938 30.9593 10.2343 30.8079 9.4421 30.7531V29.0734H12.4666C13.2018 29.0734 13.2068 27.9309 12.4666 27.9309H11.6355C11.6323 27.6788 11.6275 27.4266 11.6227 27.1801C11.5845 25.2252 11.5483 23.3788 12.2992 21.6208C12.588 20.9448 11.5377 20.4947 11.2486 21.172C10.4012 23.1556 10.4414 25.2129 10.4803 27.2024C10.4851 27.442 10.4897 27.6871 10.4928 27.9308H9.66779C9.72247 27.7667 9.75248 27.5915 9.75248 27.4092C9.75248 26.4971 9.01054 25.7551 8.09851 25.7551C7.18647 25.7551 6.44453 26.4971 6.44453 27.4092C6.44453 27.7224 6.53204 28.0155 6.68384 28.2654C6.27368 28.4221 5.86817 28.6465 5.52747 28.9683C4.94281 29.5205 4.64629 30.2497 4.64629 31.1355C4.64629 31.6303 5.12073 31.7242 5.51094 31.7067C3.77508 33.3437 3.4666 36.1394 5.30178 37.855H0.582975C0.267489 37.855 0.0117188 38.1108 0.0117188 38.4263C0.0117188 38.7418 0.267489 38.9976 0.582975 38.9976C0.582975 38.9976 25.604 38.9902 25.9438 38.9902C26.6302 38.9902 26.5129 37.855 25.851 37.855C25.851 37.855 17.9309 37.8192 15.9309 37.8258C20.2631 34.6124 23.9382 33.1624 26.3198 32.5098C28.6747 31.8645 30.2307 31.8533 30.647 31.8715C32.3369 31.9451 33.7304 32.9735 33.808 34.7803C33.8756 36.3552 32.6251 37.6983 31.0775 37.855H29.2575C28.5427 37.855 28.4891 38.9303 29.1939 38.9951C29.2892 39.0039 38.4383 38.9976 38.4383 38.9976C39.1734 38.9978 39.1746 37.8553 38.4383 37.8553ZM17.525 3.12835C17.525 2.03337 18.4157 1.14251 19.5106 1.14251C20.6055 1.14251 21.4962 2.03337 21.4962 3.12835C21.4962 3.42305 21.4313 3.70814 21.3086 3.96947C20.743 3.78058 20.1389 3.67668 19.5106 3.67668C18.8822 3.67668 18.278 3.78058 17.7124 3.96955C17.5898 3.70776 17.525 3.42129 17.525 3.12835ZM19.5106 4.8192C20.8666 4.8192 22.0852 5.4165 22.9192 6.36098C21.8145 8.43205 20.2015 9.58713 18.119 9.79461C16.4442 9.96173 15.066 9.43305 15.0482 9.42612C15.0201 9.41507 14.9915 9.40707 14.963 9.40068C14.9629 9.38978 14.9621 9.37912 14.9621 9.36823C14.9622 6.85988 17.0026 4.8192 19.5106 4.8192ZM15.1492 10.6568C15.6498 10.7958 16.4716 10.97 17.4478 10.97C17.6848 10.97 17.9311 10.9597 18.1838 10.9362C19.8216 10.7835 22.0203 10.032 23.6237 7.42824C23.9024 8.01709 24.0591 8.67457 24.0591 9.36823C24.0591 11.8766 22.0187 13.9172 19.5107 13.9172C17.4501 13.9172 15.7062 12.5393 15.1492 10.6568ZM19.4028 20.3291C17.7115 20.3291 16.1615 19.436 15.4039 18.0657C15.8969 17.7716 16.833 17.2966 18.0259 17.0829C18.2982 17.0342 18.4964 16.7973 18.4964 16.5207V14.9674C18.8258 15.0269 19.1644 15.0597 19.5107 15.0597C19.8205 15.0597 20.1244 15.0339 20.421 14.986V16.4956C20.421 16.7699 20.616 17.0055 20.8854 17.0568C21.516 17.1769 22.4275 17.4333 23.3775 17.9796C22.616 19.4019 21.0749 20.3291 19.4028 20.3291ZM33.1199 30.5644H30.6782V29.0735C31.2461 29.1213 32.1176 29.2813 32.6658 29.7991C32.8891 30.01 33.0396 30.263 33.1199 30.5644ZM30.8793 26.8978C31.1614 26.8978 31.3908 27.1273 31.3908 27.4094C31.3908 27.6916 31.1614 27.921 30.8793 27.921C30.5973 27.921 30.3678 27.6915 30.3678 27.4094C30.3678 27.1274 30.5973 26.8978 30.8793 26.8978ZM8.09858 26.8978C8.38063 26.8978 8.61005 27.1273 8.61005 27.4094C8.61005 27.6916 8.38063 27.921 8.09858 27.921C7.81653 27.921 7.58712 27.6915 7.58712 27.4094C7.58712 27.1274 7.81653 26.8978 8.09858 26.8978ZM6.30948 29.8015C6.86116 29.2784 7.73206 29.1188 8.29966 29.0721V30.5644H5.85804C5.93794 30.2641 6.0876 30.0119 6.30948 29.8015ZM5.80274 33.0344C6.25746 32.4474 7.17147 31.9142 8.36562 31.8751C8.75682 31.8622 12.6695 31.7473 18.3962 34.7905C18.2236 34.8951 18.0499 35.0017 17.8744 35.1119C17.2858 35.0733 11.6672 34.7885 10.1422 37.8377C9.33844 37.8349 8.53449 37.8288 7.73557 37.8176C5.47324 37.595 4.466 34.7602 5.80274 33.0344ZM14.1305 37.8329C13.2656 37.8364 12.3911 37.8393 11.5125 37.8397C12.2731 36.9859 13.6318 36.591 14.7449 36.4089C15.238 36.3281 15.7201 36.2825 16.1513 36.258C15.5424 36.6856 14.9201 37.1462 14.2858 37.644C14.2186 37.6967 14.167 37.7616 14.1305 37.8329Z" fill="#FFBA4F"/>
</svg>
